%
M48
M72
T01C0.01378
T02C0.03937
T03C0.04000
T04C0.05500
T05C0.12598
%
T01
X72366Y55752
X45358Y53075
X174256Y34925
X380437Y66461
X376500Y66461
X303665Y58587
X53665Y33980
X289886Y58587
X65476Y33980
X37917Y39886
X59571Y39886
X171776Y52681
X43823Y60555
X179650Y119610
X76303Y66461
X85161Y34965
X80240Y81224
X76303Y78272
X416854Y58587
X389295Y53665
X99925Y34965
X83193Y84177
X311539Y47760
X132406Y39886
X124531Y44807
X297760Y48744
X40870Y29059
X207209Y47760
X56382Y21854
X160949Y32012
X92051Y94020
X91067Y82209
X456224Y9374
X434571Y32996
X322366Y10358
X219020Y39886
X437524Y38902
X412917Y30043
X273154Y131421
X171776Y74335
X274138Y68429
X181618Y66461
X372563Y66461
X474925Y126500
X421776Y27091
X273154Y135358
X222957Y39886
X426697Y35949
X428665Y41854
X205240Y35949
X450319Y88114
T02
X456500Y171500
X442720Y151815
X428941Y171500
X415161Y151815
X401382Y171500
X387602Y151815
X373823Y171500
X351500Y171500
X337720Y151815
X323941Y171500
X310161Y151815
X296382Y171500
X282602Y151815
X268823Y171500
X246500Y171500
X232720Y151815
X218941Y171500
X205161Y151815
X191382Y171500
X177602Y151815
X163823Y171500
X141500Y171500
X127720Y151815
X113941Y171500
X100161Y151815
X86382Y171500
X72602Y151815
X58823Y171500
X456500Y91500
X442720Y71815
X428941Y91500
X415161Y71815
X401382Y91500
X387602Y71815
X373823Y91500
X351500Y91500
X337720Y71815
X323941Y91500
X310161Y71815
X296382Y91500
X282602Y71815
X268823Y91500
X246500Y91500
X232720Y71815
X218941Y91500
X205161Y71815
X191382Y91500
X177602Y71815
X163823Y91500
X141500Y91500
X127720Y71815
X113941Y91500
X100161Y71815
X86382Y91500
X72602Y71815
X58823Y91500
T03
X51500Y16500
X51500Y26500
X61500Y16500
X61500Y26500
X71500Y16500
X71500Y26500
X81500Y16500
X81500Y26500
X91500Y16500
X91500Y26500
X101500Y16500
X101500Y26500
X111500Y16500
X111500Y26500
X121500Y16500
X121500Y26500
X131500Y16500
X131500Y26500
X141500Y16500
X141500Y26500
X151500Y16500
X151500Y26500
X161500Y16500
X161500Y26500
X171500Y16500
X171500Y26500
X181500Y16500
X181500Y26500
X191500Y16500
X191500Y26500
X201500Y16500
X201500Y26500
X211500Y16500
X211500Y26500
X221500Y16500
X221500Y26500
X231500Y16500
X231500Y26500
X241500Y16500
X241500Y26500
X26500Y41500
X16500Y41500
X26500Y51500
X16500Y51500
X26500Y61500
X16500Y61500
X26500Y71500
X16500Y71500
X26500Y81500
X16500Y81500
X26500Y91500
X16500Y91500
X26500Y101500
X16500Y101500
X26500Y111500
X16500Y111500
X26500Y121500
X16500Y121500
X26500Y131500
X16500Y131500
X496500Y61500
X486500Y61500
X496500Y71500
X486500Y71500
X496500Y81500
X486500Y81500
X496500Y91500
X486500Y91500
X496500Y101500
X486500Y101500
X496500Y111500
X486500Y111500
X496500Y121500
X486500Y121500
X496500Y131500
X486500Y131500
X496500Y141500
X486500Y141500
X496500Y151500
X486500Y151500
T04
X436500Y21500
X456500Y21500
T05
X14020Y14020
X14020Y185831
X500791Y185831
X500791Y14020
M30
