G75*
%MOIN*%
%OFA0B0*%
%FSLAX25Y25*%
%IPPOS*%
%LPD*%
%AMOC8*
5,1,8,0,0,1.08239X$1,22.5*
%
%ADD10C,0.00000*%
%ADD11R,0.05937X0.05937*%
%ADD12C,0.05937*%
%ADD13C,0.08250*%
%ADD14OC8,0.06000*%
%ADD15C,0.05000*%
%ADD16C,0.00600*%
%ADD17C,0.25000*%
%ADD18C,0.01000*%
%ADD19C,0.02978*%
D10*
X0001500Y0001500D02*
X0001500Y0198350D01*
X0513311Y0198350D01*
X0513311Y0001500D01*
X0001500Y0001500D01*
D11*
X0141500Y0091500D03*
X0246500Y0091500D03*
X0351500Y0091500D03*
X0456500Y0091500D03*
X0456500Y0171500D03*
X0351500Y0171500D03*
X0246500Y0171500D03*
X0141500Y0171500D03*
D12*
X0163823Y0171500D03*
X0191382Y0171500D03*
X0218941Y0171500D03*
X0232720Y0151815D03*
X0205161Y0151815D03*
X0177602Y0151815D03*
X0127720Y0151815D03*
X0100161Y0151815D03*
X0072602Y0151815D03*
X0058823Y0171500D03*
X0086382Y0171500D03*
X0113941Y0171500D03*
X0268823Y0171500D03*
X0296382Y0171500D03*
X0323941Y0171500D03*
X0337720Y0151815D03*
X0310161Y0151815D03*
X0282602Y0151815D03*
X0373823Y0171500D03*
X0401382Y0171500D03*
X0428941Y0171500D03*
X0442720Y0151815D03*
X0415161Y0151815D03*
X0387602Y0151815D03*
X0373823Y0091500D03*
X0401382Y0091500D03*
X0428941Y0091500D03*
X0442720Y0071815D03*
X0415161Y0071815D03*
X0387602Y0071815D03*
X0337720Y0071815D03*
X0310161Y0071815D03*
X0282602Y0071815D03*
X0232720Y0071815D03*
X0205161Y0071815D03*
X0177602Y0071815D03*
X0163823Y0091500D03*
X0191382Y0091500D03*
X0218941Y0091500D03*
X0268823Y0091500D03*
X0296382Y0091500D03*
X0323941Y0091500D03*
X0127720Y0071815D03*
X0100161Y0071815D03*
X0072602Y0071815D03*
X0058823Y0091500D03*
X0086382Y0091500D03*
X0113941Y0091500D03*
D13*
X0436500Y0021500D03*
X0456500Y0021500D03*
D14*
X0486500Y0061500D03*
X0496500Y0061500D03*
X0496500Y0071500D03*
X0486500Y0071500D03*
X0486500Y0081500D03*
X0496500Y0081500D03*
X0496500Y0091500D03*
X0486500Y0091500D03*
X0486500Y0101500D03*
X0496500Y0101500D03*
X0496500Y0111500D03*
X0486500Y0111500D03*
X0486500Y0121500D03*
X0496500Y0121500D03*
X0496500Y0131500D03*
X0486500Y0131500D03*
X0486500Y0141500D03*
X0496500Y0141500D03*
X0496500Y0151500D03*
X0486500Y0151500D03*
X0241500Y0026500D03*
X0231500Y0026500D03*
X0221500Y0026500D03*
X0211500Y0026500D03*
X0201500Y0026500D03*
X0191500Y0026500D03*
X0181500Y0026500D03*
X0171500Y0026500D03*
X0161500Y0026500D03*
X0151500Y0026500D03*
X0141500Y0026500D03*
X0131500Y0026500D03*
X0121500Y0026500D03*
X0111500Y0026500D03*
X0101500Y0026500D03*
X0091500Y0026500D03*
X0081500Y0026500D03*
X0071500Y0026500D03*
X0061500Y0026500D03*
X0051500Y0026500D03*
X0051500Y0016500D03*
X0061500Y0016500D03*
X0071500Y0016500D03*
X0081500Y0016500D03*
X0091500Y0016500D03*
X0101500Y0016500D03*
X0111500Y0016500D03*
X0121500Y0016500D03*
X0131500Y0016500D03*
X0141500Y0016500D03*
X0151500Y0016500D03*
X0161500Y0016500D03*
X0171500Y0016500D03*
X0181500Y0016500D03*
X0191500Y0016500D03*
X0201500Y0016500D03*
X0211500Y0016500D03*
X0221500Y0016500D03*
X0231500Y0016500D03*
X0241500Y0016500D03*
X0026500Y0041500D03*
X0016500Y0041500D03*
X0016500Y0051500D03*
X0026500Y0051500D03*
X0026500Y0061500D03*
X0016500Y0061500D03*
X0016500Y0071500D03*
X0026500Y0071500D03*
X0026500Y0081500D03*
X0016500Y0081500D03*
X0016500Y0091500D03*
X0026500Y0091500D03*
X0026500Y0101500D03*
X0016500Y0101500D03*
X0016500Y0111500D03*
X0026500Y0111500D03*
X0026500Y0121500D03*
X0016500Y0121500D03*
X0016500Y0131500D03*
X0026500Y0131500D03*
D15*
X0100161Y0139531D02*
X0113350Y0126343D01*
X0100161Y0113154D01*
X0100161Y0071815D01*
X0205161Y0071815D02*
X0205161Y0114610D01*
X0216894Y0126343D01*
X0205161Y0138075D01*
X0205161Y0151815D01*
X0216894Y0126343D02*
X0320161Y0126343D01*
X0310161Y0116343D01*
X0310161Y0071815D01*
X0415161Y0071815D02*
X0415161Y0116972D01*
X0424531Y0126343D01*
X0415161Y0135713D01*
X0415161Y0151815D01*
X0424531Y0126343D02*
X0467839Y0126343D01*
X0473744Y0120437D01*
X0473744Y0038744D01*
X0456500Y0021500D01*
X0436500Y0021500D01*
X0424531Y0126343D02*
X0320161Y0126343D01*
X0310161Y0136343D01*
X0310161Y0151815D01*
X0216894Y0126343D02*
X0113350Y0126343D01*
X0100161Y0139531D02*
X0100161Y0151815D01*
D16*
X0084177Y0157996D02*
X0077287Y0151106D01*
X0073350Y0151106D01*
X0072602Y0151815D01*
X0084177Y0157996D02*
X0150122Y0157996D01*
X0162917Y0170791D01*
X0163823Y0171500D01*
X0182602Y0157996D02*
X0176697Y0152091D01*
X0177602Y0151815D01*
X0182602Y0157996D02*
X0255437Y0157996D01*
X0268232Y0170791D01*
X0268823Y0171500D01*
X0283980Y0152091D02*
X0293823Y0161933D01*
X0364689Y0161933D01*
X0373547Y0170791D01*
X0373823Y0171500D01*
X0373547Y0157996D02*
X0385358Y0146185D01*
X0401106Y0146185D01*
X0410949Y0156028D01*
X0429650Y0156028D01*
X0449217Y0136461D01*
X0488783Y0136461D01*
X0492839Y0132406D01*
X0495594Y0132406D01*
X0496500Y0131500D01*
X0480831Y0120594D02*
X0474925Y0126500D01*
X0480831Y0120594D02*
X0480831Y0081224D01*
X0485752Y0081224D01*
X0486500Y0081500D01*
X0496500Y0071500D02*
X0496579Y0071382D01*
X0504453Y0071382D01*
X0504453Y0057602D01*
X0456224Y0009374D01*
X0459177Y0014295D02*
X0502484Y0057602D01*
X0502484Y0066421D01*
X0493665Y0066421D01*
X0491618Y0068469D01*
X0491618Y0098316D01*
X0496500Y0101500D01*
X0491264Y0106421D02*
X0486736Y0101894D01*
X0486500Y0101500D01*
X0491264Y0106421D02*
X0502484Y0106421D01*
X0502484Y0151106D01*
X0493626Y0159965D01*
X0297760Y0159965D01*
X0273154Y0135358D01*
X0273154Y0131421D02*
X0299728Y0157996D01*
X0373547Y0157996D01*
X0387602Y0151815D02*
X0388311Y0151106D01*
X0392248Y0151106D01*
X0399138Y0157996D01*
X0479846Y0157996D01*
X0485752Y0152091D01*
X0486500Y0151500D01*
X0486736Y0151106D01*
X0495594Y0151106D01*
X0496500Y0151500D01*
X0374531Y0091067D02*
X0373823Y0091500D01*
X0374531Y0091067D02*
X0374531Y0085161D01*
X0387327Y0072366D01*
X0387602Y0071815D01*
X0380437Y0066461D02*
X0375516Y0061539D01*
X0086146Y0061539D01*
X0051697Y0027091D01*
X0051500Y0026500D01*
X0050713Y0027091D01*
X0045791Y0032012D01*
X0026106Y0032012D01*
X0017248Y0040870D01*
X0016500Y0041500D01*
X0021618Y0038469D02*
X0026106Y0033980D01*
X0053665Y0033980D01*
X0059571Y0039886D02*
X0037917Y0039886D01*
X0029059Y0041854D02*
X0027091Y0041854D01*
X0026500Y0041500D01*
X0029059Y0041854D02*
X0050713Y0063508D01*
X0373547Y0063508D01*
X0376500Y0066461D01*
X0372563Y0066461D02*
X0371579Y0065476D01*
X0182602Y0065476D01*
X0181618Y0066461D01*
X0171776Y0074335D02*
X0174728Y0077287D01*
X0191461Y0077287D01*
X0201303Y0067445D01*
X0220004Y0067445D01*
X0230831Y0078272D01*
X0264295Y0078272D01*
X0274138Y0068429D01*
X0288902Y0059571D02*
X0091067Y0059571D01*
X0065476Y0033980D01*
X0081224Y0031028D02*
X0081224Y0027091D01*
X0081500Y0026500D01*
X0072366Y0027091D02*
X0071500Y0026500D01*
X0072366Y0027091D02*
X0096972Y0051697D01*
X0170791Y0051697D01*
X0171776Y0052681D01*
X0172760Y0049728D02*
X0178665Y0055634D01*
X0286933Y0055634D01*
X0288902Y0053665D01*
X0389295Y0053665D01*
X0408980Y0050713D02*
X0299728Y0050713D01*
X0298744Y0051697D01*
X0288902Y0051697D01*
X0286933Y0053665D01*
X0178665Y0053665D01*
X0172760Y0047760D01*
X0116657Y0047760D01*
X0098941Y0030043D01*
X0095004Y0030043D01*
X0092051Y0027091D01*
X0091500Y0026500D01*
X0101500Y0026500D02*
X0101894Y0027091D01*
X0106815Y0032012D01*
X0111736Y0032012D01*
X0124531Y0044807D01*
X0129453Y0045791D02*
X0110752Y0027091D01*
X0111500Y0026500D01*
X0111251Y0026369D01*
X0106697Y0021815D01*
X0056421Y0021815D01*
X0056382Y0021854D01*
X0061500Y0026500D02*
X0061539Y0027091D01*
X0062524Y0027091D01*
X0093035Y0057602D01*
X0286933Y0057602D01*
X0288902Y0055634D01*
X0300713Y0055634D01*
X0303665Y0058587D01*
X0289886Y0058587D02*
X0288902Y0059571D01*
X0286933Y0051697D02*
X0215083Y0051697D01*
X0206224Y0042839D01*
X0131421Y0042839D01*
X0116461Y0027878D01*
X0116461Y0021461D01*
X0108902Y0021461D01*
X0104689Y0017248D01*
X0101894Y0017248D01*
X0101500Y0016500D01*
X0100909Y0016264D01*
X0096972Y0012327D01*
X0049728Y0012327D01*
X0040870Y0021185D01*
X0040870Y0029059D01*
X0032012Y0028075D02*
X0049728Y0010358D01*
X0104846Y0010358D01*
X0110752Y0016264D01*
X0111500Y0016500D01*
X0111736Y0017248D01*
X0114413Y0017248D01*
X0119335Y0022169D01*
X0126461Y0022169D01*
X0126461Y0027051D01*
X0131421Y0032012D01*
X0160949Y0032012D01*
X0161500Y0026500D02*
X0160949Y0026106D01*
X0156028Y0021185D01*
X0150122Y0021185D01*
X0146500Y0017563D01*
X0146500Y0009374D01*
X0157012Y0009374D01*
X0157996Y0008390D01*
X0273154Y0008390D01*
X0291854Y0027091D01*
X0421776Y0027091D01*
X0412917Y0030043D02*
X0292839Y0030043D01*
X0273154Y0010358D01*
X0198350Y0010358D01*
X0192445Y0016264D01*
X0191500Y0016500D01*
X0186579Y0013350D02*
X0186579Y0022169D01*
X0203272Y0022169D01*
X0206736Y0025634D01*
X0206736Y0030555D01*
X0209177Y0032996D01*
X0434571Y0032996D01*
X0426697Y0035949D02*
X0226894Y0035949D01*
X0222957Y0039886D01*
X0221972Y0042839D02*
X0219020Y0039886D01*
X0221972Y0042839D02*
X0287917Y0042839D01*
X0291854Y0038902D01*
X0437524Y0038902D01*
X0428665Y0041854D02*
X0290870Y0041854D01*
X0287917Y0044807D01*
X0218035Y0044807D01*
X0206224Y0032996D01*
X0198350Y0032996D01*
X0192445Y0027091D01*
X0191500Y0026500D01*
X0205240Y0035949D02*
X0217051Y0047760D01*
X0286933Y0047760D01*
X0290870Y0043823D01*
X0406028Y0043823D01*
X0450319Y0088114D01*
X0496500Y0061500D02*
X0496579Y0060555D01*
X0496579Y0053665D01*
X0459177Y0016264D01*
X0282996Y0016264D01*
X0273154Y0006421D01*
X0157996Y0006421D01*
X0157012Y0007406D01*
X0141264Y0007406D01*
X0132406Y0016264D01*
X0131500Y0016500D01*
X0151500Y0016500D02*
X0152091Y0016264D01*
X0157996Y0010358D01*
X0183587Y0010358D01*
X0186579Y0013350D01*
X0221500Y0016500D02*
X0221972Y0017248D01*
X0221972Y0026106D01*
X0221500Y0026500D01*
X0241500Y0026500D02*
X0241657Y0026106D01*
X0241657Y0017248D01*
X0241500Y0016500D01*
X0215083Y0049728D02*
X0205240Y0039886D01*
X0132406Y0039886D01*
X0129453Y0045791D02*
X0205240Y0045791D01*
X0207209Y0047760D01*
X0215083Y0049728D02*
X0286933Y0049728D01*
X0290870Y0045791D01*
X0309571Y0045791D01*
X0311539Y0047760D01*
X0297760Y0048744D02*
X0296776Y0049728D01*
X0288902Y0049728D01*
X0286933Y0051697D01*
X0326303Y0014295D02*
X0459177Y0014295D01*
X0416854Y0058587D02*
X0408980Y0050713D01*
X0326303Y0014295D02*
X0322366Y0010358D01*
X0172760Y0049728D02*
X0114689Y0049728D01*
X0099925Y0034965D01*
X0085161Y0034965D02*
X0081224Y0031028D01*
X0032012Y0028075D02*
X0010358Y0028075D01*
X0010358Y0091067D01*
X0015752Y0096461D01*
X0021657Y0096461D01*
X0026106Y0100909D01*
X0026500Y0101500D01*
X0022091Y0106421D02*
X0079650Y0106421D01*
X0092051Y0094020D01*
X0095004Y0096972D02*
X0095004Y0082209D01*
X0091067Y0082209D01*
X0083193Y0084177D02*
X0029059Y0084177D01*
X0027091Y0082209D01*
X0026500Y0081500D01*
X0021421Y0076539D02*
X0066697Y0076539D01*
X0071382Y0081224D01*
X0080240Y0081224D01*
X0076303Y0078272D02*
X0070398Y0078272D01*
X0067445Y0075319D01*
X0030043Y0075319D01*
X0027091Y0072366D01*
X0026500Y0071500D01*
X0021421Y0076539D02*
X0017248Y0072366D01*
X0016500Y0071500D01*
X0031028Y0061539D02*
X0034965Y0065476D01*
X0076303Y0065476D01*
X0076303Y0066461D01*
X0076303Y0065476D02*
X0101894Y0065476D01*
X0114689Y0078272D01*
X0138311Y0078272D01*
X0179650Y0119610D01*
X0095004Y0096972D02*
X0084177Y0107799D01*
X0030043Y0107799D01*
X0027091Y0110752D01*
X0026500Y0111500D01*
X0022091Y0106421D02*
X0017012Y0111500D01*
X0016500Y0111500D01*
X0017248Y0131421D02*
X0016500Y0131500D01*
X0017248Y0131421D02*
X0026106Y0131421D01*
X0026500Y0131500D01*
X0027091Y0061539D02*
X0026500Y0061500D01*
X0027091Y0061539D02*
X0031028Y0061539D01*
X0033980Y0060555D02*
X0043823Y0060555D01*
X0033980Y0060555D02*
X0029059Y0055634D01*
X0022169Y0055634D01*
X0017248Y0060555D01*
X0016500Y0061500D01*
X0016500Y0051500D02*
X0017248Y0050713D01*
X0021618Y0046343D01*
X0021618Y0038469D01*
X0282602Y0151815D02*
X0282996Y0152091D01*
X0283980Y0152091D01*
D17*
X0500791Y0185831D03*
X0500791Y0014020D03*
X0014020Y0014020D03*
X0014020Y0185831D03*
D18*
X0006000Y0186225D02*
X0508811Y0186225D01*
X0508811Y0187223D02*
X0006000Y0187223D01*
X0006000Y0188222D02*
X0508811Y0188222D01*
X0508811Y0189220D02*
X0006000Y0189220D01*
X0006000Y0190219D02*
X0508811Y0190219D01*
X0508811Y0191217D02*
X0006000Y0191217D01*
X0006000Y0192216D02*
X0508811Y0192216D01*
X0508811Y0193214D02*
X0006000Y0193214D01*
X0006000Y0193850D02*
X0508811Y0193850D01*
X0508811Y0006000D01*
X0274712Y0006000D01*
X0283576Y0014864D01*
X0324892Y0014864D01*
X0322948Y0012920D01*
X0322881Y0012947D01*
X0321851Y0012947D01*
X0320900Y0012553D01*
X0320171Y0011825D01*
X0319777Y0010873D01*
X0319777Y0009843D01*
X0320171Y0008892D01*
X0320900Y0008163D01*
X0321851Y0007769D01*
X0322881Y0007769D01*
X0323833Y0008163D01*
X0324561Y0008892D01*
X0324955Y0009843D01*
X0324955Y0010873D01*
X0324928Y0010940D01*
X0326883Y0012895D01*
X0457766Y0012895D01*
X0456806Y0011935D01*
X0456739Y0011963D01*
X0455709Y0011963D01*
X0454758Y0011569D01*
X0454030Y0010841D01*
X0453635Y0009889D01*
X0453635Y0008859D01*
X0454030Y0007907D01*
X0454758Y0007179D01*
X0455709Y0006785D01*
X0456739Y0006785D01*
X0457691Y0007179D01*
X0458419Y0007907D01*
X0458813Y0008859D01*
X0458813Y0009889D01*
X0458786Y0009956D01*
X0505033Y0056202D01*
X0505853Y0057022D01*
X0505853Y0071962D01*
X0505033Y0072782D01*
X0500600Y0072782D01*
X0500600Y0073198D01*
X0498198Y0075600D01*
X0494802Y0075600D01*
X0493018Y0073816D01*
X0493018Y0079184D01*
X0494802Y0077400D01*
X0498198Y0077400D01*
X0500600Y0079802D01*
X0500600Y0083198D01*
X0498198Y0085600D01*
X0494802Y0085600D01*
X0493018Y0083816D01*
X0493018Y0089184D01*
X0494802Y0087400D01*
X0498198Y0087400D01*
X0500600Y0089802D01*
X0500600Y0093198D01*
X0498198Y0095600D01*
X0494802Y0095600D01*
X0493018Y0093816D01*
X0493018Y0097558D01*
X0494002Y0098200D01*
X0494802Y0097400D01*
X0498198Y0097400D01*
X0500600Y0099802D01*
X0500600Y0103198D01*
X0498777Y0105021D01*
X0503064Y0105021D01*
X0503884Y0105841D01*
X0503884Y0151686D01*
X0503064Y0152506D01*
X0494206Y0161365D01*
X0366100Y0161365D01*
X0372415Y0167679D01*
X0373014Y0167431D01*
X0374632Y0167431D01*
X0376127Y0168051D01*
X0377272Y0169195D01*
X0377891Y0170691D01*
X0377891Y0172309D01*
X0377272Y0173805D01*
X0376127Y0174949D01*
X0374632Y0175568D01*
X0373014Y0175568D01*
X0371518Y0174949D01*
X0370374Y0173805D01*
X0369754Y0172309D01*
X0369754Y0170691D01*
X0370256Y0169480D01*
X0364109Y0163333D01*
X0293243Y0163333D01*
X0285040Y0155131D01*
X0284907Y0155264D01*
X0283412Y0155883D01*
X0281793Y0155883D01*
X0280298Y0155264D01*
X0279153Y0154120D01*
X0278534Y0152624D01*
X0278534Y0151006D01*
X0279153Y0149510D01*
X0280298Y0148366D01*
X0281793Y0147746D01*
X0283412Y0147746D01*
X0283668Y0147853D01*
X0273735Y0137920D01*
X0273669Y0137947D01*
X0272639Y0137947D01*
X0271687Y0137553D01*
X0270959Y0136825D01*
X0270565Y0135873D01*
X0270565Y0134843D01*
X0270959Y0133892D01*
X0271461Y0133390D01*
X0270959Y0132888D01*
X0270565Y0131936D01*
X0270565Y0130906D01*
X0270959Y0129955D01*
X0270971Y0129943D01*
X0218385Y0129943D01*
X0208761Y0139566D01*
X0208761Y0149875D01*
X0209230Y0151006D01*
X0209230Y0152624D01*
X0208611Y0154120D01*
X0207466Y0155264D01*
X0205971Y0155883D01*
X0204352Y0155883D01*
X0202857Y0155264D01*
X0201712Y0154120D01*
X0201093Y0152624D01*
X0201093Y0151006D01*
X0201561Y0149875D01*
X0201561Y0137359D01*
X0202109Y0136036D01*
X0208203Y0129943D01*
X0114842Y0129943D01*
X0103761Y0141023D01*
X0103761Y0149875D01*
X0104230Y0151006D01*
X0104230Y0152624D01*
X0103611Y0154120D01*
X0102466Y0155264D01*
X0100971Y0155883D01*
X0099352Y0155883D01*
X0097857Y0155264D01*
X0096712Y0154120D01*
X0096093Y0152624D01*
X0096093Y0151006D01*
X0096561Y0149875D01*
X0096561Y0138815D01*
X0097109Y0137492D01*
X0108259Y0126343D01*
X0097109Y0115193D01*
X0096561Y0113870D01*
X0096561Y0073755D01*
X0096093Y0072624D01*
X0096093Y0071006D01*
X0096712Y0069510D01*
X0097857Y0068366D01*
X0099352Y0067746D01*
X0100971Y0067746D01*
X0102466Y0068366D01*
X0103611Y0069510D01*
X0104230Y0071006D01*
X0104230Y0072624D01*
X0103761Y0073755D01*
X0103761Y0111662D01*
X0114842Y0122743D01*
X0208203Y0122743D01*
X0202109Y0116649D01*
X0201561Y0115326D01*
X0201561Y0073755D01*
X0201093Y0072624D01*
X0201093Y0071006D01*
X0201712Y0069510D01*
X0202378Y0068845D01*
X0201883Y0068845D01*
X0192041Y0078687D01*
X0174148Y0078687D01*
X0173328Y0077867D01*
X0172357Y0076896D01*
X0172291Y0076924D01*
X0171261Y0076924D01*
X0170309Y0076529D01*
X0169581Y0075801D01*
X0169187Y0074850D01*
X0169187Y0073820D01*
X0169581Y0072868D01*
X0170309Y0072140D01*
X0171261Y0071746D01*
X0172291Y0071746D01*
X0173242Y0072140D01*
X0173534Y0072432D01*
X0173534Y0071006D01*
X0174153Y0069510D01*
X0175298Y0068366D01*
X0176793Y0067746D01*
X0178412Y0067746D01*
X0179830Y0068334D01*
X0179423Y0067927D01*
X0179029Y0066976D01*
X0179029Y0065946D01*
X0179423Y0064994D01*
X0179510Y0064908D01*
X0103305Y0064908D01*
X0115269Y0076872D01*
X0138891Y0076872D01*
X0139711Y0077692D01*
X0179068Y0117049D01*
X0179135Y0117021D01*
X0180165Y0117021D01*
X0181116Y0117415D01*
X0181844Y0118144D01*
X0182239Y0119095D01*
X0182239Y0120125D01*
X0181844Y0121077D01*
X0181116Y0121805D01*
X0180165Y0122199D01*
X0179135Y0122199D01*
X0178183Y0121805D01*
X0177455Y0121077D01*
X0177061Y0120125D01*
X0177061Y0119095D01*
X0177088Y0119029D01*
X0137731Y0079672D01*
X0114109Y0079672D01*
X0101314Y0066876D01*
X0078892Y0066876D01*
X0078892Y0066976D01*
X0078498Y0067927D01*
X0077770Y0068655D01*
X0076818Y0069050D01*
X0075788Y0069050D01*
X0075451Y0068910D01*
X0076051Y0069510D01*
X0076671Y0071006D01*
X0076671Y0072624D01*
X0076051Y0074120D01*
X0074907Y0075264D01*
X0073412Y0075883D01*
X0071793Y0075883D01*
X0070298Y0075264D01*
X0069153Y0074120D01*
X0068534Y0072624D01*
X0068534Y0071006D01*
X0069153Y0069510D01*
X0070298Y0068366D01*
X0071793Y0067746D01*
X0073412Y0067746D01*
X0074292Y0068111D01*
X0074108Y0067927D01*
X0073714Y0066976D01*
X0073714Y0066876D01*
X0034385Y0066876D01*
X0030600Y0063092D01*
X0030600Y0063198D01*
X0028198Y0065600D01*
X0024802Y0065600D01*
X0022400Y0063198D01*
X0022400Y0059802D01*
X0024802Y0057400D01*
X0028198Y0057400D01*
X0030600Y0059802D01*
X0030600Y0060139D01*
X0031585Y0060139D01*
X0028479Y0057034D01*
X0022749Y0057034D01*
X0020291Y0059492D01*
X0020600Y0059802D01*
X0020600Y0063198D01*
X0018198Y0065600D01*
X0014802Y0065600D01*
X0012400Y0063198D01*
X0012400Y0059802D01*
X0014802Y0057400D01*
X0018198Y0057400D01*
X0018311Y0057512D01*
X0020769Y0055054D01*
X0021589Y0054234D01*
X0023436Y0054234D01*
X0022400Y0053198D01*
X0022400Y0049802D01*
X0024802Y0047400D01*
X0028198Y0047400D01*
X0030600Y0049802D01*
X0030600Y0053198D01*
X0029564Y0054234D01*
X0029639Y0054234D01*
X0034560Y0059155D01*
X0041600Y0059155D01*
X0041628Y0059089D01*
X0042356Y0058360D01*
X0043225Y0058000D01*
X0029512Y0044287D01*
X0028198Y0045600D01*
X0024802Y0045600D01*
X0023018Y0043816D01*
X0023018Y0046922D01*
X0022198Y0047743D01*
X0020369Y0049571D01*
X0020600Y0049802D01*
X0020600Y0053198D01*
X0018198Y0055600D01*
X0014802Y0055600D01*
X0012400Y0053198D01*
X0012400Y0049802D01*
X0014802Y0047400D01*
X0018198Y0047400D01*
X0018389Y0047591D01*
X0020218Y0045763D01*
X0020218Y0043580D01*
X0018198Y0045600D01*
X0014802Y0045600D01*
X0012400Y0043198D01*
X0012400Y0039802D01*
X0014802Y0037400D01*
X0018198Y0037400D01*
X0018468Y0037670D01*
X0024706Y0031432D01*
X0025526Y0030612D01*
X0038761Y0030612D01*
X0038675Y0030526D01*
X0038281Y0029574D01*
X0038281Y0028544D01*
X0038675Y0027593D01*
X0039404Y0026864D01*
X0039470Y0026837D01*
X0039470Y0022596D01*
X0032592Y0029475D01*
X0011758Y0029475D01*
X0011758Y0090487D01*
X0012400Y0091129D01*
X0012400Y0089802D01*
X0014802Y0087400D01*
X0018198Y0087400D01*
X0020600Y0089802D01*
X0020600Y0093198D01*
X0018738Y0095061D01*
X0022237Y0095061D01*
X0023057Y0095881D01*
X0024689Y0097512D01*
X0024802Y0097400D01*
X0028198Y0097400D01*
X0030600Y0099802D01*
X0030600Y0103198D01*
X0028777Y0105021D01*
X0079070Y0105021D01*
X0089490Y0094601D01*
X0089462Y0094535D01*
X0089462Y0094173D01*
X0088687Y0094949D01*
X0087191Y0095568D01*
X0085573Y0095568D01*
X0084077Y0094949D01*
X0082933Y0093805D01*
X0082313Y0092309D01*
X0082313Y0090691D01*
X0082933Y0089195D01*
X0084077Y0088051D01*
X0085573Y0087431D01*
X0087191Y0087431D01*
X0088687Y0088051D01*
X0089831Y0089195D01*
X0090450Y0090691D01*
X0090450Y0091959D01*
X0090585Y0091825D01*
X0091536Y0091431D01*
X0092566Y0091431D01*
X0093518Y0091825D01*
X0093604Y0091911D01*
X0093604Y0083609D01*
X0093289Y0083609D01*
X0093262Y0083675D01*
X0092533Y0084403D01*
X0091582Y0084798D01*
X0090552Y0084798D01*
X0089600Y0084403D01*
X0088872Y0083675D01*
X0088478Y0082724D01*
X0088478Y0081694D01*
X0088872Y0080742D01*
X0089600Y0080014D01*
X0090552Y0079620D01*
X0091582Y0079620D01*
X0092533Y0080014D01*
X0093262Y0080742D01*
X0093289Y0080809D01*
X0095584Y0080809D01*
X0096404Y0081629D01*
X0096404Y0097552D01*
X0095584Y0098372D01*
X0084757Y0109199D01*
X0030623Y0109199D01*
X0030310Y0109512D01*
X0030600Y0109802D01*
X0030600Y0113198D01*
X0028198Y0115600D01*
X0024802Y0115600D01*
X0022400Y0113198D01*
X0022400Y0109802D01*
X0024380Y0107821D01*
X0022670Y0107821D01*
X0020600Y0109892D01*
X0020600Y0113198D01*
X0018198Y0115600D01*
X0014802Y0115600D01*
X0012400Y0113198D01*
X0012400Y0109802D01*
X0014802Y0107400D01*
X0018198Y0107400D01*
X0018665Y0107867D01*
X0020691Y0105841D01*
X0021511Y0105021D01*
X0024223Y0105021D01*
X0022400Y0103198D01*
X0022400Y0099802D01*
X0022709Y0099492D01*
X0021078Y0097861D01*
X0018659Y0097861D01*
X0020600Y0099802D01*
X0020600Y0103198D01*
X0018198Y0105600D01*
X0014802Y0105600D01*
X0012400Y0103198D01*
X0012400Y0099802D01*
X0014757Y0097445D01*
X0009778Y0092467D01*
X0008958Y0091647D01*
X0008958Y0027495D01*
X0009778Y0026675D01*
X0031432Y0026675D01*
X0048328Y0009778D01*
X0049148Y0008958D01*
X0105426Y0008958D01*
X0109335Y0012867D01*
X0109802Y0012400D01*
X0113198Y0012400D01*
X0115600Y0014802D01*
X0115600Y0016455D01*
X0115813Y0016668D01*
X0119915Y0020769D01*
X0127041Y0020769D01*
X0127861Y0021589D01*
X0127861Y0024341D01*
X0129802Y0022400D01*
X0133198Y0022400D01*
X0135600Y0024802D01*
X0135600Y0028198D01*
X0133198Y0030600D01*
X0131989Y0030600D01*
X0132001Y0030612D01*
X0158726Y0030612D01*
X0158754Y0030545D01*
X0159251Y0030049D01*
X0157400Y0028198D01*
X0157400Y0024802D01*
X0157532Y0024670D01*
X0155448Y0022585D01*
X0153383Y0022585D01*
X0155600Y0024802D01*
X0155600Y0028198D01*
X0153198Y0030600D01*
X0149802Y0030600D01*
X0147400Y0028198D01*
X0147400Y0024802D01*
X0149617Y0022585D01*
X0149542Y0022585D01*
X0145920Y0018963D01*
X0145378Y0018421D01*
X0143198Y0020600D01*
X0139802Y0020600D01*
X0137400Y0018198D01*
X0137400Y0014802D01*
X0139802Y0012400D01*
X0143198Y0012400D01*
X0145100Y0014302D01*
X0145100Y0008805D01*
X0141844Y0008805D01*
X0135600Y0015049D01*
X0135600Y0018198D01*
X0133198Y0020600D01*
X0129802Y0020600D01*
X0127400Y0018198D01*
X0127400Y0014802D01*
X0129802Y0012400D01*
X0133198Y0012400D01*
X0133744Y0012946D01*
X0139864Y0006826D01*
X0140684Y0006006D01*
X0156432Y0006006D01*
X0156437Y0006000D01*
X0006000Y0006000D01*
X0006000Y0193850D01*
X0006000Y0185226D02*
X0508811Y0185226D01*
X0508811Y0184228D02*
X0006000Y0184228D01*
X0006000Y0183229D02*
X0508811Y0183229D01*
X0508811Y0182231D02*
X0006000Y0182231D01*
X0006000Y0181232D02*
X0508811Y0181232D01*
X0508811Y0180234D02*
X0006000Y0180234D01*
X0006000Y0179235D02*
X0508811Y0179235D01*
X0508811Y0178237D02*
X0006000Y0178237D01*
X0006000Y0177238D02*
X0508811Y0177238D01*
X0508811Y0176239D02*
X0006000Y0176239D01*
X0006000Y0175241D02*
X0057223Y0175241D01*
X0056518Y0174949D02*
X0058014Y0175568D01*
X0059632Y0175568D01*
X0061127Y0174949D01*
X0062272Y0173805D01*
X0062891Y0172309D01*
X0062891Y0170691D01*
X0062272Y0169195D01*
X0061127Y0168051D01*
X0059632Y0167431D01*
X0058014Y0167431D01*
X0056518Y0168051D01*
X0055374Y0169195D01*
X0054754Y0170691D01*
X0054754Y0172309D01*
X0055374Y0173805D01*
X0056518Y0174949D01*
X0055812Y0174242D02*
X0006000Y0174242D01*
X0006000Y0173244D02*
X0055141Y0173244D01*
X0054754Y0172245D02*
X0006000Y0172245D01*
X0006000Y0171247D02*
X0054754Y0171247D01*
X0054938Y0170248D02*
X0006000Y0170248D01*
X0006000Y0169250D02*
X0055351Y0169250D01*
X0056318Y0168251D02*
X0006000Y0168251D01*
X0006000Y0167253D02*
X0137746Y0167253D01*
X0137610Y0167331D02*
X0137953Y0167134D01*
X0138334Y0167031D01*
X0141016Y0167031D01*
X0141016Y0171016D01*
X0137031Y0171016D01*
X0137031Y0168334D01*
X0137134Y0167953D01*
X0137331Y0167610D01*
X0137610Y0167331D01*
X0137054Y0168251D02*
X0116446Y0168251D01*
X0116246Y0168051D02*
X0117390Y0169195D01*
X0118009Y0170691D01*
X0118009Y0172309D01*
X0117390Y0173805D01*
X0116246Y0174949D01*
X0114750Y0175568D01*
X0113132Y0175568D01*
X0111636Y0174949D01*
X0110492Y0173805D01*
X0109872Y0172309D01*
X0109872Y0170691D01*
X0110492Y0169195D01*
X0111636Y0168051D01*
X0113132Y0167431D01*
X0114750Y0167431D01*
X0116246Y0168051D01*
X0117413Y0169250D02*
X0137031Y0169250D01*
X0137031Y0170248D02*
X0117826Y0170248D01*
X0118009Y0171247D02*
X0141016Y0171247D01*
X0141016Y0171016D02*
X0141016Y0171984D01*
X0137031Y0171984D01*
X0137031Y0174666D01*
X0137134Y0175047D01*
X0137331Y0175390D01*
X0137610Y0175669D01*
X0137953Y0175866D01*
X0138334Y0175968D01*
X0141016Y0175968D01*
X0141016Y0171984D01*
X0141984Y0171984D01*
X0141984Y0175968D01*
X0144666Y0175968D01*
X0145047Y0175866D01*
X0145390Y0175669D01*
X0145669Y0175390D01*
X0145866Y0175047D01*
X0145968Y0174666D01*
X0145968Y0171984D01*
X0141984Y0171984D01*
X0141984Y0171016D01*
X0141984Y0167031D01*
X0144666Y0167031D01*
X0145047Y0167134D01*
X0145390Y0167331D01*
X0145669Y0167610D01*
X0145866Y0167953D01*
X0145968Y0168334D01*
X0145968Y0171016D01*
X0141984Y0171016D01*
X0141016Y0171016D01*
X0141016Y0170248D02*
X0141984Y0170248D01*
X0141984Y0169250D02*
X0141016Y0169250D01*
X0141016Y0168251D02*
X0141984Y0168251D01*
X0141984Y0167253D02*
X0141016Y0167253D01*
X0145254Y0167253D02*
X0157399Y0167253D01*
X0158397Y0168251D02*
X0145946Y0168251D01*
X0145968Y0169250D02*
X0159396Y0169250D01*
X0160071Y0169925D02*
X0149542Y0159396D01*
X0083597Y0159396D01*
X0076707Y0152506D01*
X0076671Y0152506D01*
X0076671Y0152624D01*
X0076051Y0154120D01*
X0074907Y0155264D01*
X0073412Y0155883D01*
X0071793Y0155883D01*
X0070298Y0155264D01*
X0069153Y0154120D01*
X0068534Y0152624D01*
X0068534Y0151006D01*
X0069153Y0149510D01*
X0070298Y0148366D01*
X0071793Y0147746D01*
X0073412Y0147746D01*
X0074907Y0148366D01*
X0076051Y0149510D01*
X0076133Y0149706D01*
X0077867Y0149706D01*
X0078687Y0150526D01*
X0084757Y0156596D01*
X0150702Y0156596D01*
X0151522Y0157416D01*
X0161970Y0167864D01*
X0163014Y0167431D01*
X0164632Y0167431D01*
X0166127Y0168051D01*
X0167272Y0169195D01*
X0167891Y0170691D01*
X0167891Y0172309D01*
X0167272Y0173805D01*
X0166127Y0174949D01*
X0164632Y0175568D01*
X0163014Y0175568D01*
X0161518Y0174949D01*
X0160374Y0173805D01*
X0159754Y0172309D01*
X0159754Y0170691D01*
X0160071Y0169925D01*
X0159938Y0170248D02*
X0145968Y0170248D01*
X0145968Y0172245D02*
X0159754Y0172245D01*
X0159754Y0171247D02*
X0141984Y0171247D01*
X0141984Y0172245D02*
X0141016Y0172245D01*
X0141016Y0173244D02*
X0141984Y0173244D01*
X0141984Y0174242D02*
X0141016Y0174242D01*
X0141016Y0175241D02*
X0141984Y0175241D01*
X0145755Y0175241D02*
X0162223Y0175241D01*
X0160812Y0174242D02*
X0145968Y0174242D01*
X0145968Y0173244D02*
X0160141Y0173244D01*
X0165423Y0175241D02*
X0189782Y0175241D01*
X0189077Y0174949D02*
X0187933Y0173805D01*
X0187313Y0172309D01*
X0187313Y0170691D01*
X0187933Y0169195D01*
X0189077Y0168051D01*
X0190573Y0167431D01*
X0192191Y0167431D01*
X0193687Y0168051D01*
X0194831Y0169195D01*
X0195450Y0170691D01*
X0195450Y0172309D01*
X0194831Y0173805D01*
X0193687Y0174949D01*
X0192191Y0175568D01*
X0190573Y0175568D01*
X0189077Y0174949D01*
X0188371Y0174242D02*
X0166834Y0174242D01*
X0167504Y0173244D02*
X0187701Y0173244D01*
X0187313Y0172245D02*
X0167891Y0172245D01*
X0167891Y0171247D02*
X0187313Y0171247D01*
X0187497Y0170248D02*
X0167708Y0170248D01*
X0167295Y0169250D02*
X0187910Y0169250D01*
X0188877Y0168251D02*
X0166328Y0168251D01*
X0161359Y0167253D02*
X0242746Y0167253D01*
X0242610Y0167331D02*
X0242953Y0167134D01*
X0243334Y0167031D01*
X0246016Y0167031D01*
X0246016Y0171016D01*
X0242031Y0171016D01*
X0242031Y0168334D01*
X0242134Y0167953D01*
X0242331Y0167610D01*
X0242610Y0167331D01*
X0242054Y0168251D02*
X0221446Y0168251D01*
X0221246Y0168051D02*
X0222390Y0169195D01*
X0223009Y0170691D01*
X0223009Y0172309D01*
X0222390Y0173805D01*
X0221246Y0174949D01*
X0219750Y0175568D01*
X0218132Y0175568D01*
X0216636Y0174949D01*
X0215492Y0173805D01*
X0214872Y0172309D01*
X0214872Y0170691D01*
X0215492Y0169195D01*
X0216636Y0168051D01*
X0218132Y0167431D01*
X0219750Y0167431D01*
X0221246Y0168051D01*
X0222413Y0169250D02*
X0242031Y0169250D01*
X0242031Y0170248D02*
X0222826Y0170248D01*
X0223009Y0171247D02*
X0246016Y0171247D01*
X0246016Y0171016D02*
X0246016Y0171984D01*
X0242031Y0171984D01*
X0242031Y0174666D01*
X0242134Y0175047D01*
X0242331Y0175390D01*
X0242610Y0175669D01*
X0242953Y0175866D01*
X0243334Y0175968D01*
X0246016Y0175968D01*
X0246016Y0171984D01*
X0246984Y0171984D01*
X0246984Y0175968D01*
X0249666Y0175968D01*
X0250047Y0175866D01*
X0250390Y0175669D01*
X0250669Y0175390D01*
X0250866Y0175047D01*
X0250968Y0174666D01*
X0250968Y0171984D01*
X0246984Y0171984D01*
X0246984Y0171016D01*
X0246984Y0167031D01*
X0249666Y0167031D01*
X0250047Y0167134D01*
X0250390Y0167331D01*
X0250669Y0167610D01*
X0250866Y0167953D01*
X0250968Y0168334D01*
X0250968Y0171016D01*
X0246984Y0171016D01*
X0246016Y0171016D01*
X0246016Y0170248D02*
X0246984Y0170248D01*
X0246984Y0169250D02*
X0246016Y0169250D01*
X0246016Y0168251D02*
X0246984Y0168251D01*
X0246984Y0167253D02*
X0246016Y0167253D01*
X0250254Y0167253D02*
X0262714Y0167253D01*
X0263712Y0168251D02*
X0250946Y0168251D01*
X0250968Y0169250D02*
X0264711Y0169250D01*
X0265164Y0169703D02*
X0254857Y0159396D01*
X0182022Y0159396D01*
X0181202Y0158576D01*
X0178481Y0155855D01*
X0178412Y0155883D01*
X0176793Y0155883D01*
X0175298Y0155264D01*
X0174153Y0154120D01*
X0173534Y0152624D01*
X0173534Y0151006D01*
X0174153Y0149510D01*
X0175298Y0148366D01*
X0176793Y0147746D01*
X0178412Y0147746D01*
X0179907Y0148366D01*
X0181051Y0149510D01*
X0181671Y0151006D01*
X0181671Y0152624D01*
X0181051Y0154120D01*
X0180879Y0154292D01*
X0183182Y0156596D01*
X0256017Y0156596D01*
X0256837Y0157416D01*
X0267192Y0167772D01*
X0268014Y0167431D01*
X0269632Y0167431D01*
X0271127Y0168051D01*
X0272272Y0169195D01*
X0272891Y0170691D01*
X0272891Y0172309D01*
X0272272Y0173805D01*
X0271127Y0174949D01*
X0269632Y0175568D01*
X0268014Y0175568D01*
X0266518Y0174949D01*
X0265374Y0173805D01*
X0264754Y0172309D01*
X0264754Y0170691D01*
X0265164Y0169703D01*
X0264938Y0170248D02*
X0250968Y0170248D01*
X0250968Y0172245D02*
X0264754Y0172245D01*
X0264754Y0171247D02*
X0246984Y0171247D01*
X0246984Y0172245D02*
X0246016Y0172245D01*
X0246016Y0173244D02*
X0246984Y0173244D01*
X0246984Y0174242D02*
X0246016Y0174242D01*
X0246016Y0175241D02*
X0246984Y0175241D01*
X0250755Y0175241D02*
X0267223Y0175241D01*
X0265812Y0174242D02*
X0250968Y0174242D01*
X0250968Y0173244D02*
X0265141Y0173244D01*
X0270423Y0175241D02*
X0294782Y0175241D01*
X0294077Y0174949D02*
X0292933Y0173805D01*
X0292313Y0172309D01*
X0292313Y0170691D01*
X0292933Y0169195D01*
X0294077Y0168051D01*
X0295573Y0167431D01*
X0297191Y0167431D01*
X0298687Y0168051D01*
X0299831Y0169195D01*
X0300450Y0170691D01*
X0300450Y0172309D01*
X0299831Y0173805D01*
X0298687Y0174949D01*
X0297191Y0175568D01*
X0295573Y0175568D01*
X0294077Y0174949D01*
X0293371Y0174242D02*
X0271834Y0174242D01*
X0272504Y0173244D02*
X0292701Y0173244D01*
X0292313Y0172245D02*
X0272891Y0172245D01*
X0272891Y0171247D02*
X0292313Y0171247D01*
X0292497Y0170248D02*
X0272708Y0170248D01*
X0272295Y0169250D02*
X0292910Y0169250D01*
X0293877Y0168251D02*
X0271328Y0168251D01*
X0266674Y0167253D02*
X0347746Y0167253D01*
X0347610Y0167331D02*
X0347953Y0167134D01*
X0348334Y0167031D01*
X0351016Y0167031D01*
X0351016Y0171016D01*
X0347031Y0171016D01*
X0347031Y0168334D01*
X0347134Y0167953D01*
X0347331Y0167610D01*
X0347610Y0167331D01*
X0347054Y0168251D02*
X0326446Y0168251D01*
X0326246Y0168051D02*
X0327390Y0169195D01*
X0328009Y0170691D01*
X0328009Y0172309D01*
X0327390Y0173805D01*
X0326246Y0174949D01*
X0324750Y0175568D01*
X0323132Y0175568D01*
X0321636Y0174949D01*
X0320492Y0173805D01*
X0319872Y0172309D01*
X0319872Y0170691D01*
X0320492Y0169195D01*
X0321636Y0168051D01*
X0323132Y0167431D01*
X0324750Y0167431D01*
X0326246Y0168051D01*
X0327413Y0169250D02*
X0347031Y0169250D01*
X0347031Y0170248D02*
X0327826Y0170248D01*
X0328009Y0171247D02*
X0351016Y0171247D01*
X0351016Y0171016D02*
X0351016Y0171984D01*
X0347031Y0171984D01*
X0347031Y0174666D01*
X0347134Y0175047D01*
X0347331Y0175390D01*
X0347610Y0175669D01*
X0347953Y0175866D01*
X0348334Y0175968D01*
X0351016Y0175968D01*
X0351016Y0171984D01*
X0351984Y0171984D01*
X0351984Y0175968D01*
X0354666Y0175968D01*
X0355047Y0175866D01*
X0355390Y0175669D01*
X0355669Y0175390D01*
X0355866Y0175047D01*
X0355968Y0174666D01*
X0355968Y0171984D01*
X0351984Y0171984D01*
X0351984Y0171016D01*
X0351984Y0167031D01*
X0354666Y0167031D01*
X0355047Y0167134D01*
X0355390Y0167331D01*
X0355669Y0167610D01*
X0355866Y0167953D01*
X0355968Y0168334D01*
X0355968Y0171016D01*
X0351984Y0171016D01*
X0351016Y0171016D01*
X0351016Y0170248D02*
X0351984Y0170248D01*
X0351984Y0169250D02*
X0351016Y0169250D01*
X0351016Y0168251D02*
X0351984Y0168251D01*
X0351984Y0167253D02*
X0351016Y0167253D01*
X0355254Y0167253D02*
X0368029Y0167253D01*
X0369027Y0168251D02*
X0355946Y0168251D01*
X0355968Y0169250D02*
X0370026Y0169250D01*
X0369938Y0170248D02*
X0355968Y0170248D01*
X0355968Y0172245D02*
X0369754Y0172245D01*
X0369754Y0171247D02*
X0351984Y0171247D01*
X0351984Y0172245D02*
X0351016Y0172245D01*
X0351016Y0173244D02*
X0351984Y0173244D01*
X0351984Y0174242D02*
X0351016Y0174242D01*
X0351016Y0175241D02*
X0351984Y0175241D01*
X0355755Y0175241D02*
X0372223Y0175241D01*
X0370812Y0174242D02*
X0355968Y0174242D01*
X0355968Y0173244D02*
X0370141Y0173244D01*
X0375423Y0175241D02*
X0399782Y0175241D01*
X0399077Y0174949D02*
X0397933Y0173805D01*
X0397313Y0172309D01*
X0397313Y0170691D01*
X0397933Y0169195D01*
X0399077Y0168051D01*
X0400573Y0167431D01*
X0402191Y0167431D01*
X0403687Y0168051D01*
X0404831Y0169195D01*
X0405450Y0170691D01*
X0405450Y0172309D01*
X0404831Y0173805D01*
X0403687Y0174949D01*
X0402191Y0175568D01*
X0400573Y0175568D01*
X0399077Y0174949D01*
X0398371Y0174242D02*
X0376834Y0174242D01*
X0377504Y0173244D02*
X0397701Y0173244D01*
X0397313Y0172245D02*
X0377891Y0172245D01*
X0377891Y0171247D02*
X0397313Y0171247D01*
X0397497Y0170248D02*
X0377708Y0170248D01*
X0377295Y0169250D02*
X0397910Y0169250D01*
X0398877Y0168251D02*
X0376328Y0168251D01*
X0371989Y0167253D02*
X0452746Y0167253D01*
X0452610Y0167331D02*
X0452953Y0167134D01*
X0453334Y0167031D01*
X0456016Y0167031D01*
X0456016Y0171016D01*
X0452031Y0171016D01*
X0452031Y0168334D01*
X0452134Y0167953D01*
X0452331Y0167610D01*
X0452610Y0167331D01*
X0452054Y0168251D02*
X0431446Y0168251D01*
X0431246Y0168051D02*
X0432390Y0169195D01*
X0433009Y0170691D01*
X0433009Y0172309D01*
X0432390Y0173805D01*
X0431246Y0174949D01*
X0429750Y0175568D01*
X0428132Y0175568D01*
X0426636Y0174949D01*
X0425492Y0173805D01*
X0424872Y0172309D01*
X0424872Y0170691D01*
X0425492Y0169195D01*
X0426636Y0168051D01*
X0428132Y0167431D01*
X0429750Y0167431D01*
X0431246Y0168051D01*
X0432413Y0169250D02*
X0452031Y0169250D01*
X0452031Y0170248D02*
X0432826Y0170248D01*
X0433009Y0171247D02*
X0456016Y0171247D01*
X0456016Y0171016D02*
X0456016Y0171984D01*
X0452031Y0171984D01*
X0452031Y0174666D01*
X0452134Y0175047D01*
X0452331Y0175390D01*
X0452610Y0175669D01*
X0452953Y0175866D01*
X0453334Y0175968D01*
X0456016Y0175968D01*
X0456016Y0171984D01*
X0456984Y0171984D01*
X0456984Y0175968D01*
X0459666Y0175968D01*
X0460047Y0175866D01*
X0460390Y0175669D01*
X0460669Y0175390D01*
X0460866Y0175047D01*
X0460968Y0174666D01*
X0460968Y0171984D01*
X0456984Y0171984D01*
X0456984Y0171016D01*
X0456984Y0167031D01*
X0459666Y0167031D01*
X0460047Y0167134D01*
X0460390Y0167331D01*
X0460669Y0167610D01*
X0460866Y0167953D01*
X0460968Y0168334D01*
X0460968Y0171016D01*
X0456984Y0171016D01*
X0456016Y0171016D01*
X0456016Y0170248D02*
X0456984Y0170248D01*
X0456984Y0169250D02*
X0456016Y0169250D01*
X0456016Y0168251D02*
X0456984Y0168251D01*
X0456984Y0167253D02*
X0456016Y0167253D01*
X0460254Y0167253D02*
X0508811Y0167253D01*
X0508811Y0168251D02*
X0460946Y0168251D01*
X0460968Y0169250D02*
X0508811Y0169250D01*
X0508811Y0170248D02*
X0460968Y0170248D01*
X0460968Y0172245D02*
X0508811Y0172245D01*
X0508811Y0171247D02*
X0456984Y0171247D01*
X0456984Y0172245D02*
X0456016Y0172245D01*
X0456016Y0173244D02*
X0456984Y0173244D01*
X0456984Y0174242D02*
X0456016Y0174242D01*
X0456016Y0175241D02*
X0456984Y0175241D01*
X0460755Y0175241D02*
X0508811Y0175241D01*
X0508811Y0174242D02*
X0460968Y0174242D01*
X0460968Y0173244D02*
X0508811Y0173244D01*
X0508811Y0166254D02*
X0370990Y0166254D01*
X0369992Y0165256D02*
X0508811Y0165256D01*
X0508811Y0164257D02*
X0368993Y0164257D01*
X0367995Y0163259D02*
X0508811Y0163259D01*
X0508811Y0162260D02*
X0366996Y0162260D01*
X0365033Y0164257D02*
X0263678Y0164257D01*
X0262680Y0163259D02*
X0293169Y0163259D01*
X0292170Y0162260D02*
X0261681Y0162260D01*
X0260683Y0161262D02*
X0291172Y0161262D01*
X0290173Y0160263D02*
X0259684Y0160263D01*
X0258686Y0159265D02*
X0289175Y0159265D01*
X0288176Y0158266D02*
X0257687Y0158266D01*
X0256689Y0157268D02*
X0287178Y0157268D01*
X0286179Y0156269D02*
X0182855Y0156269D01*
X0181857Y0155271D02*
X0202873Y0155271D01*
X0201865Y0154272D02*
X0180899Y0154272D01*
X0181402Y0153274D02*
X0201362Y0153274D01*
X0201093Y0152275D02*
X0181671Y0152275D01*
X0181671Y0151277D02*
X0201093Y0151277D01*
X0201394Y0150278D02*
X0181370Y0150278D01*
X0180821Y0149280D02*
X0201561Y0149280D01*
X0201561Y0148281D02*
X0179703Y0148281D01*
X0175502Y0148281D02*
X0130459Y0148281D01*
X0130631Y0148407D02*
X0131129Y0148904D01*
X0131542Y0149473D01*
X0131862Y0150100D01*
X0132079Y0150769D01*
X0132168Y0151331D01*
X0128205Y0151331D01*
X0128205Y0152299D01*
X0132168Y0152299D01*
X0132079Y0152861D01*
X0131862Y0153530D01*
X0131542Y0154157D01*
X0131129Y0154726D01*
X0130631Y0155223D01*
X0130062Y0155637D01*
X0129436Y0155956D01*
X0128767Y0156173D01*
X0128205Y0156262D01*
X0128205Y0152299D01*
X0127236Y0152299D01*
X0127236Y0151331D01*
X0123273Y0151331D01*
X0123362Y0150769D01*
X0123579Y0150100D01*
X0123899Y0149473D01*
X0124312Y0148904D01*
X0124809Y0148407D01*
X0125378Y0147993D01*
X0126005Y0147674D01*
X0126674Y0147456D01*
X0127236Y0147367D01*
X0127236Y0151331D01*
X0128205Y0151331D01*
X0128205Y0147367D01*
X0128767Y0147456D01*
X0129436Y0147674D01*
X0130062Y0147993D01*
X0130631Y0148407D01*
X0131402Y0149280D02*
X0174384Y0149280D01*
X0173835Y0150278D02*
X0131920Y0150278D01*
X0132159Y0151277D02*
X0173534Y0151277D01*
X0173534Y0152275D02*
X0128205Y0152275D01*
X0127236Y0152275D02*
X0104230Y0152275D01*
X0104230Y0151277D02*
X0123282Y0151277D01*
X0123273Y0152299D02*
X0127236Y0152299D01*
X0127236Y0156262D01*
X0126674Y0156173D01*
X0126005Y0155956D01*
X0125378Y0155637D01*
X0124809Y0155223D01*
X0124312Y0154726D01*
X0123899Y0154157D01*
X0123579Y0153530D01*
X0123362Y0152861D01*
X0123273Y0152299D01*
X0123496Y0153274D02*
X0103961Y0153274D01*
X0103458Y0154272D02*
X0123982Y0154272D01*
X0124875Y0155271D02*
X0102450Y0155271D01*
X0097873Y0155271D02*
X0083432Y0155271D01*
X0084430Y0156269D02*
X0178896Y0156269D01*
X0179894Y0157268D02*
X0151374Y0157268D01*
X0152372Y0158266D02*
X0180893Y0158266D01*
X0181202Y0158576D02*
X0181202Y0158576D01*
X0181891Y0159265D02*
X0153371Y0159265D01*
X0154369Y0160263D02*
X0255724Y0160263D01*
X0256723Y0161262D02*
X0155368Y0161262D01*
X0156366Y0162260D02*
X0257721Y0162260D01*
X0258720Y0163259D02*
X0157365Y0163259D01*
X0158363Y0164257D02*
X0259718Y0164257D01*
X0260717Y0165256D02*
X0159362Y0165256D01*
X0160360Y0166254D02*
X0261715Y0166254D01*
X0264677Y0165256D02*
X0366032Y0165256D01*
X0367030Y0166254D02*
X0265675Y0166254D01*
X0242031Y0172245D02*
X0223009Y0172245D01*
X0222622Y0173244D02*
X0242031Y0173244D01*
X0242031Y0174242D02*
X0221952Y0174242D01*
X0220541Y0175241D02*
X0242245Y0175241D01*
X0217341Y0175241D02*
X0192982Y0175241D01*
X0194393Y0174242D02*
X0215930Y0174242D01*
X0215260Y0173244D02*
X0195063Y0173244D01*
X0195450Y0172245D02*
X0214872Y0172245D01*
X0214872Y0171247D02*
X0195450Y0171247D01*
X0195267Y0170248D02*
X0215056Y0170248D01*
X0215469Y0169250D02*
X0194854Y0169250D01*
X0193887Y0168251D02*
X0216436Y0168251D01*
X0230378Y0155637D02*
X0231005Y0155956D01*
X0231674Y0156173D01*
X0232236Y0156262D01*
X0232236Y0152299D01*
X0232236Y0151331D01*
X0228273Y0151331D01*
X0228362Y0150769D01*
X0228579Y0150100D01*
X0228899Y0149473D01*
X0229312Y0148904D01*
X0229809Y0148407D01*
X0230378Y0147993D01*
X0231005Y0147674D01*
X0231674Y0147456D01*
X0232236Y0147367D01*
X0232236Y0151331D01*
X0233205Y0151331D01*
X0233205Y0152299D01*
X0237168Y0152299D01*
X0237079Y0152861D01*
X0236862Y0153530D01*
X0236542Y0154157D01*
X0236129Y0154726D01*
X0235631Y0155223D01*
X0235062Y0155637D01*
X0234436Y0155956D01*
X0233767Y0156173D01*
X0233205Y0156262D01*
X0233205Y0152299D01*
X0232236Y0152299D01*
X0228273Y0152299D01*
X0228362Y0152861D01*
X0228579Y0153530D01*
X0228899Y0154157D01*
X0229312Y0154726D01*
X0229809Y0155223D01*
X0230378Y0155637D01*
X0229875Y0155271D02*
X0207450Y0155271D01*
X0208458Y0154272D02*
X0228982Y0154272D01*
X0228496Y0153274D02*
X0208961Y0153274D01*
X0209230Y0152275D02*
X0232236Y0152275D01*
X0233205Y0152275D02*
X0278534Y0152275D01*
X0278534Y0151277D02*
X0237159Y0151277D01*
X0237168Y0151331D02*
X0233205Y0151331D01*
X0233205Y0147367D01*
X0233767Y0147456D01*
X0234436Y0147674D01*
X0235062Y0147993D01*
X0235631Y0148407D01*
X0236129Y0148904D01*
X0236542Y0149473D01*
X0236862Y0150100D01*
X0237079Y0150769D01*
X0237168Y0151331D01*
X0236920Y0150278D02*
X0278835Y0150278D01*
X0279384Y0149280D02*
X0236402Y0149280D01*
X0235459Y0148281D02*
X0280502Y0148281D01*
X0282100Y0146284D02*
X0208761Y0146284D01*
X0208761Y0145286D02*
X0281101Y0145286D01*
X0280103Y0144287D02*
X0208761Y0144287D01*
X0208761Y0143289D02*
X0279104Y0143289D01*
X0278105Y0142290D02*
X0208761Y0142290D01*
X0208761Y0141292D02*
X0277107Y0141292D01*
X0276108Y0140293D02*
X0208761Y0140293D01*
X0209033Y0139295D02*
X0275110Y0139295D01*
X0274111Y0138296D02*
X0210031Y0138296D01*
X0211030Y0137298D02*
X0271431Y0137298D01*
X0270741Y0136299D02*
X0212028Y0136299D01*
X0213027Y0135301D02*
X0270565Y0135301D01*
X0270789Y0134302D02*
X0214025Y0134302D01*
X0215024Y0133303D02*
X0271374Y0133303D01*
X0270717Y0132305D02*
X0216022Y0132305D01*
X0217021Y0131306D02*
X0270565Y0131306D01*
X0270812Y0130308D02*
X0218019Y0130308D01*
X0207837Y0130308D02*
X0114476Y0130308D01*
X0113478Y0131306D02*
X0206839Y0131306D01*
X0205840Y0132305D02*
X0112479Y0132305D01*
X0111481Y0133303D02*
X0204842Y0133303D01*
X0203843Y0134302D02*
X0110482Y0134302D01*
X0109484Y0135301D02*
X0202845Y0135301D01*
X0202000Y0136299D02*
X0108485Y0136299D01*
X0107487Y0137298D02*
X0201587Y0137298D01*
X0201561Y0138296D02*
X0106488Y0138296D01*
X0105490Y0139295D02*
X0201561Y0139295D01*
X0201561Y0140293D02*
X0104491Y0140293D01*
X0103761Y0141292D02*
X0201561Y0141292D01*
X0201561Y0142290D02*
X0103761Y0142290D01*
X0103761Y0143289D02*
X0201561Y0143289D01*
X0201561Y0144287D02*
X0103761Y0144287D01*
X0103761Y0145286D02*
X0201561Y0145286D01*
X0201561Y0146284D02*
X0103761Y0146284D01*
X0103761Y0147283D02*
X0201561Y0147283D01*
X0208761Y0147283D02*
X0283098Y0147283D01*
X0287999Y0144287D02*
X0306561Y0144287D01*
X0306561Y0143289D02*
X0287001Y0143289D01*
X0286002Y0142290D02*
X0306561Y0142290D01*
X0306561Y0141292D02*
X0285004Y0141292D01*
X0284005Y0140293D02*
X0306561Y0140293D01*
X0306561Y0139295D02*
X0283007Y0139295D01*
X0282008Y0138296D02*
X0306561Y0138296D01*
X0306561Y0137298D02*
X0281010Y0137298D01*
X0280011Y0136299D02*
X0306561Y0136299D01*
X0306561Y0135626D02*
X0307109Y0134303D01*
X0311470Y0129943D01*
X0275336Y0129943D01*
X0275348Y0129955D01*
X0275743Y0130906D01*
X0275743Y0131936D01*
X0275715Y0132003D01*
X0300308Y0156596D01*
X0372967Y0156596D01*
X0383958Y0145605D01*
X0384778Y0144785D01*
X0401686Y0144785D01*
X0411529Y0154628D01*
X0412220Y0154628D01*
X0411712Y0154120D01*
X0411093Y0152624D01*
X0411093Y0151006D01*
X0411561Y0149875D01*
X0411561Y0134997D01*
X0412109Y0133673D01*
X0413122Y0132661D01*
X0415840Y0129943D01*
X0321653Y0129943D01*
X0313761Y0137834D01*
X0313761Y0149875D01*
X0314230Y0151006D01*
X0314230Y0152624D01*
X0313611Y0154120D01*
X0312466Y0155264D01*
X0310971Y0155883D01*
X0309352Y0155883D01*
X0307857Y0155264D01*
X0306712Y0154120D01*
X0306093Y0152624D01*
X0306093Y0151006D01*
X0306561Y0149875D01*
X0306561Y0135626D01*
X0306696Y0135301D02*
X0279013Y0135301D01*
X0278014Y0134302D02*
X0307111Y0134302D01*
X0308109Y0133303D02*
X0277016Y0133303D01*
X0276017Y0132305D02*
X0309108Y0132305D01*
X0310106Y0131306D02*
X0275743Y0131306D01*
X0275495Y0130308D02*
X0311105Y0130308D01*
X0318292Y0133303D02*
X0412479Y0133303D01*
X0413122Y0132661D02*
X0413122Y0132661D01*
X0413478Y0132305D02*
X0319290Y0132305D01*
X0320289Y0131306D02*
X0414476Y0131306D01*
X0415475Y0130308D02*
X0321287Y0130308D01*
X0317293Y0134302D02*
X0411849Y0134302D01*
X0411561Y0135301D02*
X0316295Y0135301D01*
X0315296Y0136299D02*
X0411561Y0136299D01*
X0411561Y0137298D02*
X0314298Y0137298D01*
X0313761Y0138296D02*
X0411561Y0138296D01*
X0411561Y0139295D02*
X0313761Y0139295D01*
X0313761Y0140293D02*
X0411561Y0140293D01*
X0411561Y0141292D02*
X0313761Y0141292D01*
X0313761Y0142290D02*
X0411561Y0142290D01*
X0411561Y0143289D02*
X0313761Y0143289D01*
X0313761Y0144287D02*
X0411561Y0144287D01*
X0411561Y0145286D02*
X0402187Y0145286D01*
X0403185Y0146284D02*
X0411561Y0146284D01*
X0411561Y0147283D02*
X0404184Y0147283D01*
X0405182Y0148281D02*
X0411561Y0148281D01*
X0411561Y0149280D02*
X0406181Y0149280D01*
X0407179Y0150278D02*
X0411394Y0150278D01*
X0411093Y0151277D02*
X0408178Y0151277D01*
X0409176Y0152275D02*
X0411093Y0152275D01*
X0411362Y0153274D02*
X0410175Y0153274D01*
X0411173Y0154272D02*
X0411865Y0154272D01*
X0418103Y0154628D02*
X0429070Y0154628D01*
X0447817Y0135881D01*
X0448637Y0135061D01*
X0484262Y0135061D01*
X0482400Y0133198D01*
X0482400Y0129802D01*
X0484802Y0127400D01*
X0488198Y0127400D01*
X0490600Y0129802D01*
X0490600Y0132664D01*
X0491439Y0131826D01*
X0492259Y0131006D01*
X0492400Y0131006D01*
X0492400Y0129802D01*
X0494802Y0127400D01*
X0498198Y0127400D01*
X0500600Y0129802D01*
X0500600Y0133198D01*
X0498198Y0135600D01*
X0494802Y0135600D01*
X0493213Y0134011D01*
X0489363Y0137861D01*
X0489225Y0137861D01*
X0491000Y0139636D01*
X0491000Y0141000D01*
X0487000Y0141000D01*
X0487000Y0142000D01*
X0486000Y0142000D01*
X0486000Y0146000D01*
X0484636Y0146000D01*
X0482000Y0143364D01*
X0482000Y0142000D01*
X0486000Y0142000D01*
X0486000Y0141000D01*
X0482000Y0141000D01*
X0482000Y0139636D01*
X0483775Y0137861D01*
X0449796Y0137861D01*
X0431061Y0156596D01*
X0479267Y0156596D01*
X0482532Y0153330D01*
X0482400Y0153198D01*
X0482400Y0149802D01*
X0484802Y0147400D01*
X0488198Y0147400D01*
X0490505Y0149706D01*
X0492495Y0149706D01*
X0494802Y0147400D01*
X0498198Y0147400D01*
X0500600Y0149802D01*
X0500600Y0151011D01*
X0501084Y0150526D01*
X0501084Y0107821D01*
X0498620Y0107821D01*
X0500600Y0109802D01*
X0500600Y0113198D01*
X0498198Y0115600D01*
X0494802Y0115600D01*
X0492400Y0113198D01*
X0492400Y0109802D01*
X0494380Y0107821D01*
X0490684Y0107821D01*
X0488330Y0105468D01*
X0488198Y0105600D01*
X0484802Y0105600D01*
X0482400Y0103198D01*
X0482400Y0099802D01*
X0484802Y0097400D01*
X0488198Y0097400D01*
X0490600Y0099802D01*
X0490600Y0103198D01*
X0490310Y0103488D01*
X0491844Y0105021D01*
X0494223Y0105021D01*
X0492400Y0103198D01*
X0492400Y0100498D01*
X0491202Y0099716D01*
X0491038Y0099716D01*
X0490731Y0099409D01*
X0490368Y0099172D01*
X0490334Y0099012D01*
X0490218Y0098896D01*
X0490218Y0098462D01*
X0490129Y0098037D01*
X0490218Y0097900D01*
X0490218Y0093580D01*
X0488198Y0095600D01*
X0484802Y0095600D01*
X0482400Y0093198D01*
X0482400Y0089802D01*
X0484802Y0087400D01*
X0488198Y0087400D01*
X0490218Y0089420D01*
X0490218Y0083580D01*
X0488198Y0085600D01*
X0484802Y0085600D01*
X0482400Y0083198D01*
X0482400Y0082624D01*
X0482231Y0082624D01*
X0482231Y0121174D01*
X0481411Y0121994D01*
X0477487Y0125918D01*
X0477514Y0125985D01*
X0477514Y0127015D01*
X0477120Y0127967D01*
X0476392Y0128695D01*
X0475440Y0129089D01*
X0474410Y0129089D01*
X0473459Y0128695D01*
X0472730Y0127967D01*
X0472336Y0127015D01*
X0472336Y0126936D01*
X0469878Y0129394D01*
X0468555Y0129943D01*
X0426023Y0129943D01*
X0418761Y0137204D01*
X0418761Y0149875D01*
X0419230Y0151006D01*
X0419230Y0152624D01*
X0418611Y0154120D01*
X0418103Y0154628D01*
X0418458Y0154272D02*
X0429425Y0154272D01*
X0430424Y0153274D02*
X0418961Y0153274D01*
X0419230Y0152275D02*
X0431422Y0152275D01*
X0432421Y0151277D02*
X0419230Y0151277D01*
X0418929Y0150278D02*
X0433419Y0150278D01*
X0434418Y0149280D02*
X0418761Y0149280D01*
X0418761Y0148281D02*
X0435416Y0148281D01*
X0436415Y0147283D02*
X0418761Y0147283D01*
X0418761Y0146284D02*
X0437413Y0146284D01*
X0438412Y0145286D02*
X0418761Y0145286D01*
X0418761Y0144287D02*
X0439410Y0144287D01*
X0440409Y0143289D02*
X0418761Y0143289D01*
X0418761Y0142290D02*
X0441407Y0142290D01*
X0442406Y0141292D02*
X0418761Y0141292D01*
X0418761Y0140293D02*
X0443404Y0140293D01*
X0444403Y0139295D02*
X0418761Y0139295D01*
X0418761Y0138296D02*
X0445401Y0138296D01*
X0446400Y0137298D02*
X0418761Y0137298D01*
X0419666Y0136299D02*
X0447398Y0136299D01*
X0448397Y0135301D02*
X0420665Y0135301D01*
X0421663Y0134302D02*
X0483504Y0134302D01*
X0482505Y0133303D02*
X0422662Y0133303D01*
X0423660Y0132305D02*
X0482400Y0132305D01*
X0482400Y0131306D02*
X0424659Y0131306D01*
X0425657Y0130308D02*
X0482400Y0130308D01*
X0482892Y0129309D02*
X0469963Y0129309D01*
X0470961Y0128311D02*
X0473075Y0128311D01*
X0472459Y0127312D02*
X0471960Y0127312D01*
X0476776Y0128311D02*
X0483891Y0128311D01*
X0477391Y0127312D02*
X0501084Y0127312D01*
X0501084Y0126314D02*
X0477514Y0126314D01*
X0478090Y0125315D02*
X0484517Y0125315D01*
X0484802Y0125600D02*
X0482400Y0123198D01*
X0482400Y0119802D01*
X0484802Y0117400D01*
X0488198Y0117400D01*
X0490600Y0119802D01*
X0490600Y0123198D01*
X0488198Y0125600D01*
X0484802Y0125600D01*
X0483519Y0124317D02*
X0479088Y0124317D01*
X0480087Y0123318D02*
X0482520Y0123318D01*
X0482400Y0122320D02*
X0481085Y0122320D01*
X0482084Y0121321D02*
X0482400Y0121321D01*
X0482400Y0120323D02*
X0482231Y0120323D01*
X0482231Y0119324D02*
X0482877Y0119324D01*
X0482231Y0118326D02*
X0483876Y0118326D01*
X0482231Y0117327D02*
X0501084Y0117327D01*
X0501084Y0116329D02*
X0482231Y0116329D01*
X0482231Y0115330D02*
X0484532Y0115330D01*
X0484802Y0115600D02*
X0482400Y0113198D01*
X0482400Y0109802D01*
X0484802Y0107400D01*
X0488198Y0107400D01*
X0490600Y0109802D01*
X0490600Y0113198D01*
X0488198Y0115600D01*
X0484802Y0115600D01*
X0483534Y0114332D02*
X0482231Y0114332D01*
X0482231Y0113333D02*
X0482535Y0113333D01*
X0482400Y0112335D02*
X0482231Y0112335D01*
X0482231Y0111336D02*
X0482400Y0111336D01*
X0482400Y0110338D02*
X0482231Y0110338D01*
X0482231Y0109339D02*
X0482862Y0109339D01*
X0482231Y0108341D02*
X0483861Y0108341D01*
X0482231Y0107342D02*
X0490205Y0107342D01*
X0489206Y0106344D02*
X0482231Y0106344D01*
X0482231Y0105345D02*
X0484547Y0105345D01*
X0483548Y0104347D02*
X0482231Y0104347D01*
X0482231Y0103348D02*
X0482550Y0103348D01*
X0482400Y0102350D02*
X0482231Y0102350D01*
X0482231Y0101351D02*
X0482400Y0101351D01*
X0482400Y0100353D02*
X0482231Y0100353D01*
X0482231Y0099354D02*
X0482848Y0099354D01*
X0482231Y0098356D02*
X0483846Y0098356D01*
X0482231Y0097357D02*
X0490218Y0097357D01*
X0490218Y0096359D02*
X0482231Y0096359D01*
X0482231Y0095360D02*
X0484562Y0095360D01*
X0483563Y0094362D02*
X0482231Y0094362D01*
X0482231Y0093363D02*
X0482565Y0093363D01*
X0482400Y0092365D02*
X0482231Y0092365D01*
X0482231Y0091366D02*
X0482400Y0091366D01*
X0482400Y0090368D02*
X0482231Y0090368D01*
X0482231Y0089369D02*
X0482833Y0089369D01*
X0482231Y0088370D02*
X0483831Y0088370D01*
X0482231Y0087372D02*
X0490218Y0087372D01*
X0490218Y0088370D02*
X0489169Y0088370D01*
X0490167Y0089369D02*
X0490218Y0089369D01*
X0493018Y0088370D02*
X0493831Y0088370D01*
X0493018Y0087372D02*
X0508811Y0087372D01*
X0508811Y0088370D02*
X0499169Y0088370D01*
X0500167Y0089369D02*
X0508811Y0089369D01*
X0508811Y0090368D02*
X0500600Y0090368D01*
X0500600Y0091366D02*
X0508811Y0091366D01*
X0508811Y0092365D02*
X0500600Y0092365D01*
X0500435Y0093363D02*
X0508811Y0093363D01*
X0508811Y0094362D02*
X0499437Y0094362D01*
X0498438Y0095360D02*
X0508811Y0095360D01*
X0508811Y0096359D02*
X0493018Y0096359D01*
X0493018Y0097357D02*
X0508811Y0097357D01*
X0508811Y0098356D02*
X0499154Y0098356D01*
X0500152Y0099354D02*
X0508811Y0099354D01*
X0508811Y0100353D02*
X0500600Y0100353D01*
X0500600Y0101351D02*
X0508811Y0101351D01*
X0508811Y0102350D02*
X0500600Y0102350D01*
X0500450Y0103348D02*
X0508811Y0103348D01*
X0508811Y0104347D02*
X0499452Y0104347D01*
X0503388Y0105345D02*
X0508811Y0105345D01*
X0508811Y0106344D02*
X0503884Y0106344D01*
X0503884Y0107342D02*
X0508811Y0107342D01*
X0508811Y0108341D02*
X0503884Y0108341D01*
X0503884Y0109339D02*
X0508811Y0109339D01*
X0508811Y0110338D02*
X0503884Y0110338D01*
X0503884Y0111336D02*
X0508811Y0111336D01*
X0508811Y0112335D02*
X0503884Y0112335D01*
X0503884Y0113333D02*
X0508811Y0113333D01*
X0508811Y0114332D02*
X0503884Y0114332D01*
X0503884Y0115330D02*
X0508811Y0115330D01*
X0508811Y0116329D02*
X0503884Y0116329D01*
X0503884Y0117327D02*
X0508811Y0117327D01*
X0508811Y0118326D02*
X0503884Y0118326D01*
X0503884Y0119324D02*
X0508811Y0119324D01*
X0508811Y0120323D02*
X0503884Y0120323D01*
X0503884Y0121321D02*
X0508811Y0121321D01*
X0508811Y0122320D02*
X0503884Y0122320D01*
X0503884Y0123318D02*
X0508811Y0123318D01*
X0508811Y0124317D02*
X0503884Y0124317D01*
X0503884Y0125315D02*
X0508811Y0125315D01*
X0508811Y0126314D02*
X0503884Y0126314D01*
X0503884Y0127312D02*
X0508811Y0127312D01*
X0508811Y0128311D02*
X0503884Y0128311D01*
X0503884Y0129309D02*
X0508811Y0129309D01*
X0508811Y0130308D02*
X0503884Y0130308D01*
X0503884Y0131306D02*
X0508811Y0131306D01*
X0508811Y0132305D02*
X0503884Y0132305D01*
X0503884Y0133303D02*
X0508811Y0133303D01*
X0508811Y0134302D02*
X0503884Y0134302D01*
X0503884Y0135301D02*
X0508811Y0135301D01*
X0508811Y0136299D02*
X0503884Y0136299D01*
X0503884Y0137298D02*
X0508811Y0137298D01*
X0508811Y0138296D02*
X0503884Y0138296D01*
X0503884Y0139295D02*
X0508811Y0139295D01*
X0508811Y0140293D02*
X0503884Y0140293D01*
X0503884Y0141292D02*
X0508811Y0141292D01*
X0508811Y0142290D02*
X0503884Y0142290D01*
X0503884Y0143289D02*
X0508811Y0143289D01*
X0508811Y0144287D02*
X0503884Y0144287D01*
X0503884Y0145286D02*
X0508811Y0145286D01*
X0508811Y0146284D02*
X0503884Y0146284D01*
X0503884Y0147283D02*
X0508811Y0147283D01*
X0508811Y0148281D02*
X0503884Y0148281D01*
X0503884Y0149280D02*
X0508811Y0149280D01*
X0508811Y0150278D02*
X0503884Y0150278D01*
X0503884Y0151277D02*
X0508811Y0151277D01*
X0508811Y0152275D02*
X0503295Y0152275D01*
X0502297Y0153274D02*
X0508811Y0153274D01*
X0508811Y0154272D02*
X0501298Y0154272D01*
X0500300Y0155271D02*
X0508811Y0155271D01*
X0508811Y0156269D02*
X0499301Y0156269D01*
X0498303Y0157268D02*
X0508811Y0157268D01*
X0508811Y0158266D02*
X0497304Y0158266D01*
X0496306Y0159265D02*
X0508811Y0159265D01*
X0508811Y0160263D02*
X0495307Y0160263D01*
X0494309Y0161262D02*
X0508811Y0161262D01*
X0501084Y0150278D02*
X0500600Y0150278D01*
X0501084Y0149280D02*
X0500078Y0149280D01*
X0499079Y0148281D02*
X0501084Y0148281D01*
X0501084Y0147283D02*
X0440374Y0147283D01*
X0440378Y0147993D02*
X0441005Y0147674D01*
X0441674Y0147456D01*
X0442236Y0147367D01*
X0442236Y0151331D01*
X0438273Y0151331D01*
X0438362Y0150769D01*
X0438579Y0150100D01*
X0438899Y0149473D01*
X0439312Y0148904D01*
X0439809Y0148407D01*
X0440378Y0147993D01*
X0439982Y0148281D02*
X0439376Y0148281D01*
X0439039Y0149280D02*
X0438377Y0149280D01*
X0438521Y0150278D02*
X0437379Y0150278D01*
X0438282Y0151277D02*
X0436380Y0151277D01*
X0435382Y0152275D02*
X0442236Y0152275D01*
X0442236Y0152299D02*
X0442236Y0151331D01*
X0443205Y0151331D01*
X0443205Y0152299D01*
X0447168Y0152299D01*
X0447079Y0152861D01*
X0446862Y0153530D01*
X0446542Y0154157D01*
X0446129Y0154726D01*
X0445631Y0155223D01*
X0445062Y0155637D01*
X0444436Y0155956D01*
X0443767Y0156173D01*
X0443205Y0156262D01*
X0443205Y0152299D01*
X0442236Y0152299D01*
X0438273Y0152299D01*
X0438362Y0152861D01*
X0438579Y0153530D01*
X0438899Y0154157D01*
X0439312Y0154726D01*
X0439809Y0155223D01*
X0440378Y0155637D01*
X0441005Y0155956D01*
X0441674Y0156173D01*
X0442236Y0156262D01*
X0442236Y0152299D01*
X0443205Y0152275D02*
X0482400Y0152275D01*
X0482400Y0151277D02*
X0447159Y0151277D01*
X0447168Y0151331D02*
X0443205Y0151331D01*
X0443205Y0147367D01*
X0443767Y0147456D01*
X0444436Y0147674D01*
X0445062Y0147993D01*
X0445631Y0148407D01*
X0446129Y0148904D01*
X0446542Y0149473D01*
X0446862Y0150100D01*
X0447079Y0150769D01*
X0447168Y0151331D01*
X0446920Y0150278D02*
X0482400Y0150278D01*
X0482922Y0149280D02*
X0446402Y0149280D01*
X0445459Y0148281D02*
X0483921Y0148281D01*
X0487000Y0146000D02*
X0487000Y0142000D01*
X0491000Y0142000D01*
X0491000Y0143364D01*
X0488364Y0146000D01*
X0487000Y0146000D01*
X0487000Y0145286D02*
X0486000Y0145286D01*
X0486000Y0144287D02*
X0487000Y0144287D01*
X0487000Y0143289D02*
X0486000Y0143289D01*
X0486000Y0142290D02*
X0487000Y0142290D01*
X0487000Y0141292D02*
X0496000Y0141292D01*
X0496000Y0141000D02*
X0492000Y0141000D01*
X0492000Y0139636D01*
X0494636Y0137000D01*
X0496000Y0137000D01*
X0496000Y0141000D01*
X0496000Y0142000D01*
X0496000Y0146000D01*
X0494636Y0146000D01*
X0492000Y0143364D01*
X0492000Y0142000D01*
X0496000Y0142000D01*
X0497000Y0142000D01*
X0497000Y0146000D01*
X0498364Y0146000D01*
X0501000Y0143364D01*
X0501000Y0142000D01*
X0497000Y0142000D01*
X0497000Y0141000D01*
X0501000Y0141000D01*
X0501000Y0139636D01*
X0498364Y0137000D01*
X0497000Y0137000D01*
X0497000Y0141000D01*
X0496000Y0141000D01*
X0496000Y0140293D02*
X0497000Y0140293D01*
X0497000Y0139295D02*
X0496000Y0139295D01*
X0496000Y0138296D02*
X0497000Y0138296D01*
X0497000Y0137298D02*
X0496000Y0137298D01*
X0494338Y0137298D02*
X0489926Y0137298D01*
X0489660Y0138296D02*
X0493340Y0138296D01*
X0492341Y0139295D02*
X0490659Y0139295D01*
X0491000Y0140293D02*
X0492000Y0140293D01*
X0492000Y0142290D02*
X0491000Y0142290D01*
X0491000Y0143289D02*
X0492000Y0143289D01*
X0492923Y0144287D02*
X0490077Y0144287D01*
X0489078Y0145286D02*
X0493922Y0145286D01*
X0496000Y0145286D02*
X0497000Y0145286D01*
X0497000Y0144287D02*
X0496000Y0144287D01*
X0496000Y0143289D02*
X0497000Y0143289D01*
X0497000Y0142290D02*
X0496000Y0142290D01*
X0497000Y0141292D02*
X0501084Y0141292D01*
X0501084Y0142290D02*
X0501000Y0142290D01*
X0501000Y0143289D02*
X0501084Y0143289D01*
X0501084Y0144287D02*
X0500077Y0144287D01*
X0499078Y0145286D02*
X0501084Y0145286D01*
X0501084Y0146284D02*
X0441373Y0146284D01*
X0442371Y0145286D02*
X0483922Y0145286D01*
X0482923Y0144287D02*
X0443370Y0144287D01*
X0444368Y0143289D02*
X0482000Y0143289D01*
X0482000Y0142290D02*
X0445367Y0142290D01*
X0446365Y0141292D02*
X0486000Y0141292D01*
X0483340Y0138296D02*
X0449361Y0138296D01*
X0448362Y0139295D02*
X0482341Y0139295D01*
X0482000Y0140293D02*
X0447364Y0140293D01*
X0443205Y0148281D02*
X0442236Y0148281D01*
X0442236Y0149280D02*
X0443205Y0149280D01*
X0443205Y0150278D02*
X0442236Y0150278D01*
X0442236Y0151277D02*
X0443205Y0151277D01*
X0443205Y0153274D02*
X0442236Y0153274D01*
X0442236Y0154272D02*
X0443205Y0154272D01*
X0443205Y0155271D02*
X0442236Y0155271D01*
X0439875Y0155271D02*
X0432386Y0155271D01*
X0431388Y0156269D02*
X0479593Y0156269D01*
X0480592Y0155271D02*
X0445566Y0155271D01*
X0446459Y0154272D02*
X0481590Y0154272D01*
X0482475Y0153274D02*
X0446945Y0153274D01*
X0438982Y0154272D02*
X0433385Y0154272D01*
X0434383Y0153274D02*
X0438496Y0153274D01*
X0426436Y0168251D02*
X0403887Y0168251D01*
X0404854Y0169250D02*
X0425469Y0169250D01*
X0425056Y0170248D02*
X0405267Y0170248D01*
X0405450Y0171247D02*
X0424872Y0171247D01*
X0424872Y0172245D02*
X0405450Y0172245D01*
X0405063Y0173244D02*
X0425260Y0173244D01*
X0425930Y0174242D02*
X0404393Y0174242D01*
X0402982Y0175241D02*
X0427341Y0175241D01*
X0430541Y0175241D02*
X0452245Y0175241D01*
X0452031Y0174242D02*
X0431952Y0174242D01*
X0432622Y0173244D02*
X0452031Y0173244D01*
X0452031Y0172245D02*
X0433009Y0172245D01*
X0379285Y0150278D02*
X0341920Y0150278D01*
X0341862Y0150100D02*
X0342079Y0150769D01*
X0342168Y0151331D01*
X0338205Y0151331D01*
X0338205Y0152299D01*
X0342168Y0152299D01*
X0342079Y0152861D01*
X0341862Y0153530D01*
X0341542Y0154157D01*
X0341129Y0154726D01*
X0340631Y0155223D01*
X0340062Y0155637D01*
X0339436Y0155956D01*
X0338767Y0156173D01*
X0338205Y0156262D01*
X0338205Y0152299D01*
X0337236Y0152299D01*
X0337236Y0151331D01*
X0333273Y0151331D01*
X0333362Y0150769D01*
X0333579Y0150100D01*
X0333899Y0149473D01*
X0334312Y0148904D01*
X0334809Y0148407D01*
X0335378Y0147993D01*
X0336005Y0147674D01*
X0336674Y0147456D01*
X0337236Y0147367D01*
X0337236Y0151331D01*
X0338205Y0151331D01*
X0338205Y0147367D01*
X0338767Y0147456D01*
X0339436Y0147674D01*
X0340062Y0147993D01*
X0340631Y0148407D01*
X0341129Y0148904D01*
X0341542Y0149473D01*
X0341862Y0150100D01*
X0341402Y0149280D02*
X0380284Y0149280D01*
X0381282Y0148281D02*
X0340459Y0148281D01*
X0338205Y0148281D02*
X0337236Y0148281D01*
X0337236Y0149280D02*
X0338205Y0149280D01*
X0338205Y0150278D02*
X0337236Y0150278D01*
X0337236Y0151277D02*
X0338205Y0151277D01*
X0338205Y0152275D02*
X0377288Y0152275D01*
X0378287Y0151277D02*
X0342159Y0151277D01*
X0341945Y0153274D02*
X0376290Y0153274D01*
X0375291Y0154272D02*
X0341459Y0154272D01*
X0340566Y0155271D02*
X0374293Y0155271D01*
X0373294Y0156269D02*
X0299981Y0156269D01*
X0298983Y0155271D02*
X0307873Y0155271D01*
X0306865Y0154272D02*
X0297984Y0154272D01*
X0296986Y0153274D02*
X0306362Y0153274D01*
X0306093Y0152275D02*
X0295987Y0152275D01*
X0294989Y0151277D02*
X0306093Y0151277D01*
X0306394Y0150278D02*
X0293990Y0150278D01*
X0292992Y0149280D02*
X0306561Y0149280D01*
X0306561Y0148281D02*
X0291993Y0148281D01*
X0290995Y0147283D02*
X0306561Y0147283D01*
X0306561Y0146284D02*
X0289996Y0146284D01*
X0288998Y0145286D02*
X0306561Y0145286D01*
X0313761Y0145286D02*
X0384278Y0145286D01*
X0383279Y0146284D02*
X0313761Y0146284D01*
X0313761Y0147283D02*
X0382281Y0147283D01*
X0338205Y0153274D02*
X0337236Y0153274D01*
X0337236Y0152299D02*
X0337236Y0156262D01*
X0336674Y0156173D01*
X0336005Y0155956D01*
X0335378Y0155637D01*
X0334809Y0155223D01*
X0334312Y0154726D01*
X0333899Y0154157D01*
X0333579Y0153530D01*
X0333362Y0152861D01*
X0333273Y0152299D01*
X0337236Y0152299D01*
X0337236Y0152275D02*
X0314230Y0152275D01*
X0314230Y0151277D02*
X0333282Y0151277D01*
X0333521Y0150278D02*
X0313929Y0150278D01*
X0313761Y0149280D02*
X0334039Y0149280D01*
X0334982Y0148281D02*
X0313761Y0148281D01*
X0313961Y0153274D02*
X0333496Y0153274D01*
X0333982Y0154272D02*
X0313458Y0154272D01*
X0312450Y0155271D02*
X0334875Y0155271D01*
X0337236Y0155271D02*
X0338205Y0155271D01*
X0338205Y0154272D02*
X0337236Y0154272D01*
X0321436Y0168251D02*
X0298887Y0168251D01*
X0299854Y0169250D02*
X0320469Y0169250D01*
X0320056Y0170248D02*
X0300267Y0170248D01*
X0300450Y0171247D02*
X0319872Y0171247D01*
X0319872Y0172245D02*
X0300450Y0172245D01*
X0300063Y0173244D02*
X0320260Y0173244D01*
X0320930Y0174242D02*
X0299393Y0174242D01*
X0297982Y0175241D02*
X0322341Y0175241D01*
X0325541Y0175241D02*
X0347245Y0175241D01*
X0347031Y0174242D02*
X0326952Y0174242D01*
X0327622Y0173244D02*
X0347031Y0173244D01*
X0347031Y0172245D02*
X0328009Y0172245D01*
X0285181Y0155271D02*
X0284891Y0155271D01*
X0280314Y0155271D02*
X0235566Y0155271D01*
X0236459Y0154272D02*
X0279306Y0154272D01*
X0278803Y0153274D02*
X0236945Y0153274D01*
X0233205Y0153274D02*
X0232236Y0153274D01*
X0232236Y0154272D02*
X0233205Y0154272D01*
X0233205Y0155271D02*
X0232236Y0155271D01*
X0232236Y0151277D02*
X0233205Y0151277D01*
X0233205Y0150278D02*
X0232236Y0150278D01*
X0232236Y0149280D02*
X0233205Y0149280D01*
X0233205Y0148281D02*
X0232236Y0148281D01*
X0229982Y0148281D02*
X0208761Y0148281D01*
X0208761Y0149280D02*
X0229039Y0149280D01*
X0228521Y0150278D02*
X0208929Y0150278D01*
X0209230Y0151277D02*
X0228282Y0151277D01*
X0175314Y0155271D02*
X0130566Y0155271D01*
X0131459Y0154272D02*
X0174306Y0154272D01*
X0173803Y0153274D02*
X0131945Y0153274D01*
X0128205Y0153274D02*
X0127236Y0153274D01*
X0127236Y0154272D02*
X0128205Y0154272D01*
X0128205Y0155271D02*
X0127236Y0155271D01*
X0127236Y0151277D02*
X0128205Y0151277D01*
X0128205Y0150278D02*
X0127236Y0150278D01*
X0127236Y0149280D02*
X0128205Y0149280D01*
X0128205Y0148281D02*
X0127236Y0148281D01*
X0124982Y0148281D02*
X0103761Y0148281D01*
X0103761Y0149280D02*
X0124039Y0149280D01*
X0123521Y0150278D02*
X0103929Y0150278D01*
X0096561Y0149280D02*
X0075821Y0149280D01*
X0074703Y0148281D02*
X0096561Y0148281D01*
X0096561Y0147283D02*
X0006000Y0147283D01*
X0006000Y0148281D02*
X0070502Y0148281D01*
X0069384Y0149280D02*
X0006000Y0149280D01*
X0006000Y0150278D02*
X0068835Y0150278D01*
X0068534Y0151277D02*
X0006000Y0151277D01*
X0006000Y0152275D02*
X0068534Y0152275D01*
X0068803Y0153274D02*
X0006000Y0153274D01*
X0006000Y0154272D02*
X0069306Y0154272D01*
X0070314Y0155271D02*
X0006000Y0155271D01*
X0006000Y0156269D02*
X0080470Y0156269D01*
X0079472Y0155271D02*
X0074891Y0155271D01*
X0075899Y0154272D02*
X0078473Y0154272D01*
X0077475Y0153274D02*
X0076402Y0153274D01*
X0078439Y0150278D02*
X0096394Y0150278D01*
X0096093Y0151277D02*
X0079438Y0151277D01*
X0080436Y0152275D02*
X0096093Y0152275D01*
X0096362Y0153274D02*
X0081435Y0153274D01*
X0082433Y0154272D02*
X0096865Y0154272D01*
X0083466Y0159265D02*
X0006000Y0159265D01*
X0006000Y0160263D02*
X0150409Y0160263D01*
X0151408Y0161262D02*
X0006000Y0161262D01*
X0006000Y0162260D02*
X0152406Y0162260D01*
X0153405Y0163259D02*
X0006000Y0163259D01*
X0006000Y0164257D02*
X0154403Y0164257D01*
X0155402Y0165256D02*
X0006000Y0165256D01*
X0006000Y0166254D02*
X0156400Y0166254D01*
X0137031Y0172245D02*
X0118009Y0172245D01*
X0117622Y0173244D02*
X0137031Y0173244D01*
X0137031Y0174242D02*
X0116952Y0174242D01*
X0115541Y0175241D02*
X0137245Y0175241D01*
X0112341Y0175241D02*
X0087982Y0175241D01*
X0088687Y0174949D02*
X0087191Y0175568D01*
X0085573Y0175568D01*
X0084077Y0174949D01*
X0082933Y0173805D01*
X0082313Y0172309D01*
X0082313Y0170691D01*
X0082933Y0169195D01*
X0084077Y0168051D01*
X0085573Y0167431D01*
X0087191Y0167431D01*
X0088687Y0168051D01*
X0089831Y0169195D01*
X0090450Y0170691D01*
X0090450Y0172309D01*
X0089831Y0173805D01*
X0088687Y0174949D01*
X0089393Y0174242D02*
X0110930Y0174242D01*
X0110260Y0173244D02*
X0090063Y0173244D01*
X0090450Y0172245D02*
X0109872Y0172245D01*
X0109872Y0171247D02*
X0090450Y0171247D01*
X0090267Y0170248D02*
X0110056Y0170248D01*
X0110469Y0169250D02*
X0089854Y0169250D01*
X0088887Y0168251D02*
X0111436Y0168251D01*
X0084782Y0175241D02*
X0060423Y0175241D01*
X0061834Y0174242D02*
X0083371Y0174242D01*
X0082701Y0173244D02*
X0062504Y0173244D01*
X0062891Y0172245D02*
X0082313Y0172245D01*
X0082313Y0171247D02*
X0062891Y0171247D01*
X0062708Y0170248D02*
X0082497Y0170248D01*
X0082910Y0169250D02*
X0062295Y0169250D01*
X0061328Y0168251D02*
X0083877Y0168251D01*
X0082467Y0158266D02*
X0006000Y0158266D01*
X0006000Y0157268D02*
X0081469Y0157268D01*
X0096561Y0146284D02*
X0006000Y0146284D01*
X0006000Y0145286D02*
X0096561Y0145286D01*
X0096561Y0144287D02*
X0006000Y0144287D01*
X0006000Y0143289D02*
X0096561Y0143289D01*
X0096561Y0142290D02*
X0006000Y0142290D01*
X0006000Y0141292D02*
X0096561Y0141292D01*
X0096561Y0140293D02*
X0006000Y0140293D01*
X0006000Y0139295D02*
X0096561Y0139295D01*
X0096777Y0138296D02*
X0006000Y0138296D01*
X0006000Y0137298D02*
X0097304Y0137298D01*
X0098303Y0136299D02*
X0006000Y0136299D01*
X0006000Y0135301D02*
X0014502Y0135301D01*
X0014802Y0135600D02*
X0012400Y0133198D01*
X0012400Y0129802D01*
X0014802Y0127400D01*
X0018198Y0127400D01*
X0020600Y0129802D01*
X0020600Y0130021D01*
X0022400Y0130021D01*
X0022400Y0129802D01*
X0024802Y0127400D01*
X0028198Y0127400D01*
X0030600Y0129802D01*
X0030600Y0133198D01*
X0028198Y0135600D01*
X0024802Y0135600D01*
X0022400Y0133198D01*
X0022400Y0132821D01*
X0020600Y0132821D01*
X0020600Y0133198D01*
X0018198Y0135600D01*
X0014802Y0135600D01*
X0013504Y0134302D02*
X0006000Y0134302D01*
X0006000Y0133303D02*
X0012505Y0133303D01*
X0012400Y0132305D02*
X0006000Y0132305D01*
X0006000Y0131306D02*
X0012400Y0131306D01*
X0012400Y0130308D02*
X0006000Y0130308D01*
X0006000Y0129309D02*
X0012892Y0129309D01*
X0013891Y0128311D02*
X0006000Y0128311D01*
X0006000Y0127312D02*
X0107289Y0127312D01*
X0108231Y0126314D02*
X0006000Y0126314D01*
X0006000Y0125315D02*
X0013951Y0125315D01*
X0014636Y0126000D02*
X0012000Y0123364D01*
X0012000Y0122000D01*
X0016000Y0122000D01*
X0016000Y0126000D01*
X0014636Y0126000D01*
X0016000Y0125315D02*
X0017000Y0125315D01*
X0017000Y0126000D02*
X0017000Y0122000D01*
X0016000Y0122000D01*
X0016000Y0121000D01*
X0012000Y0121000D01*
X0012000Y0119636D01*
X0014636Y0117000D01*
X0016000Y0117000D01*
X0016000Y0121000D01*
X0017000Y0121000D01*
X0017000Y0122000D01*
X0021000Y0122000D01*
X0021000Y0123364D01*
X0018364Y0126000D01*
X0017000Y0126000D01*
X0017000Y0124317D02*
X0016000Y0124317D01*
X0016000Y0123318D02*
X0017000Y0123318D01*
X0017000Y0122320D02*
X0016000Y0122320D01*
X0016000Y0121321D02*
X0006000Y0121321D01*
X0006000Y0120323D02*
X0012000Y0120323D01*
X0012312Y0119324D02*
X0006000Y0119324D01*
X0006000Y0118326D02*
X0013310Y0118326D01*
X0014309Y0117327D02*
X0006000Y0117327D01*
X0006000Y0116329D02*
X0098246Y0116329D01*
X0099244Y0117327D02*
X0028691Y0117327D01*
X0028364Y0117000D02*
X0031000Y0119636D01*
X0031000Y0121000D01*
X0027000Y0121000D01*
X0027000Y0122000D01*
X0026000Y0122000D01*
X0026000Y0126000D01*
X0024636Y0126000D01*
X0022000Y0123364D01*
X0022000Y0122000D01*
X0026000Y0122000D01*
X0026000Y0121000D01*
X0022000Y0121000D01*
X0022000Y0119636D01*
X0024636Y0117000D01*
X0026000Y0117000D01*
X0026000Y0121000D01*
X0027000Y0121000D01*
X0027000Y0117000D01*
X0028364Y0117000D01*
X0027000Y0117327D02*
X0026000Y0117327D01*
X0026000Y0118326D02*
X0027000Y0118326D01*
X0027000Y0119324D02*
X0026000Y0119324D01*
X0026000Y0120323D02*
X0027000Y0120323D01*
X0027000Y0121321D02*
X0103238Y0121321D01*
X0102240Y0120323D02*
X0031000Y0120323D01*
X0030688Y0119324D02*
X0101241Y0119324D01*
X0100243Y0118326D02*
X0029690Y0118326D01*
X0026000Y0121321D02*
X0017000Y0121321D01*
X0017000Y0121000D02*
X0021000Y0121000D01*
X0021000Y0119636D01*
X0018364Y0117000D01*
X0017000Y0117000D01*
X0017000Y0121000D01*
X0017000Y0120323D02*
X0016000Y0120323D01*
X0016000Y0119324D02*
X0017000Y0119324D01*
X0017000Y0118326D02*
X0016000Y0118326D01*
X0016000Y0117327D02*
X0017000Y0117327D01*
X0018691Y0117327D02*
X0024309Y0117327D01*
X0023310Y0118326D02*
X0019690Y0118326D01*
X0020688Y0119324D02*
X0022312Y0119324D01*
X0022000Y0120323D02*
X0021000Y0120323D01*
X0021000Y0122320D02*
X0022000Y0122320D01*
X0022000Y0123318D02*
X0021000Y0123318D01*
X0020047Y0124317D02*
X0022953Y0124317D01*
X0023951Y0125315D02*
X0019049Y0125315D01*
X0012953Y0124317D02*
X0006000Y0124317D01*
X0006000Y0123318D02*
X0012000Y0123318D01*
X0012000Y0122320D02*
X0006000Y0122320D01*
X0019109Y0128311D02*
X0023891Y0128311D01*
X0022892Y0129309D02*
X0020108Y0129309D01*
X0020495Y0133303D02*
X0022505Y0133303D01*
X0023504Y0134302D02*
X0019496Y0134302D01*
X0018498Y0135301D02*
X0024502Y0135301D01*
X0028498Y0135301D02*
X0099301Y0135301D01*
X0100300Y0134302D02*
X0029496Y0134302D01*
X0030495Y0133303D02*
X0101298Y0133303D01*
X0102297Y0132305D02*
X0030600Y0132305D01*
X0030600Y0131306D02*
X0103295Y0131306D01*
X0104294Y0130308D02*
X0030600Y0130308D01*
X0030108Y0129309D02*
X0105292Y0129309D01*
X0106291Y0128311D02*
X0029109Y0128311D01*
X0028364Y0126000D02*
X0027000Y0126000D01*
X0027000Y0122000D01*
X0031000Y0122000D01*
X0031000Y0123364D01*
X0028364Y0126000D01*
X0029049Y0125315D02*
X0107232Y0125315D01*
X0106234Y0124317D02*
X0030047Y0124317D01*
X0031000Y0123318D02*
X0105235Y0123318D01*
X0104237Y0122320D02*
X0031000Y0122320D01*
X0027000Y0122320D02*
X0026000Y0122320D01*
X0026000Y0123318D02*
X0027000Y0123318D01*
X0027000Y0124317D02*
X0026000Y0124317D01*
X0026000Y0125315D02*
X0027000Y0125315D01*
X0028468Y0115330D02*
X0097247Y0115330D01*
X0096753Y0114332D02*
X0029466Y0114332D01*
X0030465Y0113333D02*
X0096561Y0113333D01*
X0096561Y0112335D02*
X0030600Y0112335D01*
X0030600Y0111336D02*
X0096561Y0111336D01*
X0096561Y0110338D02*
X0030600Y0110338D01*
X0030483Y0109339D02*
X0096561Y0109339D01*
X0096561Y0108341D02*
X0085616Y0108341D01*
X0086614Y0107342D02*
X0096561Y0107342D01*
X0096561Y0106344D02*
X0087613Y0106344D01*
X0088611Y0105345D02*
X0096561Y0105345D01*
X0096561Y0104347D02*
X0089610Y0104347D01*
X0090608Y0103348D02*
X0096561Y0103348D01*
X0096561Y0102350D02*
X0091607Y0102350D01*
X0092605Y0101351D02*
X0096561Y0101351D01*
X0096561Y0100353D02*
X0093604Y0100353D01*
X0094602Y0099354D02*
X0096561Y0099354D01*
X0096561Y0098356D02*
X0095601Y0098356D01*
X0096404Y0097357D02*
X0096561Y0097357D01*
X0096561Y0096359D02*
X0096404Y0096359D01*
X0096404Y0095360D02*
X0096561Y0095360D01*
X0096561Y0094362D02*
X0096404Y0094362D01*
X0096404Y0093363D02*
X0096561Y0093363D01*
X0096561Y0092365D02*
X0096404Y0092365D01*
X0096404Y0091366D02*
X0096561Y0091366D01*
X0096561Y0090368D02*
X0096404Y0090368D01*
X0096404Y0089369D02*
X0096561Y0089369D01*
X0096561Y0088370D02*
X0096404Y0088370D01*
X0096404Y0087372D02*
X0096561Y0087372D01*
X0096561Y0086373D02*
X0096404Y0086373D01*
X0096404Y0085375D02*
X0096561Y0085375D01*
X0096561Y0084376D02*
X0096404Y0084376D01*
X0096404Y0083378D02*
X0096561Y0083378D01*
X0096561Y0082379D02*
X0096404Y0082379D01*
X0096561Y0081381D02*
X0096156Y0081381D01*
X0096561Y0080382D02*
X0092902Y0080382D01*
X0089232Y0080382D02*
X0082694Y0080382D01*
X0082829Y0080709D02*
X0082829Y0081588D01*
X0083708Y0081588D01*
X0084659Y0081982D01*
X0085388Y0082711D01*
X0085782Y0083662D01*
X0085782Y0084692D01*
X0085388Y0085644D01*
X0084659Y0086372D01*
X0083708Y0086766D01*
X0082678Y0086766D01*
X0081726Y0086372D01*
X0080998Y0085644D01*
X0080971Y0085577D01*
X0028479Y0085577D01*
X0028350Y0085448D01*
X0028198Y0085600D01*
X0024802Y0085600D01*
X0022400Y0083198D01*
X0022400Y0079802D01*
X0024262Y0077939D01*
X0020841Y0077939D01*
X0020021Y0077119D01*
X0018350Y0075448D01*
X0018198Y0075600D01*
X0014802Y0075600D01*
X0012400Y0073198D01*
X0012400Y0069802D01*
X0014802Y0067400D01*
X0018198Y0067400D01*
X0020600Y0069802D01*
X0020600Y0073198D01*
X0020330Y0073468D01*
X0022001Y0075139D01*
X0024341Y0075139D01*
X0022400Y0073198D01*
X0022400Y0069802D01*
X0024802Y0067400D01*
X0028198Y0067400D01*
X0030600Y0069802D01*
X0030600Y0073198D01*
X0030251Y0073547D01*
X0030623Y0073919D01*
X0068025Y0073919D01*
X0070978Y0076872D01*
X0074081Y0076872D01*
X0074108Y0076805D01*
X0074837Y0076077D01*
X0075788Y0075683D01*
X0076818Y0075683D01*
X0077770Y0076077D01*
X0078498Y0076805D01*
X0078892Y0077757D01*
X0078892Y0078787D01*
X0078795Y0079021D01*
X0079725Y0078635D01*
X0080755Y0078635D01*
X0081707Y0079030D01*
X0082435Y0079758D01*
X0082829Y0080709D01*
X0082829Y0081381D02*
X0088607Y0081381D01*
X0088478Y0082379D02*
X0085057Y0082379D01*
X0085664Y0083378D02*
X0088749Y0083378D01*
X0089573Y0084376D02*
X0085782Y0084376D01*
X0085499Y0085375D02*
X0093604Y0085375D01*
X0093604Y0086373D02*
X0084656Y0086373D01*
X0083758Y0088370D02*
X0061447Y0088370D01*
X0061127Y0088051D02*
X0062272Y0089195D01*
X0062891Y0090691D01*
X0062891Y0092309D01*
X0062272Y0093805D01*
X0061127Y0094949D01*
X0059632Y0095568D01*
X0058014Y0095568D01*
X0056518Y0094949D01*
X0055374Y0093805D01*
X0054754Y0092309D01*
X0054754Y0090691D01*
X0055374Y0089195D01*
X0056518Y0088051D01*
X0058014Y0087431D01*
X0059632Y0087431D01*
X0061127Y0088051D01*
X0062344Y0089369D02*
X0082861Y0089369D01*
X0082447Y0090368D02*
X0062757Y0090368D01*
X0062891Y0091366D02*
X0082313Y0091366D01*
X0082336Y0092365D02*
X0062868Y0092365D01*
X0062455Y0093363D02*
X0082750Y0093363D01*
X0083490Y0094362D02*
X0061715Y0094362D01*
X0060135Y0095360D02*
X0085069Y0095360D01*
X0086734Y0097357D02*
X0024534Y0097357D01*
X0023535Y0096359D02*
X0087732Y0096359D01*
X0087694Y0095360D02*
X0088731Y0095360D01*
X0089274Y0094362D02*
X0089462Y0094362D01*
X0090450Y0091366D02*
X0093604Y0091366D01*
X0093604Y0090368D02*
X0090316Y0090368D01*
X0089903Y0089369D02*
X0093604Y0089369D01*
X0093604Y0088370D02*
X0089006Y0088370D01*
X0093604Y0087372D02*
X0011758Y0087372D01*
X0011758Y0088370D02*
X0013831Y0088370D01*
X0012833Y0089369D02*
X0011758Y0089369D01*
X0011758Y0090368D02*
X0012400Y0090368D01*
X0009676Y0092365D02*
X0006000Y0092365D01*
X0006000Y0093363D02*
X0010674Y0093363D01*
X0011673Y0094362D02*
X0006000Y0094362D01*
X0006000Y0095360D02*
X0012672Y0095360D01*
X0013670Y0096359D02*
X0006000Y0096359D01*
X0006000Y0097357D02*
X0014669Y0097357D01*
X0013846Y0098356D02*
X0006000Y0098356D01*
X0006000Y0099354D02*
X0012848Y0099354D01*
X0012400Y0100353D02*
X0006000Y0100353D01*
X0006000Y0101351D02*
X0012400Y0101351D01*
X0012400Y0102350D02*
X0006000Y0102350D01*
X0006000Y0103348D02*
X0012550Y0103348D01*
X0013548Y0104347D02*
X0006000Y0104347D01*
X0006000Y0105345D02*
X0014547Y0105345D01*
X0018453Y0105345D02*
X0021187Y0105345D01*
X0020188Y0106344D02*
X0006000Y0106344D01*
X0006000Y0107342D02*
X0019190Y0107342D01*
X0021152Y0109339D02*
X0022862Y0109339D01*
X0022400Y0110338D02*
X0020600Y0110338D01*
X0020600Y0111336D02*
X0022400Y0111336D01*
X0022400Y0112335D02*
X0020600Y0112335D01*
X0020465Y0113333D02*
X0022535Y0113333D01*
X0023534Y0114332D02*
X0019466Y0114332D01*
X0018468Y0115330D02*
X0024532Y0115330D01*
X0014532Y0115330D02*
X0006000Y0115330D01*
X0006000Y0114332D02*
X0013534Y0114332D01*
X0012535Y0113333D02*
X0006000Y0113333D01*
X0006000Y0112335D02*
X0012400Y0112335D01*
X0012400Y0111336D02*
X0006000Y0111336D01*
X0006000Y0110338D02*
X0012400Y0110338D01*
X0012862Y0109339D02*
X0006000Y0109339D01*
X0006000Y0108341D02*
X0013861Y0108341D01*
X0019452Y0104347D02*
X0023548Y0104347D01*
X0022550Y0103348D02*
X0020450Y0103348D01*
X0020600Y0102350D02*
X0022400Y0102350D01*
X0022400Y0101351D02*
X0020600Y0101351D01*
X0020600Y0100353D02*
X0022400Y0100353D01*
X0022571Y0099354D02*
X0020152Y0099354D01*
X0019154Y0098356D02*
X0021573Y0098356D01*
X0029154Y0098356D02*
X0085735Y0098356D01*
X0084737Y0099354D02*
X0030152Y0099354D01*
X0030600Y0100353D02*
X0083738Y0100353D01*
X0082740Y0101351D02*
X0030600Y0101351D01*
X0030600Y0102350D02*
X0081741Y0102350D01*
X0080743Y0103348D02*
X0030450Y0103348D01*
X0029452Y0104347D02*
X0079744Y0104347D01*
X0057510Y0095360D02*
X0028438Y0095360D01*
X0028198Y0095600D02*
X0024802Y0095600D01*
X0022400Y0093198D01*
X0022400Y0089802D01*
X0024802Y0087400D01*
X0028198Y0087400D01*
X0030600Y0089802D01*
X0030600Y0093198D01*
X0028198Y0095600D01*
X0029437Y0094362D02*
X0055931Y0094362D01*
X0055191Y0093363D02*
X0030435Y0093363D01*
X0030600Y0092365D02*
X0054777Y0092365D01*
X0054754Y0091366D02*
X0030600Y0091366D01*
X0030600Y0090368D02*
X0054888Y0090368D01*
X0055302Y0089369D02*
X0030167Y0089369D01*
X0029169Y0088370D02*
X0056199Y0088370D01*
X0078892Y0078385D02*
X0096561Y0078385D01*
X0096561Y0077387D02*
X0078739Y0077387D01*
X0078081Y0076388D02*
X0096561Y0076388D01*
X0096561Y0075390D02*
X0074603Y0075390D01*
X0074525Y0076388D02*
X0070494Y0076388D01*
X0070601Y0075390D02*
X0069496Y0075390D01*
X0069425Y0074391D02*
X0068497Y0074391D01*
X0068852Y0073393D02*
X0030405Y0073393D01*
X0030600Y0072394D02*
X0068534Y0072394D01*
X0068534Y0071396D02*
X0030600Y0071396D01*
X0030600Y0070397D02*
X0068786Y0070397D01*
X0069265Y0069399D02*
X0030197Y0069399D01*
X0029199Y0068400D02*
X0070263Y0068400D01*
X0073891Y0067402D02*
X0028200Y0067402D01*
X0028394Y0065405D02*
X0032913Y0065405D01*
X0033912Y0066403D02*
X0011758Y0066403D01*
X0011758Y0065405D02*
X0014606Y0065405D01*
X0013608Y0064406D02*
X0011758Y0064406D01*
X0011758Y0063408D02*
X0012609Y0063408D01*
X0012400Y0062409D02*
X0011758Y0062409D01*
X0011758Y0061411D02*
X0012400Y0061411D01*
X0012400Y0060412D02*
X0011758Y0060412D01*
X0011758Y0059414D02*
X0012788Y0059414D01*
X0013787Y0058415D02*
X0011758Y0058415D01*
X0011758Y0057417D02*
X0014785Y0057417D01*
X0014621Y0055420D02*
X0011758Y0055420D01*
X0011758Y0056418D02*
X0019405Y0056418D01*
X0018407Y0057417D02*
X0018215Y0057417D01*
X0018379Y0055420D02*
X0020404Y0055420D01*
X0021402Y0054421D02*
X0019377Y0054421D01*
X0020376Y0053423D02*
X0022624Y0053423D01*
X0022400Y0052424D02*
X0020600Y0052424D01*
X0020600Y0051426D02*
X0022400Y0051426D01*
X0022400Y0050427D02*
X0020600Y0050427D01*
X0020512Y0049429D02*
X0022773Y0049429D01*
X0023772Y0048430D02*
X0021510Y0048430D01*
X0022509Y0047432D02*
X0024770Y0047432D01*
X0024636Y0045434D02*
X0023018Y0045434D01*
X0023018Y0044436D02*
X0023638Y0044436D01*
X0023018Y0046433D02*
X0031658Y0046433D01*
X0032656Y0047432D02*
X0028230Y0047432D01*
X0029228Y0048430D02*
X0033655Y0048430D01*
X0034653Y0049429D02*
X0030227Y0049429D01*
X0030600Y0050427D02*
X0035652Y0050427D01*
X0036650Y0051426D02*
X0030600Y0051426D01*
X0030600Y0052424D02*
X0037649Y0052424D01*
X0038647Y0053423D02*
X0030376Y0053423D01*
X0029826Y0054421D02*
X0039646Y0054421D01*
X0040644Y0055420D02*
X0030825Y0055420D01*
X0031823Y0056418D02*
X0041643Y0056418D01*
X0042641Y0057417D02*
X0032822Y0057417D01*
X0033820Y0058415D02*
X0042301Y0058415D01*
X0045603Y0056418D02*
X0079045Y0056418D01*
X0080043Y0057417D02*
X0046601Y0057417D01*
X0047600Y0058415D02*
X0081042Y0058415D01*
X0082040Y0059414D02*
X0048598Y0059414D01*
X0049597Y0060412D02*
X0083039Y0060412D01*
X0084037Y0061411D02*
X0050595Y0061411D01*
X0051292Y0062108D02*
X0084734Y0062108D01*
X0062160Y0039533D01*
X0062160Y0040401D01*
X0061766Y0041352D01*
X0061037Y0042081D01*
X0060086Y0042475D01*
X0059056Y0042475D01*
X0058104Y0042081D01*
X0057376Y0041352D01*
X0057348Y0041286D01*
X0040140Y0041286D01*
X0040112Y0041352D01*
X0039384Y0042081D01*
X0038432Y0042475D01*
X0037402Y0042475D01*
X0036451Y0042081D01*
X0035722Y0041352D01*
X0035328Y0040401D01*
X0035328Y0039371D01*
X0035722Y0038419D01*
X0036451Y0037691D01*
X0037402Y0037297D01*
X0038432Y0037297D01*
X0039384Y0037691D01*
X0040112Y0038419D01*
X0040140Y0038486D01*
X0057348Y0038486D01*
X0057376Y0038419D01*
X0058104Y0037691D01*
X0059056Y0037297D01*
X0059923Y0037297D01*
X0056254Y0033628D01*
X0056254Y0034495D01*
X0055860Y0035447D01*
X0055132Y0036175D01*
X0054180Y0036569D01*
X0053150Y0036569D01*
X0052199Y0036175D01*
X0051471Y0035447D01*
X0051443Y0035380D01*
X0026686Y0035380D01*
X0023018Y0039048D01*
X0023018Y0039184D01*
X0024802Y0037400D01*
X0028198Y0037400D01*
X0030600Y0039802D01*
X0030600Y0041415D01*
X0051292Y0062108D01*
X0031915Y0064406D02*
X0029392Y0064406D01*
X0030391Y0063408D02*
X0030916Y0063408D01*
X0030859Y0059414D02*
X0030212Y0059414D01*
X0029860Y0058415D02*
X0029213Y0058415D01*
X0028862Y0057417D02*
X0028215Y0057417D01*
X0024785Y0057417D02*
X0022366Y0057417D01*
X0021368Y0058415D02*
X0023787Y0058415D01*
X0022788Y0059414D02*
X0020369Y0059414D01*
X0020600Y0060412D02*
X0022400Y0060412D01*
X0022400Y0061411D02*
X0020600Y0061411D01*
X0020600Y0062409D02*
X0022400Y0062409D01*
X0022609Y0063408D02*
X0020391Y0063408D01*
X0019392Y0064406D02*
X0023608Y0064406D01*
X0024606Y0065405D02*
X0018394Y0065405D01*
X0018200Y0067402D02*
X0024800Y0067402D01*
X0023801Y0068400D02*
X0019199Y0068400D01*
X0020197Y0069399D02*
X0022803Y0069399D01*
X0022400Y0070397D02*
X0020600Y0070397D01*
X0020600Y0071396D02*
X0022400Y0071396D01*
X0022400Y0072394D02*
X0020600Y0072394D01*
X0020405Y0073393D02*
X0022595Y0073393D01*
X0023593Y0074391D02*
X0021253Y0074391D01*
X0019290Y0076388D02*
X0011758Y0076388D01*
X0011758Y0075390D02*
X0014592Y0075390D01*
X0013593Y0074391D02*
X0011758Y0074391D01*
X0011758Y0073393D02*
X0012595Y0073393D01*
X0012400Y0072394D02*
X0011758Y0072394D01*
X0011758Y0071396D02*
X0012400Y0071396D01*
X0012400Y0070397D02*
X0011758Y0070397D01*
X0011758Y0069399D02*
X0012803Y0069399D01*
X0013801Y0068400D02*
X0011758Y0068400D01*
X0011758Y0067402D02*
X0014800Y0067402D01*
X0008958Y0067402D02*
X0006000Y0067402D01*
X0006000Y0068400D02*
X0008958Y0068400D01*
X0008958Y0069399D02*
X0006000Y0069399D01*
X0006000Y0070397D02*
X0008958Y0070397D01*
X0008958Y0071396D02*
X0006000Y0071396D01*
X0006000Y0072394D02*
X0008958Y0072394D01*
X0008958Y0073393D02*
X0006000Y0073393D01*
X0006000Y0074391D02*
X0008958Y0074391D01*
X0008958Y0075390D02*
X0006000Y0075390D01*
X0006000Y0076388D02*
X0008958Y0076388D01*
X0008958Y0077387D02*
X0006000Y0077387D01*
X0006000Y0078385D02*
X0008958Y0078385D01*
X0008958Y0079384D02*
X0006000Y0079384D01*
X0006000Y0080382D02*
X0008958Y0080382D01*
X0008958Y0081381D02*
X0006000Y0081381D01*
X0006000Y0082379D02*
X0008958Y0082379D01*
X0008958Y0083378D02*
X0006000Y0083378D01*
X0006000Y0084376D02*
X0008958Y0084376D01*
X0008958Y0085375D02*
X0006000Y0085375D01*
X0006000Y0086373D02*
X0008958Y0086373D01*
X0008958Y0087372D02*
X0006000Y0087372D01*
X0006000Y0088370D02*
X0008958Y0088370D01*
X0008958Y0089369D02*
X0006000Y0089369D01*
X0006000Y0090368D02*
X0008958Y0090368D01*
X0008958Y0091366D02*
X0006000Y0091366D01*
X0011758Y0086373D02*
X0081730Y0086373D01*
X0092561Y0084376D02*
X0093604Y0084376D01*
X0103761Y0084376D02*
X0142436Y0084376D01*
X0141437Y0083378D02*
X0103761Y0083378D01*
X0103761Y0082379D02*
X0140439Y0082379D01*
X0139440Y0081381D02*
X0103761Y0081381D01*
X0103761Y0080382D02*
X0138442Y0080382D01*
X0140405Y0078385D02*
X0173846Y0078385D01*
X0172848Y0077387D02*
X0139406Y0077387D01*
X0141403Y0079384D02*
X0201561Y0079384D01*
X0201561Y0080382D02*
X0142402Y0080382D01*
X0143400Y0081381D02*
X0201561Y0081381D01*
X0201561Y0082379D02*
X0144399Y0082379D01*
X0145397Y0083378D02*
X0201561Y0083378D01*
X0201561Y0084376D02*
X0146396Y0084376D01*
X0147394Y0085375D02*
X0201561Y0085375D01*
X0201561Y0086373D02*
X0148393Y0086373D01*
X0149391Y0087372D02*
X0201561Y0087372D01*
X0201561Y0088370D02*
X0194006Y0088370D01*
X0193687Y0088051D02*
X0194831Y0089195D01*
X0195450Y0090691D01*
X0195450Y0092309D01*
X0194831Y0093805D01*
X0193687Y0094949D01*
X0192191Y0095568D01*
X0190573Y0095568D01*
X0189077Y0094949D01*
X0187933Y0093805D01*
X0187313Y0092309D01*
X0187313Y0090691D01*
X0187933Y0089195D01*
X0189077Y0088051D01*
X0190573Y0087431D01*
X0192191Y0087431D01*
X0193687Y0088051D01*
X0194903Y0089369D02*
X0201561Y0089369D01*
X0201561Y0090368D02*
X0195316Y0090368D01*
X0195450Y0091366D02*
X0201561Y0091366D01*
X0201561Y0092365D02*
X0195427Y0092365D01*
X0195014Y0093363D02*
X0201561Y0093363D01*
X0201561Y0094362D02*
X0194274Y0094362D01*
X0192694Y0095360D02*
X0201561Y0095360D01*
X0201561Y0096359D02*
X0158378Y0096359D01*
X0159376Y0097357D02*
X0201561Y0097357D01*
X0201561Y0098356D02*
X0160375Y0098356D01*
X0161373Y0099354D02*
X0201561Y0099354D01*
X0201561Y0100353D02*
X0162372Y0100353D01*
X0163370Y0101351D02*
X0201561Y0101351D01*
X0201561Y0102350D02*
X0164369Y0102350D01*
X0165367Y0103348D02*
X0201561Y0103348D01*
X0201561Y0104347D02*
X0166366Y0104347D01*
X0167364Y0105345D02*
X0201561Y0105345D01*
X0201561Y0106344D02*
X0168363Y0106344D01*
X0169361Y0107342D02*
X0201561Y0107342D01*
X0201561Y0108341D02*
X0170360Y0108341D01*
X0171358Y0109339D02*
X0201561Y0109339D01*
X0201561Y0110338D02*
X0172357Y0110338D01*
X0173356Y0111336D02*
X0201561Y0111336D01*
X0201561Y0112335D02*
X0174354Y0112335D01*
X0175353Y0113333D02*
X0201561Y0113333D01*
X0201561Y0114332D02*
X0176351Y0114332D01*
X0177350Y0115330D02*
X0201563Y0115330D01*
X0201977Y0116329D02*
X0178348Y0116329D01*
X0180903Y0117327D02*
X0202787Y0117327D01*
X0203786Y0118326D02*
X0181920Y0118326D01*
X0182239Y0119324D02*
X0204784Y0119324D01*
X0205783Y0120323D02*
X0182157Y0120323D01*
X0181600Y0121321D02*
X0206781Y0121321D01*
X0207780Y0122320D02*
X0114419Y0122320D01*
X0113420Y0121321D02*
X0177699Y0121321D01*
X0177142Y0120323D02*
X0112422Y0120323D01*
X0111423Y0119324D02*
X0177061Y0119324D01*
X0176385Y0118326D02*
X0110425Y0118326D01*
X0109426Y0117327D02*
X0175387Y0117327D01*
X0174388Y0116329D02*
X0108428Y0116329D01*
X0107429Y0115330D02*
X0173390Y0115330D01*
X0172391Y0114332D02*
X0106431Y0114332D01*
X0105432Y0113333D02*
X0171393Y0113333D01*
X0170394Y0112335D02*
X0104434Y0112335D01*
X0103761Y0111336D02*
X0169396Y0111336D01*
X0168397Y0110338D02*
X0103761Y0110338D01*
X0103761Y0109339D02*
X0167399Y0109339D01*
X0166400Y0108341D02*
X0103761Y0108341D01*
X0103761Y0107342D02*
X0165402Y0107342D01*
X0164403Y0106344D02*
X0103761Y0106344D01*
X0103761Y0105345D02*
X0163405Y0105345D01*
X0162406Y0104347D02*
X0103761Y0104347D01*
X0103761Y0103348D02*
X0161408Y0103348D01*
X0160409Y0102350D02*
X0103761Y0102350D01*
X0103761Y0101351D02*
X0159411Y0101351D01*
X0158412Y0100353D02*
X0103761Y0100353D01*
X0103761Y0099354D02*
X0157414Y0099354D01*
X0156415Y0098356D02*
X0103761Y0098356D01*
X0103761Y0097357D02*
X0155417Y0097357D01*
X0154418Y0096359D02*
X0103761Y0096359D01*
X0103761Y0095360D02*
X0112628Y0095360D01*
X0113132Y0095568D02*
X0111636Y0094949D01*
X0110492Y0093805D01*
X0109872Y0092309D01*
X0109872Y0090691D01*
X0110492Y0089195D01*
X0111636Y0088051D01*
X0113132Y0087431D01*
X0114750Y0087431D01*
X0116246Y0088051D01*
X0117390Y0089195D01*
X0118009Y0090691D01*
X0118009Y0092309D01*
X0117390Y0093805D01*
X0116246Y0094949D01*
X0114750Y0095568D01*
X0113132Y0095568D01*
X0115253Y0095360D02*
X0137314Y0095360D01*
X0137331Y0095390D02*
X0137134Y0095047D01*
X0137031Y0094666D01*
X0137031Y0091984D01*
X0141016Y0091984D01*
X0141016Y0091016D01*
X0137031Y0091016D01*
X0137031Y0088334D01*
X0137134Y0087953D01*
X0137331Y0087610D01*
X0137610Y0087331D01*
X0137953Y0087134D01*
X0138334Y0087031D01*
X0141016Y0087031D01*
X0141016Y0091016D01*
X0141984Y0091016D01*
X0141984Y0087031D01*
X0144666Y0087031D01*
X0145047Y0087134D01*
X0145390Y0087331D01*
X0145669Y0087610D01*
X0145866Y0087953D01*
X0145968Y0088334D01*
X0145968Y0091016D01*
X0141984Y0091016D01*
X0141984Y0091984D01*
X0141016Y0091984D01*
X0141016Y0095968D01*
X0138334Y0095968D01*
X0137953Y0095866D01*
X0137610Y0095669D01*
X0137331Y0095390D01*
X0137031Y0094362D02*
X0116833Y0094362D01*
X0117573Y0093363D02*
X0137031Y0093363D01*
X0137031Y0092365D02*
X0117987Y0092365D01*
X0118009Y0091366D02*
X0141016Y0091366D01*
X0141984Y0091366D02*
X0149425Y0091366D01*
X0148427Y0090368D02*
X0145968Y0090368D01*
X0145968Y0089369D02*
X0147428Y0089369D01*
X0146430Y0088370D02*
X0145968Y0088370D01*
X0145430Y0087372D02*
X0145431Y0087372D01*
X0144433Y0086373D02*
X0103761Y0086373D01*
X0103761Y0085375D02*
X0143434Y0085375D01*
X0141984Y0087372D02*
X0141016Y0087372D01*
X0141016Y0088370D02*
X0141984Y0088370D01*
X0141984Y0089369D02*
X0141016Y0089369D01*
X0141016Y0090368D02*
X0141984Y0090368D01*
X0141984Y0091984D02*
X0145968Y0091984D01*
X0145968Y0094666D01*
X0145866Y0095047D01*
X0145669Y0095390D01*
X0145390Y0095669D01*
X0145047Y0095866D01*
X0144666Y0095968D01*
X0141984Y0095968D01*
X0141984Y0091984D01*
X0141984Y0092365D02*
X0141016Y0092365D01*
X0141016Y0093363D02*
X0141984Y0093363D01*
X0141984Y0094362D02*
X0141016Y0094362D01*
X0141016Y0095360D02*
X0141984Y0095360D01*
X0145686Y0095360D02*
X0153420Y0095360D01*
X0152421Y0094362D02*
X0145968Y0094362D01*
X0145968Y0093363D02*
X0151423Y0093363D01*
X0150424Y0092365D02*
X0145968Y0092365D01*
X0152387Y0090368D02*
X0159888Y0090368D01*
X0159754Y0090691D02*
X0160374Y0089195D01*
X0161518Y0088051D01*
X0163014Y0087431D01*
X0164632Y0087431D01*
X0166127Y0088051D01*
X0167272Y0089195D01*
X0167891Y0090691D01*
X0167891Y0092309D01*
X0167272Y0093805D01*
X0166127Y0094949D01*
X0164632Y0095568D01*
X0163014Y0095568D01*
X0161518Y0094949D01*
X0160374Y0093805D01*
X0159754Y0092309D01*
X0159754Y0090691D01*
X0159754Y0091366D02*
X0153385Y0091366D01*
X0154384Y0092365D02*
X0159777Y0092365D01*
X0160191Y0093363D02*
X0155382Y0093363D01*
X0156381Y0094362D02*
X0160931Y0094362D01*
X0162510Y0095360D02*
X0157379Y0095360D01*
X0165135Y0095360D02*
X0190069Y0095360D01*
X0188490Y0094362D02*
X0166715Y0094362D01*
X0167455Y0093363D02*
X0187750Y0093363D01*
X0187336Y0092365D02*
X0167868Y0092365D01*
X0167891Y0091366D02*
X0187313Y0091366D01*
X0187447Y0090368D02*
X0167757Y0090368D01*
X0167344Y0089369D02*
X0187861Y0089369D01*
X0188758Y0088370D02*
X0166447Y0088370D01*
X0161199Y0088370D02*
X0150390Y0088370D01*
X0151388Y0089369D02*
X0160302Y0089369D01*
X0137570Y0087372D02*
X0103761Y0087372D01*
X0103761Y0088370D02*
X0111317Y0088370D01*
X0110420Y0089369D02*
X0103761Y0089369D01*
X0103761Y0090368D02*
X0110006Y0090368D01*
X0109872Y0091366D02*
X0103761Y0091366D01*
X0103761Y0092365D02*
X0109895Y0092365D01*
X0110309Y0093363D02*
X0103761Y0093363D01*
X0103761Y0094362D02*
X0111049Y0094362D01*
X0117876Y0090368D02*
X0137031Y0090368D01*
X0137031Y0089369D02*
X0117462Y0089369D01*
X0116565Y0088370D02*
X0137031Y0088370D01*
X0113821Y0079384D02*
X0103761Y0079384D01*
X0103761Y0078385D02*
X0112823Y0078385D01*
X0111824Y0077387D02*
X0103761Y0077387D01*
X0103761Y0076388D02*
X0110826Y0076388D01*
X0109827Y0075390D02*
X0103761Y0075390D01*
X0103761Y0074391D02*
X0108829Y0074391D01*
X0107830Y0073393D02*
X0103912Y0073393D01*
X0104230Y0072394D02*
X0106832Y0072394D01*
X0105833Y0071396D02*
X0104230Y0071396D01*
X0103978Y0070397D02*
X0104835Y0070397D01*
X0103836Y0069399D02*
X0103499Y0069399D01*
X0102838Y0068400D02*
X0102500Y0068400D01*
X0101839Y0067402D02*
X0078716Y0067402D01*
X0078025Y0068400D02*
X0097822Y0068400D01*
X0096824Y0069399D02*
X0075940Y0069399D01*
X0076419Y0070397D02*
X0096345Y0070397D01*
X0096093Y0071396D02*
X0076671Y0071396D01*
X0076671Y0072394D02*
X0096093Y0072394D01*
X0096411Y0073393D02*
X0076353Y0073393D01*
X0075780Y0074391D02*
X0096561Y0074391D01*
X0096561Y0079384D02*
X0082061Y0079384D01*
X0106797Y0068400D02*
X0124818Y0068400D01*
X0124809Y0068407D02*
X0125378Y0067993D01*
X0126005Y0067674D01*
X0126674Y0067456D01*
X0127236Y0067367D01*
X0127236Y0071331D01*
X0123273Y0071331D01*
X0123362Y0070769D01*
X0123579Y0070100D01*
X0123899Y0069473D01*
X0124312Y0068904D01*
X0124809Y0068407D01*
X0123953Y0069399D02*
X0107796Y0069399D01*
X0108794Y0070397D02*
X0123483Y0070397D01*
X0123273Y0072299D02*
X0127236Y0072299D01*
X0127236Y0071331D01*
X0128205Y0071331D01*
X0128205Y0072299D01*
X0132168Y0072299D01*
X0132079Y0072861D01*
X0131862Y0073530D01*
X0131542Y0074157D01*
X0131129Y0074726D01*
X0130631Y0075223D01*
X0130062Y0075637D01*
X0129436Y0075956D01*
X0128767Y0076173D01*
X0128205Y0076262D01*
X0128205Y0072299D01*
X0127236Y0072299D01*
X0127236Y0076262D01*
X0126674Y0076173D01*
X0126005Y0075956D01*
X0125378Y0075637D01*
X0124809Y0075223D01*
X0124312Y0074726D01*
X0123899Y0074157D01*
X0123579Y0073530D01*
X0123362Y0072861D01*
X0123273Y0072299D01*
X0123288Y0072394D02*
X0110792Y0072394D01*
X0111790Y0073393D02*
X0123535Y0073393D01*
X0124069Y0074391D02*
X0112789Y0074391D01*
X0113787Y0075390D02*
X0125039Y0075390D01*
X0127236Y0075390D02*
X0128205Y0075390D01*
X0128205Y0074391D02*
X0127236Y0074391D01*
X0127236Y0073393D02*
X0128205Y0073393D01*
X0128205Y0072394D02*
X0127236Y0072394D01*
X0127236Y0071396D02*
X0109793Y0071396D01*
X0105799Y0067402D02*
X0127020Y0067402D01*
X0127236Y0067402D02*
X0128205Y0067402D01*
X0128205Y0067367D02*
X0128767Y0067456D01*
X0129436Y0067674D01*
X0130062Y0067993D01*
X0130631Y0068407D01*
X0131129Y0068904D01*
X0131542Y0069473D01*
X0131862Y0070100D01*
X0132079Y0070769D01*
X0132168Y0071331D01*
X0128205Y0071331D01*
X0128205Y0067367D01*
X0128421Y0067402D02*
X0179206Y0067402D01*
X0179029Y0066403D02*
X0104800Y0066403D01*
X0103802Y0065405D02*
X0179253Y0065405D01*
X0175263Y0068400D02*
X0130623Y0068400D01*
X0131488Y0069399D02*
X0174265Y0069399D01*
X0173786Y0070397D02*
X0131958Y0070397D01*
X0132153Y0072394D02*
X0170055Y0072394D01*
X0169363Y0073393D02*
X0131906Y0073393D01*
X0131372Y0074391D02*
X0169187Y0074391D01*
X0169410Y0075390D02*
X0130402Y0075390D01*
X0128205Y0071396D02*
X0173534Y0071396D01*
X0173497Y0072394D02*
X0173534Y0072394D01*
X0170168Y0076388D02*
X0114786Y0076388D01*
X0127236Y0070397D02*
X0128205Y0070397D01*
X0128205Y0069399D02*
X0127236Y0069399D01*
X0127236Y0068400D02*
X0128205Y0068400D01*
X0078046Y0055420D02*
X0044604Y0055420D01*
X0043606Y0054421D02*
X0077048Y0054421D01*
X0076049Y0053423D02*
X0042607Y0053423D01*
X0041609Y0052424D02*
X0075050Y0052424D01*
X0074052Y0051426D02*
X0040610Y0051426D01*
X0039612Y0050427D02*
X0073053Y0050427D01*
X0072055Y0049429D02*
X0038613Y0049429D01*
X0037615Y0048430D02*
X0071056Y0048430D01*
X0070058Y0047432D02*
X0036616Y0047432D01*
X0035618Y0046433D02*
X0069059Y0046433D01*
X0068061Y0045434D02*
X0034619Y0045434D01*
X0033621Y0044436D02*
X0067062Y0044436D01*
X0066064Y0043437D02*
X0032622Y0043437D01*
X0031624Y0042439D02*
X0037316Y0042439D01*
X0038519Y0042439D02*
X0058969Y0042439D01*
X0060172Y0042439D02*
X0065065Y0042439D01*
X0064067Y0041440D02*
X0061678Y0041440D01*
X0062143Y0040442D02*
X0063068Y0040442D01*
X0057464Y0041440D02*
X0040024Y0041440D01*
X0040123Y0038445D02*
X0057365Y0038445D01*
X0058695Y0037446D02*
X0038793Y0037446D01*
X0037041Y0037446D02*
X0028245Y0037446D01*
X0029243Y0038445D02*
X0035712Y0038445D01*
X0035328Y0039443D02*
X0030242Y0039443D01*
X0030600Y0040442D02*
X0035345Y0040442D01*
X0035811Y0041440D02*
X0030625Y0041440D01*
X0023757Y0038445D02*
X0023622Y0038445D01*
X0024620Y0037446D02*
X0024755Y0037446D01*
X0025619Y0036448D02*
X0052857Y0036448D01*
X0054473Y0036448D02*
X0059074Y0036448D01*
X0058076Y0035449D02*
X0055858Y0035449D01*
X0056254Y0034451D02*
X0057077Y0034451D01*
X0051473Y0035449D02*
X0026617Y0035449D01*
X0023684Y0032454D02*
X0011758Y0032454D01*
X0011758Y0033452D02*
X0022686Y0033452D01*
X0021687Y0034451D02*
X0011758Y0034451D01*
X0011758Y0035449D02*
X0020689Y0035449D01*
X0019690Y0036448D02*
X0011758Y0036448D01*
X0011758Y0037446D02*
X0014755Y0037446D01*
X0013757Y0038445D02*
X0011758Y0038445D01*
X0011758Y0039443D02*
X0012758Y0039443D01*
X0012400Y0040442D02*
X0011758Y0040442D01*
X0011758Y0041440D02*
X0012400Y0041440D01*
X0012400Y0042439D02*
X0011758Y0042439D01*
X0011758Y0043437D02*
X0012639Y0043437D01*
X0011758Y0044436D02*
X0013638Y0044436D01*
X0014636Y0045434D02*
X0011758Y0045434D01*
X0011758Y0046433D02*
X0019548Y0046433D01*
X0020218Y0045434D02*
X0018364Y0045434D01*
X0019362Y0044436D02*
X0020218Y0044436D01*
X0018549Y0047432D02*
X0018230Y0047432D01*
X0014770Y0047432D02*
X0011758Y0047432D01*
X0011758Y0048430D02*
X0013772Y0048430D01*
X0012773Y0049429D02*
X0011758Y0049429D01*
X0011758Y0050427D02*
X0012400Y0050427D01*
X0012400Y0051426D02*
X0011758Y0051426D01*
X0011758Y0052424D02*
X0012400Y0052424D01*
X0012624Y0053423D02*
X0011758Y0053423D01*
X0011758Y0054421D02*
X0013623Y0054421D01*
X0008958Y0054421D02*
X0006000Y0054421D01*
X0006000Y0053423D02*
X0008958Y0053423D01*
X0008958Y0052424D02*
X0006000Y0052424D01*
X0006000Y0051426D02*
X0008958Y0051426D01*
X0008958Y0050427D02*
X0006000Y0050427D01*
X0006000Y0049429D02*
X0008958Y0049429D01*
X0008958Y0048430D02*
X0006000Y0048430D01*
X0006000Y0047432D02*
X0008958Y0047432D01*
X0008958Y0046433D02*
X0006000Y0046433D01*
X0006000Y0045434D02*
X0008958Y0045434D01*
X0008958Y0044436D02*
X0006000Y0044436D01*
X0006000Y0043437D02*
X0008958Y0043437D01*
X0008958Y0042439D02*
X0006000Y0042439D01*
X0006000Y0041440D02*
X0008958Y0041440D01*
X0008958Y0040442D02*
X0006000Y0040442D01*
X0006000Y0039443D02*
X0008958Y0039443D01*
X0008958Y0038445D02*
X0006000Y0038445D01*
X0006000Y0037446D02*
X0008958Y0037446D01*
X0008958Y0036448D02*
X0006000Y0036448D01*
X0006000Y0035449D02*
X0008958Y0035449D01*
X0008958Y0034451D02*
X0006000Y0034451D01*
X0006000Y0033452D02*
X0008958Y0033452D01*
X0008958Y0032454D02*
X0006000Y0032454D01*
X0006000Y0031455D02*
X0008958Y0031455D01*
X0008958Y0030457D02*
X0006000Y0030457D01*
X0006000Y0029458D02*
X0008958Y0029458D01*
X0008958Y0028460D02*
X0006000Y0028460D01*
X0006000Y0027461D02*
X0008992Y0027461D01*
X0006000Y0026463D02*
X0031644Y0026463D01*
X0032642Y0025464D02*
X0006000Y0025464D01*
X0006000Y0024466D02*
X0033641Y0024466D01*
X0034639Y0023467D02*
X0006000Y0023467D01*
X0006000Y0022469D02*
X0035638Y0022469D01*
X0036636Y0021470D02*
X0006000Y0021470D01*
X0006000Y0020472D02*
X0037635Y0020472D01*
X0038634Y0019473D02*
X0006000Y0019473D01*
X0006000Y0018475D02*
X0039632Y0018475D01*
X0040631Y0017476D02*
X0006000Y0017476D01*
X0006000Y0016478D02*
X0041629Y0016478D01*
X0042628Y0015479D02*
X0006000Y0015479D01*
X0006000Y0014481D02*
X0043626Y0014481D01*
X0044625Y0013482D02*
X0006000Y0013482D01*
X0006000Y0012484D02*
X0045623Y0012484D01*
X0046622Y0011485D02*
X0006000Y0011485D01*
X0006000Y0010487D02*
X0047620Y0010487D01*
X0048619Y0009488D02*
X0006000Y0009488D01*
X0006000Y0008490D02*
X0138200Y0008490D01*
X0137201Y0009488D02*
X0105956Y0009488D01*
X0106955Y0010487D02*
X0136203Y0010487D01*
X0135204Y0011485D02*
X0107953Y0011485D01*
X0108952Y0012484D02*
X0109718Y0012484D01*
X0113282Y0012484D02*
X0119718Y0012484D01*
X0119802Y0012400D02*
X0123198Y0012400D01*
X0125600Y0014802D01*
X0125600Y0018198D01*
X0123198Y0020600D01*
X0119802Y0020600D01*
X0117400Y0018198D01*
X0117400Y0014802D01*
X0119802Y0012400D01*
X0118720Y0013482D02*
X0114280Y0013482D01*
X0115279Y0014481D02*
X0117721Y0014481D01*
X0117400Y0015479D02*
X0115600Y0015479D01*
X0115623Y0016478D02*
X0117400Y0016478D01*
X0117400Y0017476D02*
X0116621Y0017476D01*
X0117620Y0018475D02*
X0117676Y0018475D01*
X0118618Y0019473D02*
X0118675Y0019473D01*
X0119617Y0020472D02*
X0119673Y0020472D01*
X0123327Y0020472D02*
X0129673Y0020472D01*
X0128675Y0019473D02*
X0124325Y0019473D01*
X0125324Y0018475D02*
X0127676Y0018475D01*
X0127400Y0017476D02*
X0125600Y0017476D01*
X0125600Y0016478D02*
X0127400Y0016478D01*
X0127400Y0015479D02*
X0125600Y0015479D01*
X0125279Y0014481D02*
X0127721Y0014481D01*
X0128720Y0013482D02*
X0124280Y0013482D01*
X0123282Y0012484D02*
X0129718Y0012484D01*
X0133282Y0012484D02*
X0134206Y0012484D01*
X0136169Y0014481D02*
X0137721Y0014481D01*
X0137400Y0015479D02*
X0135600Y0015479D01*
X0135600Y0016478D02*
X0137400Y0016478D01*
X0137400Y0017476D02*
X0135600Y0017476D01*
X0135324Y0018475D02*
X0137676Y0018475D01*
X0138675Y0019473D02*
X0134325Y0019473D01*
X0133327Y0020472D02*
X0139673Y0020472D01*
X0139802Y0022400D02*
X0143198Y0022400D01*
X0145600Y0024802D01*
X0145600Y0028198D01*
X0143198Y0030600D01*
X0139802Y0030600D01*
X0137400Y0028198D01*
X0137400Y0024802D01*
X0139802Y0022400D01*
X0139733Y0022469D02*
X0133267Y0022469D01*
X0134266Y0023467D02*
X0138734Y0023467D01*
X0137736Y0024466D02*
X0135264Y0024466D01*
X0135600Y0025464D02*
X0137400Y0025464D01*
X0137400Y0026463D02*
X0135600Y0026463D01*
X0135600Y0027461D02*
X0137400Y0027461D01*
X0137662Y0028460D02*
X0135338Y0028460D01*
X0134340Y0029458D02*
X0138660Y0029458D01*
X0139659Y0030457D02*
X0133341Y0030457D01*
X0130841Y0033412D02*
X0125881Y0028451D01*
X0125600Y0028170D01*
X0125600Y0028198D01*
X0123198Y0030600D01*
X0121163Y0030600D01*
X0129851Y0039288D01*
X0130211Y0038419D01*
X0130939Y0037691D01*
X0131891Y0037297D01*
X0132920Y0037297D01*
X0133872Y0037691D01*
X0134600Y0038419D01*
X0134628Y0038486D01*
X0204600Y0038486D01*
X0203774Y0038144D01*
X0203045Y0037415D01*
X0202651Y0036464D01*
X0202651Y0035434D01*
X0203045Y0034482D01*
X0203132Y0034396D01*
X0197770Y0034396D01*
X0196950Y0033576D01*
X0193586Y0030212D01*
X0193198Y0030600D01*
X0189802Y0030600D01*
X0187400Y0028198D01*
X0187400Y0024802D01*
X0188632Y0023569D01*
X0185999Y0023569D01*
X0185179Y0022749D01*
X0185179Y0018620D01*
X0183198Y0020600D01*
X0179802Y0020600D01*
X0177400Y0018198D01*
X0177400Y0014802D01*
X0179802Y0012400D01*
X0183198Y0012400D01*
X0185179Y0014380D01*
X0185179Y0013930D01*
X0183007Y0011758D01*
X0158576Y0011758D01*
X0155566Y0014768D01*
X0155600Y0014802D01*
X0155600Y0018198D01*
X0154013Y0019785D01*
X0156607Y0019785D01*
X0157428Y0020605D01*
X0159512Y0022690D01*
X0159802Y0022400D01*
X0163198Y0022400D01*
X0165600Y0024802D01*
X0165600Y0028198D01*
X0163198Y0030600D01*
X0163166Y0030600D01*
X0163538Y0031497D01*
X0163538Y0032527D01*
X0163144Y0033478D01*
X0162415Y0034207D01*
X0161464Y0034601D01*
X0160434Y0034601D01*
X0159482Y0034207D01*
X0158754Y0033478D01*
X0158726Y0033412D01*
X0130841Y0033412D01*
X0129883Y0032454D02*
X0123016Y0032454D01*
X0122018Y0031455D02*
X0128885Y0031455D01*
X0127886Y0030457D02*
X0123341Y0030457D01*
X0124340Y0029458D02*
X0126888Y0029458D01*
X0125889Y0028460D02*
X0125338Y0028460D01*
X0124015Y0033452D02*
X0158743Y0033452D01*
X0160072Y0034451D02*
X0125013Y0034451D01*
X0126012Y0035449D02*
X0202651Y0035449D01*
X0202651Y0036448D02*
X0127010Y0036448D01*
X0128009Y0037446D02*
X0131529Y0037446D01*
X0130200Y0038445D02*
X0129007Y0038445D01*
X0133282Y0037446D02*
X0203076Y0037446D01*
X0204501Y0038445D02*
X0134611Y0038445D01*
X0143341Y0030457D02*
X0149659Y0030457D01*
X0148660Y0029458D02*
X0144340Y0029458D01*
X0145338Y0028460D02*
X0147662Y0028460D01*
X0147400Y0027461D02*
X0145600Y0027461D01*
X0145600Y0026463D02*
X0147400Y0026463D01*
X0147400Y0025464D02*
X0145600Y0025464D01*
X0145264Y0024466D02*
X0147736Y0024466D01*
X0148734Y0023467D02*
X0144266Y0023467D01*
X0143267Y0022469D02*
X0149426Y0022469D01*
X0148427Y0021470D02*
X0127741Y0021470D01*
X0127861Y0022469D02*
X0129733Y0022469D01*
X0128734Y0023467D02*
X0127861Y0023467D01*
X0143327Y0020472D02*
X0147429Y0020472D01*
X0146430Y0019473D02*
X0144325Y0019473D01*
X0145324Y0018475D02*
X0145432Y0018475D01*
X0154325Y0019473D02*
X0158675Y0019473D01*
X0157676Y0018475D02*
X0155324Y0018475D01*
X0155600Y0017476D02*
X0157400Y0017476D01*
X0157400Y0018198D02*
X0157400Y0014802D01*
X0159802Y0012400D01*
X0163198Y0012400D01*
X0165600Y0014802D01*
X0165600Y0018198D01*
X0163198Y0020600D01*
X0159802Y0020600D01*
X0157400Y0018198D01*
X0157400Y0016478D02*
X0155600Y0016478D01*
X0155600Y0015479D02*
X0157400Y0015479D01*
X0157721Y0014481D02*
X0155854Y0014481D01*
X0156852Y0013482D02*
X0158720Y0013482D01*
X0157851Y0012484D02*
X0159718Y0012484D01*
X0163282Y0012484D02*
X0169718Y0012484D01*
X0169802Y0012400D02*
X0173198Y0012400D01*
X0175600Y0014802D01*
X0175600Y0018198D01*
X0173198Y0020600D01*
X0169802Y0020600D01*
X0167400Y0018198D01*
X0167400Y0014802D01*
X0169802Y0012400D01*
X0168720Y0013482D02*
X0164280Y0013482D01*
X0165279Y0014481D02*
X0167721Y0014481D01*
X0167400Y0015479D02*
X0165600Y0015479D01*
X0165600Y0016478D02*
X0167400Y0016478D01*
X0167400Y0017476D02*
X0165600Y0017476D01*
X0165324Y0018475D02*
X0167676Y0018475D01*
X0168675Y0019473D02*
X0164325Y0019473D01*
X0163327Y0020472D02*
X0169673Y0020472D01*
X0169802Y0022400D02*
X0173198Y0022400D01*
X0175600Y0024802D01*
X0175600Y0028198D01*
X0173198Y0030600D01*
X0169802Y0030600D01*
X0167400Y0028198D01*
X0167400Y0024802D01*
X0169802Y0022400D01*
X0169733Y0022469D02*
X0163267Y0022469D01*
X0164266Y0023467D02*
X0168734Y0023467D01*
X0167736Y0024466D02*
X0165264Y0024466D01*
X0165600Y0025464D02*
X0167400Y0025464D01*
X0167400Y0026463D02*
X0165600Y0026463D01*
X0165600Y0027461D02*
X0167400Y0027461D01*
X0167662Y0028460D02*
X0165338Y0028460D01*
X0164340Y0029458D02*
X0168660Y0029458D01*
X0169659Y0030457D02*
X0163341Y0030457D01*
X0163521Y0031455D02*
X0194830Y0031455D01*
X0193831Y0030457D02*
X0193341Y0030457D01*
X0195828Y0032454D02*
X0163538Y0032454D01*
X0163154Y0033452D02*
X0196827Y0033452D01*
X0203077Y0034451D02*
X0161826Y0034451D01*
X0158842Y0030457D02*
X0153341Y0030457D01*
X0154340Y0029458D02*
X0158660Y0029458D01*
X0157662Y0028460D02*
X0155338Y0028460D01*
X0155600Y0027461D02*
X0157400Y0027461D01*
X0157400Y0026463D02*
X0155600Y0026463D01*
X0155600Y0025464D02*
X0157400Y0025464D01*
X0157328Y0024466D02*
X0155264Y0024466D01*
X0154266Y0023467D02*
X0156330Y0023467D01*
X0158293Y0021470D02*
X0185179Y0021470D01*
X0185179Y0020472D02*
X0183327Y0020472D01*
X0184325Y0019473D02*
X0185179Y0019473D01*
X0187979Y0019473D02*
X0188675Y0019473D01*
X0187979Y0018777D02*
X0187979Y0020769D01*
X0203852Y0020769D01*
X0207316Y0024234D01*
X0207359Y0024277D01*
X0209636Y0022000D01*
X0211000Y0022000D01*
X0211000Y0026000D01*
X0212000Y0026000D01*
X0212000Y0027000D01*
X0211000Y0027000D01*
X0211000Y0031000D01*
X0209636Y0031000D01*
X0208136Y0029500D01*
X0208136Y0029975D01*
X0209757Y0031596D01*
X0410809Y0031596D01*
X0410722Y0031510D01*
X0410695Y0031443D01*
X0292259Y0031443D01*
X0291439Y0030623D01*
X0272574Y0011758D01*
X0198930Y0011758D01*
X0195600Y0015089D01*
X0195600Y0018198D01*
X0193198Y0020600D01*
X0189802Y0020600D01*
X0187979Y0018777D01*
X0187979Y0020472D02*
X0189673Y0020472D01*
X0193327Y0020472D02*
X0199673Y0020472D01*
X0199802Y0020600D02*
X0197400Y0018198D01*
X0197400Y0014802D01*
X0199802Y0012400D01*
X0203198Y0012400D01*
X0205600Y0014802D01*
X0205600Y0018198D01*
X0203198Y0020600D01*
X0199802Y0020600D01*
X0198675Y0019473D02*
X0194325Y0019473D01*
X0195324Y0018475D02*
X0197676Y0018475D01*
X0197400Y0017476D02*
X0195600Y0017476D01*
X0195600Y0016478D02*
X0197400Y0016478D01*
X0197400Y0015479D02*
X0195600Y0015479D01*
X0196208Y0014481D02*
X0197721Y0014481D01*
X0197206Y0013482D02*
X0198720Y0013482D01*
X0198205Y0012484D02*
X0199718Y0012484D01*
X0203282Y0012484D02*
X0209152Y0012484D01*
X0209636Y0012000D02*
X0211000Y0012000D01*
X0211000Y0016000D01*
X0212000Y0016000D01*
X0212000Y0017000D01*
X0216000Y0017000D01*
X0216000Y0018364D01*
X0213364Y0021000D01*
X0212000Y0021000D01*
X0212000Y0017000D01*
X0211000Y0017000D01*
X0211000Y0021000D01*
X0209636Y0021000D01*
X0207000Y0018364D01*
X0207000Y0017000D01*
X0211000Y0017000D01*
X0211000Y0016000D01*
X0207000Y0016000D01*
X0207000Y0014636D01*
X0209636Y0012000D01*
X0211000Y0012484D02*
X0212000Y0012484D01*
X0212000Y0012000D02*
X0213364Y0012000D01*
X0216000Y0014636D01*
X0216000Y0016000D01*
X0212000Y0016000D01*
X0212000Y0012000D01*
X0212000Y0013482D02*
X0211000Y0013482D01*
X0211000Y0014481D02*
X0212000Y0014481D01*
X0212000Y0015479D02*
X0211000Y0015479D01*
X0211000Y0016478D02*
X0205600Y0016478D01*
X0205600Y0017476D02*
X0207000Y0017476D01*
X0207111Y0018475D02*
X0205324Y0018475D01*
X0204325Y0019473D02*
X0208109Y0019473D01*
X0209108Y0020472D02*
X0203327Y0020472D01*
X0204552Y0021470D02*
X0220572Y0021470D01*
X0220572Y0020600D02*
X0219802Y0020600D01*
X0217400Y0018198D01*
X0217400Y0014802D01*
X0219802Y0012400D01*
X0223198Y0012400D01*
X0225600Y0014802D01*
X0225600Y0018198D01*
X0223372Y0020426D01*
X0223372Y0022574D01*
X0225600Y0024802D01*
X0225600Y0028198D01*
X0223198Y0030600D01*
X0219802Y0030600D01*
X0217400Y0028198D01*
X0217400Y0024802D01*
X0219802Y0022400D01*
X0220572Y0022400D01*
X0220572Y0020600D01*
X0219673Y0020472D02*
X0213892Y0020472D01*
X0214891Y0019473D02*
X0218675Y0019473D01*
X0217676Y0018475D02*
X0215889Y0018475D01*
X0216000Y0017476D02*
X0217400Y0017476D01*
X0217400Y0016478D02*
X0212000Y0016478D01*
X0212000Y0017476D02*
X0211000Y0017476D01*
X0211000Y0018475D02*
X0212000Y0018475D01*
X0212000Y0019473D02*
X0211000Y0019473D01*
X0211000Y0020472D02*
X0212000Y0020472D01*
X0212000Y0022000D02*
X0213364Y0022000D01*
X0216000Y0024636D01*
X0216000Y0026000D01*
X0212000Y0026000D01*
X0212000Y0022000D01*
X0212000Y0022469D02*
X0211000Y0022469D01*
X0211000Y0023467D02*
X0212000Y0023467D01*
X0212000Y0024466D02*
X0211000Y0024466D01*
X0211000Y0025464D02*
X0212000Y0025464D01*
X0212000Y0026463D02*
X0217400Y0026463D01*
X0217400Y0027461D02*
X0216000Y0027461D01*
X0216000Y0027000D02*
X0216000Y0028364D01*
X0213364Y0031000D01*
X0212000Y0031000D01*
X0212000Y0027000D01*
X0216000Y0027000D01*
X0215904Y0028460D02*
X0217662Y0028460D01*
X0218660Y0029458D02*
X0214906Y0029458D01*
X0213907Y0030457D02*
X0219659Y0030457D01*
X0223341Y0030457D02*
X0229093Y0030457D01*
X0229636Y0031000D02*
X0227000Y0028364D01*
X0227000Y0027000D01*
X0231000Y0027000D01*
X0231000Y0031000D01*
X0229636Y0031000D01*
X0231000Y0030457D02*
X0232000Y0030457D01*
X0232000Y0031000D02*
X0233364Y0031000D01*
X0236000Y0028364D01*
X0236000Y0027000D01*
X0232000Y0027000D01*
X0232000Y0026000D01*
X0236000Y0026000D01*
X0236000Y0024636D01*
X0233364Y0022000D01*
X0232000Y0022000D01*
X0232000Y0026000D01*
X0231000Y0026000D01*
X0231000Y0022000D01*
X0229636Y0022000D01*
X0227000Y0024636D01*
X0227000Y0026000D01*
X0231000Y0026000D01*
X0231000Y0027000D01*
X0232000Y0027000D01*
X0232000Y0031000D01*
X0232000Y0029458D02*
X0231000Y0029458D01*
X0231000Y0028460D02*
X0232000Y0028460D01*
X0232000Y0027461D02*
X0231000Y0027461D01*
X0231000Y0026463D02*
X0225600Y0026463D01*
X0225600Y0027461D02*
X0227000Y0027461D01*
X0227096Y0028460D02*
X0225338Y0028460D01*
X0224340Y0029458D02*
X0228094Y0029458D01*
X0232000Y0026463D02*
X0237400Y0026463D01*
X0237400Y0027461D02*
X0236000Y0027461D01*
X0235904Y0028460D02*
X0237662Y0028460D01*
X0237400Y0028198D02*
X0237400Y0024802D01*
X0239802Y0022400D01*
X0240257Y0022400D01*
X0240257Y0020600D01*
X0239802Y0020600D01*
X0237400Y0018198D01*
X0237400Y0014802D01*
X0239802Y0012400D01*
X0243198Y0012400D01*
X0245600Y0014802D01*
X0245600Y0018198D01*
X0243198Y0020600D01*
X0243057Y0020600D01*
X0243057Y0022400D01*
X0243198Y0022400D01*
X0245600Y0024802D01*
X0245600Y0028198D01*
X0243198Y0030600D01*
X0239802Y0030600D01*
X0237400Y0028198D01*
X0238660Y0029458D02*
X0234906Y0029458D01*
X0233907Y0030457D02*
X0239659Y0030457D01*
X0243341Y0030457D02*
X0291272Y0030457D01*
X0290274Y0029458D02*
X0244340Y0029458D01*
X0245338Y0028460D02*
X0289275Y0028460D01*
X0288277Y0027461D02*
X0245600Y0027461D01*
X0245600Y0026463D02*
X0287278Y0026463D01*
X0286280Y0025464D02*
X0245600Y0025464D01*
X0245264Y0024466D02*
X0285281Y0024466D01*
X0284283Y0023467D02*
X0244266Y0023467D01*
X0243267Y0022469D02*
X0283284Y0022469D01*
X0282286Y0021470D02*
X0243057Y0021470D01*
X0243327Y0020472D02*
X0281287Y0020472D01*
X0280289Y0019473D02*
X0244325Y0019473D01*
X0245324Y0018475D02*
X0279290Y0018475D01*
X0278292Y0017476D02*
X0245600Y0017476D01*
X0245600Y0016478D02*
X0277293Y0016478D01*
X0276295Y0015479D02*
X0245600Y0015479D01*
X0245279Y0014481D02*
X0275296Y0014481D01*
X0274298Y0013482D02*
X0244280Y0013482D01*
X0243282Y0012484D02*
X0273299Y0012484D01*
X0279199Y0010487D02*
X0319777Y0010487D01*
X0319924Y0009488D02*
X0278200Y0009488D01*
X0277202Y0008490D02*
X0320573Y0008490D01*
X0320031Y0011485D02*
X0280197Y0011485D01*
X0281196Y0012484D02*
X0320830Y0012484D01*
X0323510Y0013482D02*
X0282194Y0013482D01*
X0283193Y0014481D02*
X0324509Y0014481D01*
X0326471Y0012484D02*
X0457354Y0012484D01*
X0459317Y0010487D02*
X0508811Y0010487D01*
X0508811Y0011485D02*
X0460315Y0011485D01*
X0461314Y0012484D02*
X0508811Y0012484D01*
X0508811Y0013482D02*
X0462312Y0013482D01*
X0463311Y0014481D02*
X0508811Y0014481D01*
X0508811Y0015479D02*
X0464309Y0015479D01*
X0465308Y0016478D02*
X0508811Y0016478D01*
X0508811Y0017476D02*
X0466306Y0017476D01*
X0467305Y0018475D02*
X0508811Y0018475D01*
X0508811Y0019473D02*
X0468303Y0019473D01*
X0469302Y0020472D02*
X0508811Y0020472D01*
X0508811Y0021470D02*
X0470301Y0021470D01*
X0471299Y0022469D02*
X0508811Y0022469D01*
X0508811Y0023467D02*
X0472298Y0023467D01*
X0473296Y0024466D02*
X0508811Y0024466D01*
X0508811Y0025464D02*
X0474295Y0025464D01*
X0475293Y0026463D02*
X0508811Y0026463D01*
X0508811Y0027461D02*
X0476292Y0027461D01*
X0477290Y0028460D02*
X0508811Y0028460D01*
X0508811Y0029458D02*
X0478289Y0029458D01*
X0479287Y0030457D02*
X0508811Y0030457D01*
X0508811Y0031455D02*
X0480286Y0031455D01*
X0481284Y0032454D02*
X0508811Y0032454D01*
X0508811Y0033452D02*
X0482283Y0033452D01*
X0483281Y0034451D02*
X0508811Y0034451D01*
X0508811Y0035449D02*
X0484280Y0035449D01*
X0485278Y0036448D02*
X0508811Y0036448D01*
X0508811Y0037446D02*
X0486277Y0037446D01*
X0487275Y0038445D02*
X0508811Y0038445D01*
X0508811Y0039443D02*
X0488274Y0039443D01*
X0489272Y0040442D02*
X0508811Y0040442D01*
X0508811Y0041440D02*
X0490271Y0041440D01*
X0491269Y0042439D02*
X0508811Y0042439D01*
X0508811Y0043437D02*
X0492268Y0043437D01*
X0493266Y0044436D02*
X0508811Y0044436D01*
X0508811Y0045434D02*
X0494265Y0045434D01*
X0495263Y0046433D02*
X0508811Y0046433D01*
X0508811Y0047432D02*
X0496262Y0047432D01*
X0497260Y0048430D02*
X0508811Y0048430D01*
X0508811Y0049429D02*
X0498259Y0049429D01*
X0499257Y0050427D02*
X0508811Y0050427D01*
X0508811Y0051426D02*
X0500256Y0051426D01*
X0501254Y0052424D02*
X0508811Y0052424D01*
X0508811Y0053423D02*
X0502253Y0053423D01*
X0503251Y0054421D02*
X0508811Y0054421D01*
X0508811Y0055420D02*
X0504250Y0055420D01*
X0505248Y0056418D02*
X0508811Y0056418D01*
X0508811Y0057417D02*
X0505853Y0057417D01*
X0505853Y0058415D02*
X0508811Y0058415D01*
X0508811Y0059414D02*
X0505853Y0059414D01*
X0505853Y0060412D02*
X0508811Y0060412D01*
X0508811Y0061411D02*
X0505853Y0061411D01*
X0505853Y0062409D02*
X0508811Y0062409D01*
X0508811Y0063408D02*
X0505853Y0063408D01*
X0505853Y0064406D02*
X0508811Y0064406D01*
X0508811Y0065405D02*
X0505853Y0065405D01*
X0505853Y0066403D02*
X0508811Y0066403D01*
X0508811Y0067402D02*
X0505853Y0067402D01*
X0505853Y0068400D02*
X0508811Y0068400D01*
X0508811Y0069399D02*
X0505853Y0069399D01*
X0505853Y0070397D02*
X0508811Y0070397D01*
X0508811Y0071396D02*
X0505853Y0071396D01*
X0505420Y0072394D02*
X0508811Y0072394D01*
X0508811Y0073393D02*
X0500405Y0073393D01*
X0499407Y0074391D02*
X0508811Y0074391D01*
X0508811Y0075390D02*
X0498408Y0075390D01*
X0494592Y0075390D02*
X0493018Y0075390D01*
X0493018Y0076388D02*
X0508811Y0076388D01*
X0508811Y0077387D02*
X0493018Y0077387D01*
X0493018Y0078385D02*
X0493816Y0078385D01*
X0499184Y0078385D02*
X0508811Y0078385D01*
X0508811Y0079384D02*
X0500182Y0079384D01*
X0500600Y0080382D02*
X0508811Y0080382D01*
X0508811Y0081381D02*
X0500600Y0081381D01*
X0500600Y0082379D02*
X0508811Y0082379D01*
X0508811Y0083378D02*
X0500420Y0083378D01*
X0499422Y0084376D02*
X0508811Y0084376D01*
X0508811Y0085375D02*
X0498423Y0085375D01*
X0494577Y0085375D02*
X0493018Y0085375D01*
X0493018Y0086373D02*
X0508811Y0086373D01*
X0493578Y0084376D02*
X0493018Y0084376D01*
X0490218Y0084376D02*
X0489422Y0084376D01*
X0490218Y0085375D02*
X0488423Y0085375D01*
X0490218Y0086373D02*
X0482231Y0086373D01*
X0482231Y0085375D02*
X0484577Y0085375D01*
X0483578Y0084376D02*
X0482231Y0084376D01*
X0482231Y0083378D02*
X0482580Y0083378D01*
X0470144Y0083378D02*
X0447563Y0083378D01*
X0448561Y0084376D02*
X0470144Y0084376D01*
X0470144Y0085375D02*
X0449560Y0085375D01*
X0449737Y0085553D02*
X0449804Y0085525D01*
X0450834Y0085525D01*
X0451785Y0085919D01*
X0452514Y0086648D01*
X0452761Y0087244D01*
X0452953Y0087134D01*
X0453334Y0087031D01*
X0456016Y0087031D01*
X0456016Y0091016D01*
X0452031Y0091016D01*
X0452031Y0090063D01*
X0451785Y0090309D01*
X0450834Y0090703D01*
X0449804Y0090703D01*
X0448852Y0090309D01*
X0448124Y0089581D01*
X0447730Y0088629D01*
X0447730Y0087599D01*
X0447757Y0087533D01*
X0419409Y0059184D01*
X0419049Y0060053D01*
X0418321Y0060781D01*
X0417369Y0061176D01*
X0416339Y0061176D01*
X0415388Y0060781D01*
X0414659Y0060053D01*
X0414265Y0059102D01*
X0414265Y0058072D01*
X0414293Y0058005D01*
X0408400Y0052113D01*
X0391404Y0052113D01*
X0391490Y0052199D01*
X0391884Y0053150D01*
X0391884Y0054180D01*
X0391490Y0055132D01*
X0390762Y0055860D01*
X0389810Y0056254D01*
X0388780Y0056254D01*
X0387829Y0055860D01*
X0387100Y0055132D01*
X0387073Y0055065D01*
X0302124Y0055065D01*
X0303084Y0056025D01*
X0303150Y0055998D01*
X0304180Y0055998D01*
X0305132Y0056392D01*
X0305860Y0057120D01*
X0306254Y0058072D01*
X0306254Y0059102D01*
X0305860Y0060053D01*
X0305774Y0060139D01*
X0376096Y0060139D01*
X0376916Y0060959D01*
X0379855Y0063899D01*
X0379922Y0063872D01*
X0380952Y0063872D01*
X0381904Y0064266D01*
X0382632Y0064994D01*
X0383026Y0065946D01*
X0383026Y0066976D01*
X0382632Y0067927D01*
X0381904Y0068655D01*
X0380952Y0069050D01*
X0379922Y0069050D01*
X0378970Y0068655D01*
X0378469Y0068153D01*
X0377967Y0068655D01*
X0377015Y0069050D01*
X0375985Y0069050D01*
X0375033Y0068655D01*
X0374531Y0068153D01*
X0374030Y0068655D01*
X0373078Y0069050D01*
X0372048Y0069050D01*
X0371096Y0068655D01*
X0370368Y0067927D01*
X0369974Y0066976D01*
X0369974Y0066876D01*
X0276246Y0066876D01*
X0276333Y0066963D01*
X0276727Y0067914D01*
X0276727Y0068944D01*
X0276333Y0069896D01*
X0275604Y0070624D01*
X0274653Y0071018D01*
X0273623Y0071018D01*
X0273556Y0070991D01*
X0264875Y0079672D01*
X0230251Y0079672D01*
X0229431Y0078852D01*
X0219424Y0068845D01*
X0207945Y0068845D01*
X0208611Y0069510D01*
X0209230Y0071006D01*
X0209230Y0072624D01*
X0208761Y0073755D01*
X0208761Y0113119D01*
X0218385Y0122743D01*
X0311470Y0122743D01*
X0307109Y0118382D01*
X0306561Y0117059D01*
X0306561Y0073755D01*
X0306093Y0072624D01*
X0306093Y0071006D01*
X0306712Y0069510D01*
X0307857Y0068366D01*
X0309352Y0067746D01*
X0310971Y0067746D01*
X0312466Y0068366D01*
X0313611Y0069510D01*
X0314230Y0071006D01*
X0314230Y0072624D01*
X0313761Y0073755D01*
X0313761Y0114851D01*
X0321653Y0122743D01*
X0415840Y0122743D01*
X0412109Y0119012D01*
X0411561Y0117689D01*
X0411561Y0073755D01*
X0411093Y0072624D01*
X0411093Y0071006D01*
X0411712Y0069510D01*
X0412857Y0068366D01*
X0414352Y0067746D01*
X0415971Y0067746D01*
X0417466Y0068366D01*
X0418611Y0069510D01*
X0419230Y0071006D01*
X0419230Y0072624D01*
X0418761Y0073755D01*
X0418761Y0115481D01*
X0426023Y0122743D01*
X0466347Y0122743D01*
X0470144Y0118946D01*
X0470144Y0040235D01*
X0456634Y0026725D01*
X0455461Y0026725D01*
X0453540Y0025930D01*
X0452711Y0025100D01*
X0440289Y0025100D01*
X0439460Y0025930D01*
X0437539Y0026725D01*
X0435461Y0026725D01*
X0433540Y0025930D01*
X0432070Y0024460D01*
X0431275Y0022539D01*
X0431275Y0020461D01*
X0432070Y0018540D01*
X0432947Y0017664D01*
X0284407Y0017664D01*
X0292434Y0025691D01*
X0419553Y0025691D01*
X0419581Y0025624D01*
X0420309Y0024896D01*
X0421261Y0024502D01*
X0422291Y0024502D01*
X0423242Y0024896D01*
X0423970Y0025624D01*
X0424365Y0026576D01*
X0424365Y0027606D01*
X0423970Y0028557D01*
X0423242Y0029285D01*
X0422291Y0029680D01*
X0421261Y0029680D01*
X0420309Y0029285D01*
X0419581Y0028557D01*
X0419553Y0028491D01*
X0415026Y0028491D01*
X0415112Y0028577D01*
X0415506Y0029528D01*
X0415506Y0030558D01*
X0415112Y0031510D01*
X0415026Y0031596D01*
X0432348Y0031596D01*
X0432376Y0031530D01*
X0433104Y0030801D01*
X0434056Y0030407D01*
X0435086Y0030407D01*
X0436037Y0030801D01*
X0436766Y0031530D01*
X0437160Y0032481D01*
X0437160Y0033511D01*
X0436766Y0034463D01*
X0436037Y0035191D01*
X0435086Y0035585D01*
X0434056Y0035585D01*
X0433104Y0035191D01*
X0432376Y0034463D01*
X0432348Y0034396D01*
X0428805Y0034396D01*
X0428892Y0034482D01*
X0429286Y0035434D01*
X0429286Y0036464D01*
X0428892Y0037415D01*
X0428805Y0037502D01*
X0435301Y0037502D01*
X0435329Y0037435D01*
X0436057Y0036707D01*
X0437009Y0036313D01*
X0438039Y0036313D01*
X0438990Y0036707D01*
X0439718Y0037435D01*
X0440113Y0038387D01*
X0440113Y0039417D01*
X0439718Y0040368D01*
X0438990Y0041096D01*
X0438039Y0041491D01*
X0437009Y0041491D01*
X0436057Y0041096D01*
X0435329Y0040368D01*
X0435301Y0040302D01*
X0430774Y0040302D01*
X0430860Y0040388D01*
X0431254Y0041339D01*
X0431254Y0042369D01*
X0430860Y0043321D01*
X0430132Y0044049D01*
X0429180Y0044443D01*
X0428150Y0044443D01*
X0427199Y0044049D01*
X0426471Y0043321D01*
X0426443Y0043254D01*
X0407439Y0043254D01*
X0449737Y0085553D01*
X0452240Y0086373D02*
X0470144Y0086373D01*
X0470144Y0087372D02*
X0460430Y0087372D01*
X0460390Y0087331D02*
X0460669Y0087610D01*
X0460866Y0087953D01*
X0460968Y0088334D01*
X0460968Y0091016D01*
X0456984Y0091016D01*
X0456984Y0087031D01*
X0459666Y0087031D01*
X0460047Y0087134D01*
X0460390Y0087331D01*
X0460968Y0088370D02*
X0470144Y0088370D01*
X0470144Y0089369D02*
X0460968Y0089369D01*
X0460968Y0090368D02*
X0470144Y0090368D01*
X0470144Y0091366D02*
X0456984Y0091366D01*
X0456984Y0091016D02*
X0456984Y0091984D01*
X0456016Y0091984D01*
X0456016Y0091016D01*
X0456984Y0091016D01*
X0456984Y0090368D02*
X0456016Y0090368D01*
X0456016Y0091366D02*
X0433009Y0091366D01*
X0433009Y0090691D02*
X0432390Y0089195D01*
X0431246Y0088051D01*
X0429750Y0087431D01*
X0428132Y0087431D01*
X0426636Y0088051D01*
X0425492Y0089195D01*
X0424872Y0090691D01*
X0424872Y0092309D01*
X0425492Y0093805D01*
X0426636Y0094949D01*
X0428132Y0095568D01*
X0429750Y0095568D01*
X0431246Y0094949D01*
X0432390Y0093805D01*
X0433009Y0092309D01*
X0433009Y0090691D01*
X0432876Y0090368D02*
X0448994Y0090368D01*
X0448036Y0089369D02*
X0432462Y0089369D01*
X0431565Y0088370D02*
X0447730Y0088370D01*
X0447597Y0087372D02*
X0418761Y0087372D01*
X0418761Y0088370D02*
X0426317Y0088370D01*
X0425420Y0089369D02*
X0418761Y0089369D01*
X0418761Y0090368D02*
X0425006Y0090368D01*
X0424872Y0091366D02*
X0418761Y0091366D01*
X0418761Y0092365D02*
X0424895Y0092365D01*
X0425309Y0093363D02*
X0418761Y0093363D01*
X0418761Y0094362D02*
X0426049Y0094362D01*
X0427628Y0095360D02*
X0418761Y0095360D01*
X0418761Y0096359D02*
X0470144Y0096359D01*
X0470144Y0097357D02*
X0418761Y0097357D01*
X0418761Y0098356D02*
X0470144Y0098356D01*
X0470144Y0099354D02*
X0418761Y0099354D01*
X0418761Y0100353D02*
X0470144Y0100353D01*
X0470144Y0101351D02*
X0418761Y0101351D01*
X0418761Y0102350D02*
X0470144Y0102350D01*
X0470144Y0103348D02*
X0418761Y0103348D01*
X0418761Y0104347D02*
X0470144Y0104347D01*
X0470144Y0105345D02*
X0418761Y0105345D01*
X0418761Y0106344D02*
X0470144Y0106344D01*
X0470144Y0107342D02*
X0418761Y0107342D01*
X0418761Y0108341D02*
X0470144Y0108341D01*
X0470144Y0109339D02*
X0418761Y0109339D01*
X0418761Y0110338D02*
X0470144Y0110338D01*
X0470144Y0111336D02*
X0418761Y0111336D01*
X0418761Y0112335D02*
X0470144Y0112335D01*
X0470144Y0113333D02*
X0418761Y0113333D01*
X0418761Y0114332D02*
X0470144Y0114332D01*
X0470144Y0115330D02*
X0418761Y0115330D01*
X0419609Y0116329D02*
X0470144Y0116329D01*
X0470144Y0117327D02*
X0420607Y0117327D01*
X0421606Y0118326D02*
X0470144Y0118326D01*
X0469766Y0119324D02*
X0422604Y0119324D01*
X0423603Y0120323D02*
X0468767Y0120323D01*
X0467769Y0121321D02*
X0424601Y0121321D01*
X0425600Y0122320D02*
X0466770Y0122320D01*
X0488483Y0125315D02*
X0494517Y0125315D01*
X0494802Y0125600D02*
X0492400Y0123198D01*
X0492400Y0119802D01*
X0494802Y0117400D01*
X0498198Y0117400D01*
X0500600Y0119802D01*
X0500600Y0123198D01*
X0498198Y0125600D01*
X0494802Y0125600D01*
X0493519Y0124317D02*
X0489481Y0124317D01*
X0490480Y0123318D02*
X0492520Y0123318D01*
X0492400Y0122320D02*
X0490600Y0122320D01*
X0490600Y0121321D02*
X0492400Y0121321D01*
X0492400Y0120323D02*
X0490600Y0120323D01*
X0490123Y0119324D02*
X0492877Y0119324D01*
X0493876Y0118326D02*
X0489124Y0118326D01*
X0499124Y0118326D02*
X0501084Y0118326D01*
X0501084Y0119324D02*
X0500123Y0119324D01*
X0500600Y0120323D02*
X0501084Y0120323D01*
X0501084Y0121321D02*
X0500600Y0121321D01*
X0500600Y0122320D02*
X0501084Y0122320D01*
X0501084Y0123318D02*
X0500480Y0123318D01*
X0501084Y0124317D02*
X0499481Y0124317D01*
X0498483Y0125315D02*
X0501084Y0125315D01*
X0501084Y0128311D02*
X0499109Y0128311D01*
X0500108Y0129309D02*
X0501084Y0129309D01*
X0501084Y0130308D02*
X0500600Y0130308D01*
X0500600Y0131306D02*
X0501084Y0131306D01*
X0501084Y0132305D02*
X0500600Y0132305D01*
X0500495Y0133303D02*
X0501084Y0133303D01*
X0501084Y0134302D02*
X0499496Y0134302D01*
X0498498Y0135301D02*
X0501084Y0135301D01*
X0501084Y0136299D02*
X0490925Y0136299D01*
X0491923Y0135301D02*
X0494502Y0135301D01*
X0493504Y0134302D02*
X0492922Y0134302D01*
X0490959Y0132305D02*
X0490600Y0132305D01*
X0490600Y0131306D02*
X0491958Y0131306D01*
X0492400Y0130308D02*
X0490600Y0130308D01*
X0490108Y0129309D02*
X0492892Y0129309D01*
X0493891Y0128311D02*
X0489109Y0128311D01*
X0498661Y0137298D02*
X0501084Y0137298D01*
X0501084Y0138296D02*
X0499660Y0138296D01*
X0500659Y0139295D02*
X0501084Y0139295D01*
X0501084Y0140293D02*
X0501000Y0140293D01*
X0493921Y0148281D02*
X0489079Y0148281D01*
X0490078Y0149280D02*
X0492922Y0149280D01*
X0415418Y0122320D02*
X0321230Y0122320D01*
X0320231Y0121321D02*
X0414419Y0121321D01*
X0413421Y0120323D02*
X0319233Y0120323D01*
X0318234Y0119324D02*
X0412422Y0119324D01*
X0411825Y0118326D02*
X0317236Y0118326D01*
X0316237Y0117327D02*
X0411561Y0117327D01*
X0411561Y0116329D02*
X0315239Y0116329D01*
X0314240Y0115330D02*
X0411561Y0115330D01*
X0411561Y0114332D02*
X0313761Y0114332D01*
X0313761Y0113333D02*
X0411561Y0113333D01*
X0411561Y0112335D02*
X0313761Y0112335D01*
X0313761Y0111336D02*
X0411561Y0111336D01*
X0411561Y0110338D02*
X0313761Y0110338D01*
X0313761Y0109339D02*
X0411561Y0109339D01*
X0411561Y0108341D02*
X0313761Y0108341D01*
X0313761Y0107342D02*
X0411561Y0107342D01*
X0411561Y0106344D02*
X0313761Y0106344D01*
X0313761Y0105345D02*
X0411561Y0105345D01*
X0411561Y0104347D02*
X0313761Y0104347D01*
X0313761Y0103348D02*
X0411561Y0103348D01*
X0411561Y0102350D02*
X0313761Y0102350D01*
X0313761Y0101351D02*
X0411561Y0101351D01*
X0411561Y0100353D02*
X0313761Y0100353D01*
X0313761Y0099354D02*
X0411561Y0099354D01*
X0411561Y0098356D02*
X0313761Y0098356D01*
X0313761Y0097357D02*
X0411561Y0097357D01*
X0411561Y0096359D02*
X0313761Y0096359D01*
X0313761Y0095360D02*
X0322628Y0095360D01*
X0323132Y0095568D02*
X0321636Y0094949D01*
X0320492Y0093805D01*
X0319872Y0092309D01*
X0319872Y0090691D01*
X0320492Y0089195D01*
X0321636Y0088051D01*
X0323132Y0087431D01*
X0324750Y0087431D01*
X0326246Y0088051D01*
X0327390Y0089195D01*
X0328009Y0090691D01*
X0328009Y0092309D01*
X0327390Y0093805D01*
X0326246Y0094949D01*
X0324750Y0095568D01*
X0323132Y0095568D01*
X0325253Y0095360D02*
X0347314Y0095360D01*
X0347331Y0095390D02*
X0347134Y0095047D01*
X0347031Y0094666D01*
X0347031Y0091984D01*
X0351016Y0091984D01*
X0351016Y0091016D01*
X0347031Y0091016D01*
X0347031Y0088334D01*
X0347134Y0087953D01*
X0347331Y0087610D01*
X0347610Y0087331D01*
X0347953Y0087134D01*
X0348334Y0087031D01*
X0351016Y0087031D01*
X0351016Y0091016D01*
X0351984Y0091016D01*
X0351984Y0087031D01*
X0354666Y0087031D01*
X0355047Y0087134D01*
X0355390Y0087331D01*
X0355669Y0087610D01*
X0355866Y0087953D01*
X0355968Y0088334D01*
X0355968Y0091016D01*
X0351984Y0091016D01*
X0351984Y0091984D01*
X0351016Y0091984D01*
X0351016Y0095968D01*
X0348334Y0095968D01*
X0347953Y0095866D01*
X0347610Y0095669D01*
X0347331Y0095390D01*
X0347031Y0094362D02*
X0326833Y0094362D01*
X0327573Y0093363D02*
X0347031Y0093363D01*
X0347031Y0092365D02*
X0327987Y0092365D01*
X0328009Y0091366D02*
X0351016Y0091366D01*
X0351984Y0091366D02*
X0369754Y0091366D01*
X0369754Y0090691D02*
X0370374Y0089195D01*
X0371518Y0088051D01*
X0373014Y0087431D01*
X0373131Y0087431D01*
X0373131Y0084582D01*
X0373952Y0083761D01*
X0383989Y0073724D01*
X0383534Y0072624D01*
X0383534Y0071006D01*
X0384153Y0069510D01*
X0385298Y0068366D01*
X0386793Y0067746D01*
X0388412Y0067746D01*
X0389907Y0068366D01*
X0391051Y0069510D01*
X0391671Y0071006D01*
X0391671Y0072624D01*
X0391051Y0074120D01*
X0389907Y0075264D01*
X0388412Y0075883D01*
X0386793Y0075883D01*
X0386083Y0075589D01*
X0375931Y0085741D01*
X0375931Y0087970D01*
X0376127Y0088051D01*
X0377272Y0089195D01*
X0377891Y0090691D01*
X0377891Y0092309D01*
X0377272Y0093805D01*
X0376127Y0094949D01*
X0374632Y0095568D01*
X0373014Y0095568D01*
X0371518Y0094949D01*
X0370374Y0093805D01*
X0369754Y0092309D01*
X0369754Y0090691D01*
X0369888Y0090368D02*
X0355968Y0090368D01*
X0355968Y0089369D02*
X0370302Y0089369D01*
X0371199Y0088370D02*
X0355968Y0088370D01*
X0355430Y0087372D02*
X0373131Y0087372D01*
X0373131Y0086373D02*
X0313761Y0086373D01*
X0313761Y0085375D02*
X0373131Y0085375D01*
X0373337Y0084376D02*
X0313761Y0084376D01*
X0313761Y0083378D02*
X0374335Y0083378D01*
X0375334Y0082379D02*
X0313761Y0082379D01*
X0313761Y0081381D02*
X0376332Y0081381D01*
X0377331Y0080382D02*
X0313761Y0080382D01*
X0313761Y0079384D02*
X0378329Y0079384D01*
X0379328Y0078385D02*
X0313761Y0078385D01*
X0313761Y0077387D02*
X0380326Y0077387D01*
X0381325Y0076388D02*
X0313761Y0076388D01*
X0313761Y0075390D02*
X0335039Y0075390D01*
X0334809Y0075223D02*
X0334312Y0074726D01*
X0333899Y0074157D01*
X0333579Y0073530D01*
X0333362Y0072861D01*
X0333273Y0072299D01*
X0337236Y0072299D01*
X0337236Y0071331D01*
X0333273Y0071331D01*
X0333362Y0070769D01*
X0333579Y0070100D01*
X0333899Y0069473D01*
X0334312Y0068904D01*
X0334809Y0068407D01*
X0335378Y0067993D01*
X0336005Y0067674D01*
X0336674Y0067456D01*
X0337236Y0067367D01*
X0337236Y0071331D01*
X0338205Y0071331D01*
X0338205Y0072299D01*
X0342168Y0072299D01*
X0342079Y0072861D01*
X0341862Y0073530D01*
X0341542Y0074157D01*
X0341129Y0074726D01*
X0340631Y0075223D01*
X0340062Y0075637D01*
X0339436Y0075956D01*
X0338767Y0076173D01*
X0338205Y0076262D01*
X0338205Y0072299D01*
X0337236Y0072299D01*
X0337236Y0076262D01*
X0336674Y0076173D01*
X0336005Y0075956D01*
X0335378Y0075637D01*
X0334809Y0075223D01*
X0334069Y0074391D02*
X0313761Y0074391D01*
X0313912Y0073393D02*
X0333535Y0073393D01*
X0333288Y0072394D02*
X0314230Y0072394D01*
X0314230Y0071396D02*
X0337236Y0071396D01*
X0338205Y0071396D02*
X0383534Y0071396D01*
X0383534Y0072394D02*
X0342153Y0072394D01*
X0341906Y0073393D02*
X0383852Y0073393D01*
X0383322Y0074391D02*
X0341372Y0074391D01*
X0340402Y0075390D02*
X0382323Y0075390D01*
X0384286Y0077387D02*
X0411561Y0077387D01*
X0411561Y0078385D02*
X0383287Y0078385D01*
X0382289Y0079384D02*
X0411561Y0079384D01*
X0411561Y0080382D02*
X0381290Y0080382D01*
X0380292Y0081381D02*
X0411561Y0081381D01*
X0411561Y0082379D02*
X0379293Y0082379D01*
X0378295Y0083378D02*
X0411561Y0083378D01*
X0411561Y0084376D02*
X0377296Y0084376D01*
X0376298Y0085375D02*
X0411561Y0085375D01*
X0411561Y0086373D02*
X0375931Y0086373D01*
X0375931Y0087372D02*
X0411561Y0087372D01*
X0411561Y0088370D02*
X0404006Y0088370D01*
X0403687Y0088051D02*
X0404831Y0089195D01*
X0405450Y0090691D01*
X0405450Y0092309D01*
X0404831Y0093805D01*
X0403687Y0094949D01*
X0402191Y0095568D01*
X0400573Y0095568D01*
X0399077Y0094949D01*
X0397933Y0093805D01*
X0397313Y0092309D01*
X0397313Y0090691D01*
X0397933Y0089195D01*
X0399077Y0088051D01*
X0400573Y0087431D01*
X0402191Y0087431D01*
X0403687Y0088051D01*
X0404903Y0089369D02*
X0411561Y0089369D01*
X0411561Y0090368D02*
X0405316Y0090368D01*
X0405450Y0091366D02*
X0411561Y0091366D01*
X0411561Y0092365D02*
X0405427Y0092365D01*
X0405014Y0093363D02*
X0411561Y0093363D01*
X0411561Y0094362D02*
X0404274Y0094362D01*
X0402694Y0095360D02*
X0411561Y0095360D01*
X0400069Y0095360D02*
X0375135Y0095360D01*
X0376715Y0094362D02*
X0398490Y0094362D01*
X0397750Y0093363D02*
X0377455Y0093363D01*
X0377868Y0092365D02*
X0397336Y0092365D01*
X0397313Y0091366D02*
X0377891Y0091366D01*
X0377757Y0090368D02*
X0397447Y0090368D01*
X0397861Y0089369D02*
X0377344Y0089369D01*
X0376447Y0088370D02*
X0398758Y0088370D01*
X0418761Y0086373D02*
X0446598Y0086373D01*
X0445600Y0085375D02*
X0418761Y0085375D01*
X0418761Y0084376D02*
X0444601Y0084376D01*
X0443603Y0083378D02*
X0418761Y0083378D01*
X0418761Y0082379D02*
X0442604Y0082379D01*
X0441606Y0081381D02*
X0418761Y0081381D01*
X0418761Y0080382D02*
X0440607Y0080382D01*
X0439609Y0079384D02*
X0418761Y0079384D01*
X0418761Y0078385D02*
X0438610Y0078385D01*
X0437612Y0077387D02*
X0418761Y0077387D01*
X0418761Y0076388D02*
X0436613Y0076388D01*
X0435615Y0075390D02*
X0418761Y0075390D01*
X0418761Y0074391D02*
X0434616Y0074391D01*
X0433618Y0073393D02*
X0418912Y0073393D01*
X0419230Y0072394D02*
X0432619Y0072394D01*
X0431621Y0071396D02*
X0419230Y0071396D01*
X0418978Y0070397D02*
X0430622Y0070397D01*
X0429624Y0069399D02*
X0418499Y0069399D01*
X0417500Y0068400D02*
X0428625Y0068400D01*
X0427627Y0067402D02*
X0382849Y0067402D01*
X0383026Y0066403D02*
X0426628Y0066403D01*
X0425630Y0065405D02*
X0382802Y0065405D01*
X0382044Y0064406D02*
X0424631Y0064406D01*
X0423633Y0063408D02*
X0379364Y0063408D01*
X0378365Y0062409D02*
X0422634Y0062409D01*
X0421636Y0061411D02*
X0377367Y0061411D01*
X0376368Y0060412D02*
X0415019Y0060412D01*
X0414395Y0059414D02*
X0306125Y0059414D01*
X0306254Y0058415D02*
X0414265Y0058415D01*
X0413704Y0057417D02*
X0305983Y0057417D01*
X0305158Y0056418D02*
X0412706Y0056418D01*
X0411707Y0055420D02*
X0391202Y0055420D01*
X0391785Y0054421D02*
X0410709Y0054421D01*
X0409710Y0053423D02*
X0391884Y0053423D01*
X0391583Y0052424D02*
X0408712Y0052424D01*
X0414612Y0050427D02*
X0470144Y0050427D01*
X0470144Y0049429D02*
X0413613Y0049429D01*
X0412615Y0048430D02*
X0470144Y0048430D01*
X0470144Y0047432D02*
X0411616Y0047432D01*
X0410618Y0046433D02*
X0470144Y0046433D01*
X0470144Y0045434D02*
X0409619Y0045434D01*
X0408621Y0044436D02*
X0428133Y0044436D01*
X0429198Y0044436D02*
X0470144Y0044436D01*
X0470144Y0043437D02*
X0430744Y0043437D01*
X0431225Y0042439D02*
X0470144Y0042439D01*
X0470144Y0041440D02*
X0438160Y0041440D01*
X0436888Y0041440D02*
X0431254Y0041440D01*
X0430883Y0040442D02*
X0435403Y0040442D01*
X0439645Y0040442D02*
X0470144Y0040442D01*
X0469352Y0039443D02*
X0440101Y0039443D01*
X0440113Y0038445D02*
X0468354Y0038445D01*
X0467355Y0037446D02*
X0439723Y0037446D01*
X0438365Y0036448D02*
X0466357Y0036448D01*
X0465358Y0035449D02*
X0435413Y0035449D01*
X0436682Y0036448D02*
X0429286Y0036448D01*
X0429286Y0035449D02*
X0433728Y0035449D01*
X0432371Y0034451D02*
X0428860Y0034451D01*
X0428861Y0037446D02*
X0435324Y0037446D01*
X0436771Y0034451D02*
X0464360Y0034451D01*
X0463361Y0033452D02*
X0437160Y0033452D01*
X0437149Y0032454D02*
X0462363Y0032454D01*
X0461364Y0031455D02*
X0436692Y0031455D01*
X0435206Y0030457D02*
X0460366Y0030457D01*
X0459367Y0029458D02*
X0422825Y0029458D01*
X0424011Y0028460D02*
X0458369Y0028460D01*
X0457370Y0027461D02*
X0424365Y0027461D01*
X0424318Y0026463D02*
X0434828Y0026463D01*
X0433075Y0025464D02*
X0423811Y0025464D01*
X0419740Y0025464D02*
X0292208Y0025464D01*
X0291209Y0024466D02*
X0432077Y0024466D01*
X0431659Y0023467D02*
X0290211Y0023467D01*
X0289212Y0022469D02*
X0431275Y0022469D01*
X0431275Y0021470D02*
X0288214Y0021470D01*
X0287215Y0020472D02*
X0431275Y0020472D01*
X0431684Y0019473D02*
X0286217Y0019473D01*
X0285218Y0018475D02*
X0432136Y0018475D01*
X0439925Y0025464D02*
X0453075Y0025464D01*
X0454828Y0026463D02*
X0438172Y0026463D01*
X0433936Y0030457D02*
X0415506Y0030457D01*
X0415477Y0029458D02*
X0420727Y0029458D01*
X0415135Y0031455D02*
X0432450Y0031455D01*
X0410700Y0031455D02*
X0209616Y0031455D01*
X0209093Y0030457D02*
X0208618Y0030457D01*
X0211000Y0030457D02*
X0212000Y0030457D01*
X0212000Y0029458D02*
X0211000Y0029458D01*
X0211000Y0028460D02*
X0212000Y0028460D01*
X0212000Y0027461D02*
X0211000Y0027461D01*
X0216000Y0025464D02*
X0217400Y0025464D01*
X0217736Y0024466D02*
X0215830Y0024466D01*
X0214831Y0023467D02*
X0218734Y0023467D01*
X0219733Y0022469D02*
X0213833Y0022469D01*
X0209167Y0022469D02*
X0205551Y0022469D01*
X0206550Y0023467D02*
X0208169Y0023467D01*
X0223372Y0022469D02*
X0229167Y0022469D01*
X0228169Y0023467D02*
X0224266Y0023467D01*
X0225264Y0024466D02*
X0227170Y0024466D01*
X0227000Y0025464D02*
X0225600Y0025464D01*
X0231000Y0025464D02*
X0232000Y0025464D01*
X0232000Y0024466D02*
X0231000Y0024466D01*
X0231000Y0023467D02*
X0232000Y0023467D01*
X0232000Y0022469D02*
X0231000Y0022469D01*
X0231000Y0021000D02*
X0229636Y0021000D01*
X0227000Y0018364D01*
X0227000Y0017000D01*
X0231000Y0017000D01*
X0231000Y0021000D01*
X0231000Y0020472D02*
X0232000Y0020472D01*
X0232000Y0021000D02*
X0233364Y0021000D01*
X0236000Y0018364D01*
X0236000Y0017000D01*
X0232000Y0017000D01*
X0232000Y0016000D01*
X0236000Y0016000D01*
X0236000Y0014636D01*
X0233364Y0012000D01*
X0232000Y0012000D01*
X0232000Y0016000D01*
X0231000Y0016000D01*
X0231000Y0012000D01*
X0229636Y0012000D01*
X0227000Y0014636D01*
X0227000Y0016000D01*
X0231000Y0016000D01*
X0231000Y0017000D01*
X0232000Y0017000D01*
X0232000Y0021000D01*
X0232000Y0019473D02*
X0231000Y0019473D01*
X0231000Y0018475D02*
X0232000Y0018475D01*
X0232000Y0017476D02*
X0231000Y0017476D01*
X0231000Y0016478D02*
X0225600Y0016478D01*
X0225600Y0017476D02*
X0227000Y0017476D01*
X0227111Y0018475D02*
X0225324Y0018475D01*
X0224325Y0019473D02*
X0228109Y0019473D01*
X0229108Y0020472D02*
X0223372Y0020472D01*
X0223372Y0021470D02*
X0240257Y0021470D01*
X0239733Y0022469D02*
X0233833Y0022469D01*
X0234831Y0023467D02*
X0238734Y0023467D01*
X0237736Y0024466D02*
X0235830Y0024466D01*
X0236000Y0025464D02*
X0237400Y0025464D01*
X0239673Y0020472D02*
X0233892Y0020472D01*
X0234891Y0019473D02*
X0238675Y0019473D01*
X0237676Y0018475D02*
X0235889Y0018475D01*
X0236000Y0017476D02*
X0237400Y0017476D01*
X0237400Y0016478D02*
X0232000Y0016478D01*
X0232000Y0015479D02*
X0231000Y0015479D01*
X0231000Y0014481D02*
X0232000Y0014481D01*
X0232000Y0013482D02*
X0231000Y0013482D01*
X0231000Y0012484D02*
X0232000Y0012484D01*
X0233848Y0012484D02*
X0239718Y0012484D01*
X0238720Y0013482D02*
X0234846Y0013482D01*
X0235845Y0014481D02*
X0237721Y0014481D01*
X0237400Y0015479D02*
X0236000Y0015479D01*
X0229152Y0012484D02*
X0223282Y0012484D01*
X0224280Y0013482D02*
X0228154Y0013482D01*
X0227155Y0014481D02*
X0225279Y0014481D01*
X0225600Y0015479D02*
X0227000Y0015479D01*
X0219718Y0012484D02*
X0213848Y0012484D01*
X0214846Y0013482D02*
X0218720Y0013482D01*
X0217721Y0014481D02*
X0215845Y0014481D01*
X0216000Y0015479D02*
X0217400Y0015479D01*
X0208154Y0013482D02*
X0204280Y0013482D01*
X0205279Y0014481D02*
X0207155Y0014481D01*
X0207000Y0015479D02*
X0205600Y0015479D01*
X0184731Y0013482D02*
X0184280Y0013482D01*
X0183732Y0012484D02*
X0183282Y0012484D01*
X0179718Y0012484D02*
X0173282Y0012484D01*
X0174280Y0013482D02*
X0178720Y0013482D01*
X0177721Y0014481D02*
X0175279Y0014481D01*
X0175600Y0015479D02*
X0177400Y0015479D01*
X0177400Y0016478D02*
X0175600Y0016478D01*
X0175600Y0017476D02*
X0177400Y0017476D01*
X0177676Y0018475D02*
X0175324Y0018475D01*
X0174325Y0019473D02*
X0178675Y0019473D01*
X0179673Y0020472D02*
X0173327Y0020472D01*
X0173267Y0022469D02*
X0179733Y0022469D01*
X0179802Y0022400D02*
X0183198Y0022400D01*
X0185600Y0024802D01*
X0185600Y0028198D01*
X0183198Y0030600D01*
X0179802Y0030600D01*
X0177400Y0028198D01*
X0177400Y0024802D01*
X0179802Y0022400D01*
X0178734Y0023467D02*
X0174266Y0023467D01*
X0175264Y0024466D02*
X0177736Y0024466D01*
X0177400Y0025464D02*
X0175600Y0025464D01*
X0175600Y0026463D02*
X0177400Y0026463D01*
X0177400Y0027461D02*
X0175600Y0027461D01*
X0175338Y0028460D02*
X0177662Y0028460D01*
X0178660Y0029458D02*
X0174340Y0029458D01*
X0173341Y0030457D02*
X0179659Y0030457D01*
X0183341Y0030457D02*
X0189659Y0030457D01*
X0188660Y0029458D02*
X0184340Y0029458D01*
X0185338Y0028460D02*
X0187662Y0028460D01*
X0187400Y0027461D02*
X0185600Y0027461D01*
X0185600Y0026463D02*
X0187400Y0026463D01*
X0187400Y0025464D02*
X0185600Y0025464D01*
X0185264Y0024466D02*
X0187736Y0024466D01*
X0185897Y0023467D02*
X0184266Y0023467D01*
X0185179Y0022469D02*
X0183267Y0022469D01*
X0159733Y0022469D02*
X0159291Y0022469D01*
X0159673Y0020472D02*
X0157294Y0020472D01*
X0145100Y0013482D02*
X0144280Y0013482D01*
X0145100Y0012484D02*
X0143282Y0012484D01*
X0145100Y0011485D02*
X0139164Y0011485D01*
X0139718Y0012484D02*
X0138166Y0012484D01*
X0138720Y0013482D02*
X0137167Y0013482D01*
X0140163Y0010487D02*
X0145100Y0010487D01*
X0145100Y0009488D02*
X0141161Y0009488D01*
X0139198Y0007491D02*
X0006000Y0007491D01*
X0006000Y0006493D02*
X0140197Y0006493D01*
X0039470Y0023467D02*
X0038599Y0023467D01*
X0039470Y0024466D02*
X0037601Y0024466D01*
X0036602Y0025464D02*
X0039470Y0025464D01*
X0039470Y0026463D02*
X0035604Y0026463D01*
X0034605Y0027461D02*
X0038806Y0027461D01*
X0038316Y0028460D02*
X0033607Y0028460D01*
X0032608Y0029458D02*
X0038281Y0029458D01*
X0038647Y0030457D02*
X0011758Y0030457D01*
X0011758Y0031455D02*
X0024683Y0031455D01*
X0018692Y0037446D02*
X0018245Y0037446D01*
X0028364Y0045434D02*
X0030659Y0045434D01*
X0029661Y0044436D02*
X0029362Y0044436D01*
X0008958Y0055420D02*
X0006000Y0055420D01*
X0006000Y0056418D02*
X0008958Y0056418D01*
X0008958Y0057417D02*
X0006000Y0057417D01*
X0006000Y0058415D02*
X0008958Y0058415D01*
X0008958Y0059414D02*
X0006000Y0059414D01*
X0006000Y0060412D02*
X0008958Y0060412D01*
X0008958Y0061411D02*
X0006000Y0061411D01*
X0006000Y0062409D02*
X0008958Y0062409D01*
X0008958Y0063408D02*
X0006000Y0063408D01*
X0006000Y0064406D02*
X0008958Y0064406D01*
X0008958Y0065405D02*
X0006000Y0065405D01*
X0006000Y0066403D02*
X0008958Y0066403D01*
X0011758Y0077387D02*
X0020289Y0077387D01*
X0020021Y0077119D02*
X0020021Y0077119D01*
X0019184Y0078385D02*
X0023816Y0078385D01*
X0022818Y0079384D02*
X0020182Y0079384D01*
X0020600Y0079802D02*
X0018198Y0077400D01*
X0014802Y0077400D01*
X0012400Y0079802D01*
X0012400Y0083198D01*
X0014802Y0085600D01*
X0018198Y0085600D01*
X0020600Y0083198D01*
X0020600Y0079802D01*
X0020600Y0080382D02*
X0022400Y0080382D01*
X0022400Y0081381D02*
X0020600Y0081381D01*
X0020600Y0082379D02*
X0022400Y0082379D01*
X0022580Y0083378D02*
X0020420Y0083378D01*
X0019422Y0084376D02*
X0023578Y0084376D01*
X0024577Y0085375D02*
X0018423Y0085375D01*
X0014577Y0085375D02*
X0011758Y0085375D01*
X0011758Y0084376D02*
X0013578Y0084376D01*
X0012580Y0083378D02*
X0011758Y0083378D01*
X0011758Y0082379D02*
X0012400Y0082379D01*
X0012400Y0081381D02*
X0011758Y0081381D01*
X0011758Y0080382D02*
X0012400Y0080382D01*
X0012818Y0079384D02*
X0011758Y0079384D01*
X0011758Y0078385D02*
X0013816Y0078385D01*
X0019169Y0088370D02*
X0023831Y0088370D01*
X0022833Y0089369D02*
X0020167Y0089369D01*
X0020600Y0090368D02*
X0022400Y0090368D01*
X0022400Y0091366D02*
X0020600Y0091366D01*
X0020600Y0092365D02*
X0022400Y0092365D01*
X0022565Y0093363D02*
X0020435Y0093363D01*
X0019437Y0094362D02*
X0023563Y0094362D01*
X0024562Y0095360D02*
X0022537Y0095360D01*
X0022151Y0108341D02*
X0023861Y0108341D01*
X0192343Y0078385D02*
X0201561Y0078385D01*
X0201561Y0077387D02*
X0193341Y0077387D01*
X0194340Y0076388D02*
X0201561Y0076388D01*
X0201561Y0075390D02*
X0195338Y0075390D01*
X0196337Y0074391D02*
X0201561Y0074391D01*
X0201411Y0073393D02*
X0197335Y0073393D01*
X0198334Y0072394D02*
X0201093Y0072394D01*
X0201093Y0071396D02*
X0199332Y0071396D01*
X0200331Y0070397D02*
X0201345Y0070397D01*
X0201329Y0069399D02*
X0201824Y0069399D01*
X0208499Y0069399D02*
X0219978Y0069399D01*
X0220976Y0070397D02*
X0208978Y0070397D01*
X0209230Y0071396D02*
X0221975Y0071396D01*
X0222973Y0072394D02*
X0209230Y0072394D01*
X0208912Y0073393D02*
X0223972Y0073393D01*
X0224970Y0074391D02*
X0208761Y0074391D01*
X0208761Y0075390D02*
X0225969Y0075390D01*
X0226968Y0076388D02*
X0208761Y0076388D01*
X0208761Y0077387D02*
X0227966Y0077387D01*
X0228965Y0078385D02*
X0208761Y0078385D01*
X0208761Y0079384D02*
X0229963Y0079384D01*
X0231411Y0076872D02*
X0221415Y0066876D01*
X0272029Y0066876D01*
X0271943Y0066963D01*
X0271549Y0067914D01*
X0271549Y0068944D01*
X0271576Y0069011D01*
X0263715Y0076872D01*
X0231411Y0076872D01*
X0230927Y0076388D02*
X0264199Y0076388D01*
X0265197Y0075390D02*
X0235402Y0075390D01*
X0235631Y0075223D02*
X0235062Y0075637D01*
X0234436Y0075956D01*
X0233767Y0076173D01*
X0233205Y0076262D01*
X0233205Y0072299D01*
X0237168Y0072299D01*
X0237079Y0072861D01*
X0236862Y0073530D01*
X0236542Y0074157D01*
X0236129Y0074726D01*
X0235631Y0075223D01*
X0236372Y0074391D02*
X0266196Y0074391D01*
X0267194Y0073393D02*
X0236906Y0073393D01*
X0237153Y0072394D02*
X0268193Y0072394D01*
X0269191Y0071396D02*
X0233205Y0071396D01*
X0233205Y0071331D02*
X0233205Y0072299D01*
X0232236Y0072299D01*
X0232236Y0071331D01*
X0228273Y0071331D01*
X0228362Y0070769D01*
X0228579Y0070100D01*
X0228899Y0069473D01*
X0229312Y0068904D01*
X0229809Y0068407D01*
X0230378Y0067993D01*
X0231005Y0067674D01*
X0231674Y0067456D01*
X0232236Y0067367D01*
X0232236Y0071331D01*
X0233205Y0071331D01*
X0237168Y0071331D01*
X0237079Y0070769D01*
X0236862Y0070100D01*
X0236542Y0069473D01*
X0236129Y0068904D01*
X0235631Y0068407D01*
X0235062Y0067993D01*
X0234436Y0067674D01*
X0233767Y0067456D01*
X0233205Y0067367D01*
X0233205Y0071331D01*
X0233205Y0070397D02*
X0232236Y0070397D01*
X0232236Y0069399D02*
X0233205Y0069399D01*
X0233205Y0068400D02*
X0232236Y0068400D01*
X0232236Y0067402D02*
X0233205Y0067402D01*
X0233421Y0067402D02*
X0271761Y0067402D01*
X0271549Y0068400D02*
X0235623Y0068400D01*
X0236488Y0069399D02*
X0271188Y0069399D01*
X0270190Y0070397D02*
X0236958Y0070397D01*
X0233205Y0072394D02*
X0232236Y0072394D01*
X0232236Y0072299D02*
X0232236Y0076262D01*
X0231674Y0076173D01*
X0231005Y0075956D01*
X0230378Y0075637D01*
X0229809Y0075223D01*
X0229312Y0074726D01*
X0228899Y0074157D01*
X0228579Y0073530D01*
X0228362Y0072861D01*
X0228273Y0072299D01*
X0232236Y0072299D01*
X0232236Y0071396D02*
X0225935Y0071396D01*
X0226933Y0072394D02*
X0228288Y0072394D01*
X0228535Y0073393D02*
X0227932Y0073393D01*
X0228930Y0074391D02*
X0229069Y0074391D01*
X0229929Y0075390D02*
X0230039Y0075390D01*
X0232236Y0075390D02*
X0233205Y0075390D01*
X0233205Y0074391D02*
X0232236Y0074391D01*
X0232236Y0073393D02*
X0233205Y0073393D01*
X0228483Y0070397D02*
X0224936Y0070397D01*
X0223938Y0069399D02*
X0228953Y0069399D01*
X0229818Y0068400D02*
X0222939Y0068400D01*
X0221941Y0067402D02*
X0232020Y0067402D01*
X0265163Y0079384D02*
X0306561Y0079384D01*
X0306561Y0080382D02*
X0208761Y0080382D01*
X0208761Y0081381D02*
X0306561Y0081381D01*
X0306561Y0082379D02*
X0208761Y0082379D01*
X0208761Y0083378D02*
X0306561Y0083378D01*
X0306561Y0084376D02*
X0208761Y0084376D01*
X0208761Y0085375D02*
X0306561Y0085375D01*
X0306561Y0086373D02*
X0208761Y0086373D01*
X0208761Y0087372D02*
X0242570Y0087372D01*
X0242610Y0087331D02*
X0242953Y0087134D01*
X0243334Y0087031D01*
X0246016Y0087031D01*
X0246016Y0091016D01*
X0242031Y0091016D01*
X0242031Y0088334D01*
X0242134Y0087953D01*
X0242331Y0087610D01*
X0242610Y0087331D01*
X0242031Y0088370D02*
X0221565Y0088370D01*
X0221246Y0088051D02*
X0222390Y0089195D01*
X0223009Y0090691D01*
X0223009Y0092309D01*
X0222390Y0093805D01*
X0221246Y0094949D01*
X0219750Y0095568D01*
X0218132Y0095568D01*
X0216636Y0094949D01*
X0215492Y0093805D01*
X0214872Y0092309D01*
X0214872Y0090691D01*
X0215492Y0089195D01*
X0216636Y0088051D01*
X0218132Y0087431D01*
X0219750Y0087431D01*
X0221246Y0088051D01*
X0222462Y0089369D02*
X0242031Y0089369D01*
X0242031Y0090368D02*
X0222876Y0090368D01*
X0223009Y0091366D02*
X0246016Y0091366D01*
X0246016Y0091016D02*
X0246016Y0091984D01*
X0242031Y0091984D01*
X0242031Y0094666D01*
X0242134Y0095047D01*
X0242331Y0095390D01*
X0242610Y0095669D01*
X0242953Y0095866D01*
X0243334Y0095968D01*
X0246016Y0095968D01*
X0246016Y0091984D01*
X0246984Y0091984D01*
X0246984Y0095968D01*
X0249666Y0095968D01*
X0250047Y0095866D01*
X0250390Y0095669D01*
X0250669Y0095390D01*
X0250866Y0095047D01*
X0250968Y0094666D01*
X0250968Y0091984D01*
X0246984Y0091984D01*
X0246984Y0091016D01*
X0246984Y0087031D01*
X0249666Y0087031D01*
X0250047Y0087134D01*
X0250390Y0087331D01*
X0250669Y0087610D01*
X0250866Y0087953D01*
X0250968Y0088334D01*
X0250968Y0091016D01*
X0246984Y0091016D01*
X0246016Y0091016D01*
X0246016Y0090368D02*
X0246984Y0090368D01*
X0246984Y0091366D02*
X0264754Y0091366D01*
X0264754Y0090691D02*
X0265374Y0089195D01*
X0266518Y0088051D01*
X0268014Y0087431D01*
X0269632Y0087431D01*
X0271127Y0088051D01*
X0272272Y0089195D01*
X0272891Y0090691D01*
X0272891Y0092309D01*
X0272272Y0093805D01*
X0271127Y0094949D01*
X0269632Y0095568D01*
X0268014Y0095568D01*
X0266518Y0094949D01*
X0265374Y0093805D01*
X0264754Y0092309D01*
X0264754Y0090691D01*
X0264888Y0090368D02*
X0250968Y0090368D01*
X0250968Y0089369D02*
X0265302Y0089369D01*
X0266199Y0088370D02*
X0250968Y0088370D01*
X0250430Y0087372D02*
X0306561Y0087372D01*
X0306561Y0088370D02*
X0299006Y0088370D01*
X0298687Y0088051D02*
X0299831Y0089195D01*
X0300450Y0090691D01*
X0300450Y0092309D01*
X0299831Y0093805D01*
X0298687Y0094949D01*
X0297191Y0095568D01*
X0295573Y0095568D01*
X0294077Y0094949D01*
X0292933Y0093805D01*
X0292313Y0092309D01*
X0292313Y0090691D01*
X0292933Y0089195D01*
X0294077Y0088051D01*
X0295573Y0087431D01*
X0297191Y0087431D01*
X0298687Y0088051D01*
X0299903Y0089369D02*
X0306561Y0089369D01*
X0306561Y0090368D02*
X0300316Y0090368D01*
X0300450Y0091366D02*
X0306561Y0091366D01*
X0306561Y0092365D02*
X0300427Y0092365D01*
X0300014Y0093363D02*
X0306561Y0093363D01*
X0306561Y0094362D02*
X0299274Y0094362D01*
X0297694Y0095360D02*
X0306561Y0095360D01*
X0306561Y0096359D02*
X0208761Y0096359D01*
X0208761Y0097357D02*
X0306561Y0097357D01*
X0306561Y0098356D02*
X0208761Y0098356D01*
X0208761Y0099354D02*
X0306561Y0099354D01*
X0306561Y0100353D02*
X0208761Y0100353D01*
X0208761Y0101351D02*
X0306561Y0101351D01*
X0306561Y0102350D02*
X0208761Y0102350D01*
X0208761Y0103348D02*
X0306561Y0103348D01*
X0306561Y0104347D02*
X0208761Y0104347D01*
X0208761Y0105345D02*
X0306561Y0105345D01*
X0306561Y0106344D02*
X0208761Y0106344D01*
X0208761Y0107342D02*
X0306561Y0107342D01*
X0306561Y0108341D02*
X0208761Y0108341D01*
X0208761Y0109339D02*
X0306561Y0109339D01*
X0306561Y0110338D02*
X0208761Y0110338D01*
X0208761Y0111336D02*
X0306561Y0111336D01*
X0306561Y0112335D02*
X0208761Y0112335D01*
X0208976Y0113333D02*
X0306561Y0113333D01*
X0306561Y0114332D02*
X0209974Y0114332D01*
X0210973Y0115330D02*
X0306561Y0115330D01*
X0306561Y0116329D02*
X0211971Y0116329D01*
X0212970Y0117327D02*
X0306673Y0117327D01*
X0307086Y0118326D02*
X0213968Y0118326D01*
X0214967Y0119324D02*
X0308052Y0119324D01*
X0309051Y0120323D02*
X0215965Y0120323D01*
X0216964Y0121321D02*
X0310049Y0121321D01*
X0311048Y0122320D02*
X0217962Y0122320D01*
X0217628Y0095360D02*
X0208761Y0095360D01*
X0208761Y0094362D02*
X0216049Y0094362D01*
X0215309Y0093363D02*
X0208761Y0093363D01*
X0208761Y0092365D02*
X0214895Y0092365D01*
X0214872Y0091366D02*
X0208761Y0091366D01*
X0208761Y0090368D02*
X0215006Y0090368D01*
X0215420Y0089369D02*
X0208761Y0089369D01*
X0208761Y0088370D02*
X0216317Y0088370D01*
X0222987Y0092365D02*
X0242031Y0092365D01*
X0242031Y0093363D02*
X0222573Y0093363D01*
X0221833Y0094362D02*
X0242031Y0094362D01*
X0242314Y0095360D02*
X0220253Y0095360D01*
X0246016Y0095360D02*
X0246984Y0095360D01*
X0246984Y0094362D02*
X0246016Y0094362D01*
X0246016Y0093363D02*
X0246984Y0093363D01*
X0246984Y0092365D02*
X0246016Y0092365D01*
X0250968Y0092365D02*
X0264777Y0092365D01*
X0265191Y0093363D02*
X0250968Y0093363D01*
X0250968Y0094362D02*
X0265931Y0094362D01*
X0267510Y0095360D02*
X0250686Y0095360D01*
X0246984Y0089369D02*
X0246016Y0089369D01*
X0246016Y0088370D02*
X0246984Y0088370D01*
X0246984Y0087372D02*
X0246016Y0087372D01*
X0266161Y0078385D02*
X0306561Y0078385D01*
X0306561Y0077387D02*
X0267160Y0077387D01*
X0268158Y0076388D02*
X0306561Y0076388D01*
X0306561Y0075390D02*
X0284603Y0075390D01*
X0284907Y0075264D02*
X0283412Y0075883D01*
X0281793Y0075883D01*
X0280298Y0075264D01*
X0279153Y0074120D01*
X0278534Y0072624D01*
X0278534Y0071006D01*
X0279153Y0069510D01*
X0280298Y0068366D01*
X0281793Y0067746D01*
X0283412Y0067746D01*
X0284907Y0068366D01*
X0286051Y0069510D01*
X0286671Y0071006D01*
X0286671Y0072624D01*
X0286051Y0074120D01*
X0284907Y0075264D01*
X0285780Y0074391D02*
X0306561Y0074391D01*
X0306411Y0073393D02*
X0286353Y0073393D01*
X0286671Y0072394D02*
X0306093Y0072394D01*
X0306093Y0071396D02*
X0286671Y0071396D01*
X0286419Y0070397D02*
X0306345Y0070397D01*
X0306824Y0069399D02*
X0285940Y0069399D01*
X0284941Y0068400D02*
X0307822Y0068400D01*
X0312500Y0068400D02*
X0334818Y0068400D01*
X0333953Y0069399D02*
X0313499Y0069399D01*
X0313978Y0070397D02*
X0333483Y0070397D01*
X0337236Y0070397D02*
X0338205Y0070397D01*
X0338205Y0071331D02*
X0338205Y0067367D01*
X0338767Y0067456D01*
X0339436Y0067674D01*
X0340062Y0067993D01*
X0340631Y0068407D01*
X0341129Y0068904D01*
X0341542Y0069473D01*
X0341862Y0070100D01*
X0342079Y0070769D01*
X0342168Y0071331D01*
X0338205Y0071331D01*
X0338205Y0072394D02*
X0337236Y0072394D01*
X0337236Y0073393D02*
X0338205Y0073393D01*
X0338205Y0074391D02*
X0337236Y0074391D01*
X0337236Y0075390D02*
X0338205Y0075390D01*
X0341958Y0070397D02*
X0383786Y0070397D01*
X0384265Y0069399D02*
X0341488Y0069399D01*
X0340623Y0068400D02*
X0370841Y0068400D01*
X0370151Y0067402D02*
X0338421Y0067402D01*
X0338205Y0067402D02*
X0337236Y0067402D01*
X0337020Y0067402D02*
X0276515Y0067402D01*
X0276727Y0068400D02*
X0280263Y0068400D01*
X0279265Y0069399D02*
X0276538Y0069399D01*
X0275831Y0070397D02*
X0278786Y0070397D01*
X0278534Y0071396D02*
X0273151Y0071396D01*
X0272153Y0072394D02*
X0278534Y0072394D01*
X0278852Y0073393D02*
X0271154Y0073393D01*
X0270155Y0074391D02*
X0279425Y0074391D01*
X0280601Y0075390D02*
X0269157Y0075390D01*
X0271447Y0088370D02*
X0293758Y0088370D01*
X0292861Y0089369D02*
X0272344Y0089369D01*
X0272757Y0090368D02*
X0292447Y0090368D01*
X0292313Y0091366D02*
X0272891Y0091366D01*
X0272868Y0092365D02*
X0292336Y0092365D01*
X0292750Y0093363D02*
X0272455Y0093363D01*
X0271715Y0094362D02*
X0293490Y0094362D01*
X0295069Y0095360D02*
X0270135Y0095360D01*
X0313761Y0094362D02*
X0321049Y0094362D01*
X0320309Y0093363D02*
X0313761Y0093363D01*
X0313761Y0092365D02*
X0319895Y0092365D01*
X0319872Y0091366D02*
X0313761Y0091366D01*
X0313761Y0090368D02*
X0320006Y0090368D01*
X0320420Y0089369D02*
X0313761Y0089369D01*
X0313761Y0088370D02*
X0321317Y0088370D01*
X0326565Y0088370D02*
X0347031Y0088370D01*
X0347031Y0089369D02*
X0327462Y0089369D01*
X0327876Y0090368D02*
X0347031Y0090368D01*
X0351016Y0090368D02*
X0351984Y0090368D01*
X0351984Y0089369D02*
X0351016Y0089369D01*
X0351016Y0088370D02*
X0351984Y0088370D01*
X0351984Y0087372D02*
X0351016Y0087372D01*
X0347570Y0087372D02*
X0313761Y0087372D01*
X0351016Y0092365D02*
X0351984Y0092365D01*
X0351984Y0091984D02*
X0351984Y0095968D01*
X0354666Y0095968D01*
X0355047Y0095866D01*
X0355390Y0095669D01*
X0355669Y0095390D01*
X0355866Y0095047D01*
X0355968Y0094666D01*
X0355968Y0091984D01*
X0351984Y0091984D01*
X0351984Y0093363D02*
X0351016Y0093363D01*
X0351016Y0094362D02*
X0351984Y0094362D01*
X0351984Y0095360D02*
X0351016Y0095360D01*
X0355686Y0095360D02*
X0372510Y0095360D01*
X0370931Y0094362D02*
X0355968Y0094362D01*
X0355968Y0093363D02*
X0370191Y0093363D01*
X0369777Y0092365D02*
X0355968Y0092365D01*
X0385284Y0076388D02*
X0411561Y0076388D01*
X0411561Y0075390D02*
X0389603Y0075390D01*
X0390780Y0074391D02*
X0411561Y0074391D01*
X0411411Y0073393D02*
X0391353Y0073393D01*
X0391671Y0072394D02*
X0411093Y0072394D01*
X0411093Y0071396D02*
X0391671Y0071396D01*
X0391419Y0070397D02*
X0411345Y0070397D01*
X0411824Y0069399D02*
X0390940Y0069399D01*
X0389941Y0068400D02*
X0412822Y0068400D01*
X0426594Y0062409D02*
X0470144Y0062409D01*
X0470144Y0061411D02*
X0425595Y0061411D01*
X0424597Y0060412D02*
X0470144Y0060412D01*
X0470144Y0059414D02*
X0423598Y0059414D01*
X0422600Y0058415D02*
X0470144Y0058415D01*
X0470144Y0057417D02*
X0421601Y0057417D01*
X0420603Y0056418D02*
X0470144Y0056418D01*
X0470144Y0055420D02*
X0419604Y0055420D01*
X0418606Y0054421D02*
X0470144Y0054421D01*
X0470144Y0053423D02*
X0417607Y0053423D01*
X0416609Y0052424D02*
X0470144Y0052424D01*
X0470144Y0051426D02*
X0415610Y0051426D01*
X0419314Y0059414D02*
X0419638Y0059414D01*
X0418690Y0060412D02*
X0420637Y0060412D01*
X0427592Y0063408D02*
X0470144Y0063408D01*
X0470144Y0064406D02*
X0428591Y0064406D01*
X0429589Y0065405D02*
X0470144Y0065405D01*
X0470144Y0066403D02*
X0430588Y0066403D01*
X0431586Y0067402D02*
X0442020Y0067402D01*
X0442236Y0067402D02*
X0443205Y0067402D01*
X0443205Y0067367D02*
X0443767Y0067456D01*
X0444436Y0067674D01*
X0445062Y0067993D01*
X0445631Y0068407D01*
X0446129Y0068904D01*
X0446542Y0069473D01*
X0446862Y0070100D01*
X0447079Y0070769D01*
X0447168Y0071331D01*
X0443205Y0071331D01*
X0443205Y0072299D01*
X0447168Y0072299D01*
X0447079Y0072861D01*
X0446862Y0073530D01*
X0446542Y0074157D01*
X0446129Y0074726D01*
X0445631Y0075223D01*
X0445062Y0075637D01*
X0444436Y0075956D01*
X0443767Y0076173D01*
X0443205Y0076262D01*
X0443205Y0072299D01*
X0442236Y0072299D01*
X0442236Y0071331D01*
X0438273Y0071331D01*
X0438362Y0070769D01*
X0438579Y0070100D01*
X0438899Y0069473D01*
X0439312Y0068904D01*
X0439809Y0068407D01*
X0440378Y0067993D01*
X0441005Y0067674D01*
X0441674Y0067456D01*
X0442236Y0067367D01*
X0442236Y0071331D01*
X0443205Y0071331D01*
X0443205Y0067367D01*
X0443421Y0067402D02*
X0470144Y0067402D01*
X0470144Y0068400D02*
X0445623Y0068400D01*
X0446488Y0069399D02*
X0470144Y0069399D01*
X0470144Y0070397D02*
X0446958Y0070397D01*
X0447153Y0072394D02*
X0470144Y0072394D01*
X0470144Y0071396D02*
X0443205Y0071396D01*
X0442236Y0071396D02*
X0435580Y0071396D01*
X0434582Y0070397D02*
X0438483Y0070397D01*
X0438953Y0069399D02*
X0433583Y0069399D01*
X0432585Y0068400D02*
X0439818Y0068400D01*
X0442236Y0068400D02*
X0443205Y0068400D01*
X0443205Y0069399D02*
X0442236Y0069399D01*
X0442236Y0070397D02*
X0443205Y0070397D01*
X0443205Y0072394D02*
X0442236Y0072394D01*
X0442236Y0072299D02*
X0442236Y0076262D01*
X0441674Y0076173D01*
X0441005Y0075956D01*
X0440378Y0075637D01*
X0439809Y0075223D01*
X0439312Y0074726D01*
X0438899Y0074157D01*
X0438579Y0073530D01*
X0438362Y0072861D01*
X0438273Y0072299D01*
X0442236Y0072299D01*
X0442236Y0073393D02*
X0443205Y0073393D01*
X0443205Y0074391D02*
X0442236Y0074391D01*
X0442236Y0075390D02*
X0443205Y0075390D01*
X0445402Y0075390D02*
X0470144Y0075390D01*
X0470144Y0076388D02*
X0440573Y0076388D01*
X0440039Y0075390D02*
X0439574Y0075390D01*
X0439069Y0074391D02*
X0438576Y0074391D01*
X0438535Y0073393D02*
X0437577Y0073393D01*
X0438288Y0072394D02*
X0436579Y0072394D01*
X0441571Y0077387D02*
X0470144Y0077387D01*
X0470144Y0078385D02*
X0442570Y0078385D01*
X0443568Y0079384D02*
X0470144Y0079384D01*
X0470144Y0080382D02*
X0444567Y0080382D01*
X0445566Y0081381D02*
X0470144Y0081381D01*
X0470144Y0082379D02*
X0446564Y0082379D01*
X0456016Y0087372D02*
X0456984Y0087372D01*
X0456984Y0088370D02*
X0456016Y0088370D01*
X0456016Y0089369D02*
X0456984Y0089369D01*
X0452031Y0090368D02*
X0451644Y0090368D01*
X0452031Y0091984D02*
X0456016Y0091984D01*
X0456016Y0095968D01*
X0453334Y0095968D01*
X0452953Y0095866D01*
X0452610Y0095669D01*
X0452331Y0095390D01*
X0452134Y0095047D01*
X0452031Y0094666D01*
X0452031Y0091984D01*
X0452031Y0092365D02*
X0432987Y0092365D01*
X0432573Y0093363D02*
X0452031Y0093363D01*
X0452031Y0094362D02*
X0431833Y0094362D01*
X0430253Y0095360D02*
X0452314Y0095360D01*
X0456016Y0095360D02*
X0456984Y0095360D01*
X0456984Y0095968D02*
X0456984Y0091984D01*
X0460968Y0091984D01*
X0460968Y0094666D01*
X0460866Y0095047D01*
X0460669Y0095390D01*
X0460390Y0095669D01*
X0460047Y0095866D01*
X0459666Y0095968D01*
X0456984Y0095968D01*
X0456984Y0094362D02*
X0456016Y0094362D01*
X0456016Y0093363D02*
X0456984Y0093363D01*
X0456984Y0092365D02*
X0456016Y0092365D01*
X0460968Y0092365D02*
X0470144Y0092365D01*
X0470144Y0093363D02*
X0460968Y0093363D01*
X0460968Y0094362D02*
X0470144Y0094362D01*
X0470144Y0095360D02*
X0460686Y0095360D01*
X0488438Y0095360D02*
X0490218Y0095360D01*
X0490218Y0094362D02*
X0489437Y0094362D01*
X0493018Y0094362D02*
X0493563Y0094362D01*
X0493018Y0095360D02*
X0494562Y0095360D01*
X0490196Y0098356D02*
X0489154Y0098356D01*
X0490152Y0099354D02*
X0490647Y0099354D01*
X0490600Y0100353D02*
X0492178Y0100353D01*
X0492400Y0101351D02*
X0490600Y0101351D01*
X0490600Y0102350D02*
X0492400Y0102350D01*
X0492550Y0103348D02*
X0490450Y0103348D01*
X0491169Y0104347D02*
X0493548Y0104347D01*
X0493861Y0108341D02*
X0489139Y0108341D01*
X0490137Y0109339D02*
X0492862Y0109339D01*
X0492400Y0110338D02*
X0490600Y0110338D01*
X0490600Y0111336D02*
X0492400Y0111336D01*
X0492400Y0112335D02*
X0490600Y0112335D01*
X0490465Y0113333D02*
X0492535Y0113333D01*
X0493534Y0114332D02*
X0489466Y0114332D01*
X0488468Y0115330D02*
X0494532Y0115330D01*
X0498468Y0115330D02*
X0501084Y0115330D01*
X0501084Y0114332D02*
X0499466Y0114332D01*
X0500465Y0113333D02*
X0501084Y0113333D01*
X0501084Y0112335D02*
X0500600Y0112335D01*
X0500600Y0111336D02*
X0501084Y0111336D01*
X0501084Y0110338D02*
X0500600Y0110338D01*
X0500137Y0109339D02*
X0501084Y0109339D01*
X0501084Y0108341D02*
X0499139Y0108341D01*
X0493593Y0074391D02*
X0493018Y0074391D01*
X0470144Y0074391D02*
X0446372Y0074391D01*
X0446906Y0073393D02*
X0470144Y0073393D01*
X0426587Y0043437D02*
X0407622Y0043437D01*
X0387388Y0055420D02*
X0302478Y0055420D01*
X0337236Y0068400D02*
X0338205Y0068400D01*
X0338205Y0069399D02*
X0337236Y0069399D01*
X0374285Y0068400D02*
X0374778Y0068400D01*
X0378222Y0068400D02*
X0378715Y0068400D01*
X0382159Y0068400D02*
X0385263Y0068400D01*
X0325473Y0011485D02*
X0454674Y0011485D01*
X0453883Y0010487D02*
X0324955Y0010487D01*
X0324808Y0009488D02*
X0453635Y0009488D01*
X0453788Y0008490D02*
X0324159Y0008490D01*
X0276203Y0007491D02*
X0454446Y0007491D01*
X0458003Y0007491D02*
X0508811Y0007491D01*
X0508811Y0006493D02*
X0275205Y0006493D01*
X0458660Y0008490D02*
X0508811Y0008490D01*
X0508811Y0009488D02*
X0458813Y0009488D01*
D19*
X0456224Y0009374D03*
X0421776Y0027091D03*
X0412917Y0030043D03*
X0426697Y0035949D03*
X0434571Y0032996D03*
X0437524Y0038902D03*
X0428665Y0041854D03*
X0389295Y0053665D03*
X0416854Y0058587D03*
X0380437Y0066461D03*
X0376500Y0066461D03*
X0372563Y0066461D03*
X0311539Y0047760D03*
X0297760Y0048744D03*
X0303665Y0058587D03*
X0289886Y0058587D03*
X0274138Y0068429D03*
X0207209Y0047760D03*
X0219020Y0039886D03*
X0222957Y0039886D03*
X0205240Y0035949D03*
X0174256Y0034925D03*
X0160949Y0032012D03*
X0132406Y0039886D03*
X0124531Y0044807D03*
X0099925Y0034965D03*
X0085161Y0034965D03*
X0065476Y0033980D03*
X0059571Y0039886D03*
X0053665Y0033980D03*
X0040870Y0029059D03*
X0056382Y0021854D03*
X0037917Y0039886D03*
X0045358Y0053075D03*
X0043823Y0060555D03*
X0072366Y0055752D03*
X0076303Y0066461D03*
X0076303Y0078272D03*
X0080240Y0081224D03*
X0083193Y0084177D03*
X0091067Y0082209D03*
X0092051Y0094020D03*
X0171776Y0074335D03*
X0181618Y0066461D03*
X0171776Y0052681D03*
X0322366Y0010358D03*
X0450319Y0088114D03*
X0474925Y0126500D03*
X0273154Y0131421D03*
X0273154Y0135358D03*
X0179650Y0119610D03*
M02*
